%TF.GenerationSoftware,KiCad,Pcbnew,10.0.3*%
%TF.CreationDate,2026-06-10T10:53:02+01:00*%
%TF.ProjectId,wakelight,77616b65-6c69-4676-9874-2e6b69636164,rev?*%
%TF.SameCoordinates,Original*%
%TF.FileFunction,Copper,L2,Bot*%
%TF.FilePolarity,Positive*%
%FSLAX46Y46*%
G04 Gerber Fmt 4.6, Leading zero omitted, Abs format (unit mm)*
G04 Created by KiCad (PCBNEW 10.0.3) date 2026-06-10 10:53:02*
%MOMM*%
%LPD*%
G01*
G04 APERTURE LIST*
%TA.AperFunction,ComponentPad*%
%ADD10O,1.000000X2.100000*%
%TD*%
%TA.AperFunction,ComponentPad*%
%ADD11O,1.000000X1.600000*%
%TD*%
%TA.AperFunction,HeatsinkPad*%
%ADD12C,0.600000*%
%TD*%
%TA.AperFunction,ComponentPad*%
%ADD13C,3.400000*%
%TD*%
%TA.AperFunction,ComponentPad*%
%ADD14C,2.900000*%
%TD*%
%TA.AperFunction,ViaPad*%
%ADD15C,0.700000*%
%TD*%
%TA.AperFunction,Conductor*%
%ADD16C,0.500000*%
%TD*%
%TA.AperFunction,Conductor*%
%ADD17C,0.250000*%
%TD*%
G04 APERTURE END LIST*
D10*
%TO.P,J1,SH*%
%TO.N,GND*%
X28680000Y-35370000D03*
D11*
X28680000Y-39550000D03*
D10*
X37320000Y-35370000D03*
D11*
X37320000Y-39550000D03*
%TD*%
D12*
%TO.P,U1,39*%
%TO.N,GND*%
X8060000Y-19900000D03*
X9460000Y-19900000D03*
X7360000Y-19200000D03*
X8760000Y-19200000D03*
X10160000Y-19200000D03*
X8060000Y-18500000D03*
X9460000Y-18500000D03*
X7360000Y-17800000D03*
X8760000Y-17800000D03*
X10160000Y-17800000D03*
X8060000Y-17100000D03*
X9460000Y-17100000D03*
%TD*%
D13*
%TO.P,J2,1*%
%TO.N,GND*%
X48850000Y-17000000D03*
D14*
%TO.P,J2,2*%
%TO.N,DMX_B*%
X52665000Y-20810000D03*
%TO.P,J2,3*%
%TO.N,DMX_A*%
X48850000Y-20810000D03*
%TO.P,J2,4*%
%TO.N,N/C*%
X52665000Y-27790000D03*
D13*
%TO.P,J2,5*%
X48850000Y-24620000D03*
D14*
%TO.P,J2,G*%
%TO.N,GND*%
X59020000Y-12560000D03*
%TD*%
D15*
%TO.N,+3V3*%
X7366000Y-28448000D03*
X2032000Y-27432000D03*
%TO.N,DMX_EN*%
X35179000Y-9398000D03*
X33020000Y-9144000D03*
%TO.N,RTS*%
X26289000Y-26670000D03*
X21463000Y-33274000D03*
%TO.N,Q_IO0_B*%
X22860000Y-33274000D03*
X14224000Y-31623000D03*
%TO.N,GND*%
X22525000Y-15787500D03*
X11425000Y-27650000D03*
X41975000Y-12754999D03*
X18750000Y-39900000D03*
X27705000Y-28475000D03*
X44800000Y-35900000D03*
X11160000Y-18500000D03*
X28900000Y-33600000D03*
X10475000Y-27825000D03*
X9750000Y-39900000D03*
X16050000Y-39900000D03*
X30400000Y-30000000D03*
X25049999Y-39900000D03*
X48900000Y-35600000D03*
X42000000Y-14225000D03*
X41450000Y-36225000D03*
X42775000Y-4350000D03*
X37200000Y-33500000D03*
X37300000Y-32200000D03*
X40025000Y-4525000D03*
X1040000Y-23750000D03*
X29825000Y-22000000D03*
%TO.N,DMX_DI*%
X37084000Y-11938000D03*
X15494000Y-9906000D03*
%TO.N,DMX_A*%
X44196000Y-3937000D03*
X42037000Y-10668000D03*
%TO.N,+5V*%
X38735000Y-37084000D03*
X30550000Y-33400000D03*
X35450000Y-33400000D03*
%TO.N,USB_DP*%
X34050000Y-32350000D03*
X33200000Y-30550000D03*
%TO.N,USB_DM*%
X32450000Y-30000000D03*
X34905000Y-27550000D03*
%TO.N,IO0*%
X16637000Y-35179000D03*
X13462000Y-17780000D03*
X15875000Y-32512000D03*
%TO.N,U0_RX*%
X29845000Y-28448000D03*
X8000999Y-10668000D03*
%TO.N,U0_TX*%
X31115000Y-28448000D03*
X10414000Y-11430000D03*
%TD*%
%TO.N,+3V3*%
D16*
X2032000Y-27432000D02*
X6350000Y-27432000D01*
X6350000Y-27432000D02*
X7366000Y-28448000D01*
%TO.N,DMX_EN*%
D17*
X33147000Y-9144000D02*
X33020000Y-9144000D01*
X35179000Y-9398000D02*
X33528000Y-9398000D01*
X33528000Y-9398000D02*
X33401000Y-9271000D01*
X33401000Y-9271000D02*
X33274000Y-9271000D01*
X33274000Y-9271000D02*
X33147000Y-9144000D01*
%TO.N,RTS*%
X21590000Y-32893000D02*
X21590000Y-33020000D01*
X26289000Y-26670000D02*
X22987000Y-29972000D01*
X21463000Y-33147000D02*
X21463000Y-33274000D01*
X22987000Y-31496000D02*
X21590000Y-32893000D01*
X22987000Y-29972000D02*
X22987000Y-31496000D01*
X21590000Y-33020000D02*
X21463000Y-33147000D01*
%TO.N,Q_IO0_B*%
X22098000Y-34036000D02*
X22860000Y-33274000D01*
X18415000Y-31623000D02*
X20828000Y-34036000D01*
X20828000Y-34036000D02*
X22098000Y-34036000D01*
X14224000Y-31623000D02*
X18415000Y-31623000D01*
%TO.N,DMX_DI*%
X33909000Y-10541000D02*
X34036000Y-10541000D01*
X36322000Y-11557000D02*
X36449000Y-11684000D01*
X34925000Y-10922000D02*
X35052000Y-11049000D01*
X32766000Y-10033000D02*
X33020000Y-10033000D01*
X35179000Y-11049000D02*
X35306000Y-11176000D01*
X34544000Y-10795000D02*
X34671000Y-10795000D01*
X33274000Y-10160000D02*
X33401000Y-10287000D01*
X33401000Y-10287000D02*
X33528000Y-10287000D01*
X33020000Y-10033000D02*
X33147000Y-10160000D01*
X36195000Y-11557000D02*
X36322000Y-11557000D01*
X33655000Y-10414000D02*
X33782000Y-10414000D01*
X33147000Y-10160000D02*
X33274000Y-10160000D01*
X34798000Y-10922000D02*
X34925000Y-10922000D01*
X34417000Y-10668000D02*
X34544000Y-10795000D01*
X36068000Y-11430000D02*
X36195000Y-11557000D01*
X36449000Y-11684000D02*
X36576000Y-11684000D01*
X36957000Y-11938000D02*
X37084000Y-11938000D01*
X35941000Y-11430000D02*
X36068000Y-11430000D01*
X32639000Y-9906000D02*
X32766000Y-10033000D01*
X36830000Y-11811000D02*
X36957000Y-11938000D01*
X33528000Y-10287000D02*
X33655000Y-10414000D01*
X35052000Y-11049000D02*
X35179000Y-11049000D01*
X34036000Y-10541000D02*
X34163000Y-10668000D01*
X15494000Y-9906000D02*
X32639000Y-9906000D01*
X34671000Y-10795000D02*
X34798000Y-10922000D01*
X35306000Y-11176000D02*
X35433000Y-11176000D01*
X35814000Y-11303000D02*
X35941000Y-11430000D01*
X35433000Y-11176000D02*
X35560000Y-11303000D01*
X33782000Y-10414000D02*
X33909000Y-10541000D01*
X35560000Y-11303000D02*
X35814000Y-11303000D01*
X36703000Y-11811000D02*
X36830000Y-11811000D01*
X36576000Y-11684000D02*
X36703000Y-11811000D01*
X34163000Y-10668000D02*
X34417000Y-10668000D01*
%TO.N,DMX_A*%
X42672000Y-9144000D02*
X42672000Y-9398000D01*
X44196000Y-3937000D02*
X44196000Y-4445000D01*
X42164000Y-10414000D02*
X42037000Y-10541000D01*
X42545000Y-9525000D02*
X42545000Y-9652000D01*
X42926000Y-8763000D02*
X42799000Y-8890000D01*
X43688000Y-7112000D02*
X43561000Y-7239000D01*
X43561000Y-7366000D02*
X43434000Y-7493000D01*
X43561000Y-7239000D02*
X43561000Y-7366000D01*
X43434000Y-7493000D02*
X43434000Y-7620000D01*
X42037000Y-10541000D02*
X42037000Y-10668000D01*
X43180000Y-8255000D02*
X43053000Y-8382000D01*
X43053000Y-8382000D02*
X43053000Y-8509000D01*
X42418000Y-9779000D02*
X42418000Y-9906000D01*
X43688000Y-6985000D02*
X43688000Y-7112000D01*
X42672000Y-9398000D02*
X42545000Y-9525000D01*
X42291000Y-10033000D02*
X42291000Y-10160000D01*
X44069000Y-4572000D02*
X44069000Y-6223000D01*
X43815000Y-6731000D02*
X43815000Y-6858000D01*
X44196000Y-4445000D02*
X44069000Y-4572000D01*
X42164000Y-10287000D02*
X42164000Y-10414000D01*
X43942000Y-6350000D02*
X43942000Y-6604000D01*
X43815000Y-6858000D02*
X43688000Y-6985000D01*
X42799000Y-8890000D02*
X42799000Y-9017000D01*
X43434000Y-7620000D02*
X43307000Y-7747000D01*
X43053000Y-8509000D02*
X42926000Y-8636000D01*
X43307000Y-7747000D02*
X43307000Y-8000999D01*
X43180000Y-8128000D02*
X43180000Y-8255000D01*
X42926000Y-8636000D02*
X42926000Y-8763000D01*
X42799000Y-9017000D02*
X42672000Y-9144000D01*
X44069000Y-6223000D02*
X43942000Y-6350000D01*
X42418000Y-9906000D02*
X42291000Y-10033000D01*
X42545000Y-9652000D02*
X42418000Y-9779000D01*
X43307000Y-8000999D02*
X43180000Y-8128000D01*
X43942000Y-6604000D02*
X43815000Y-6731000D01*
X42291000Y-10160000D02*
X42164000Y-10287000D01*
%TO.N,+5V*%
D16*
X30550000Y-33400000D02*
X30550000Y-34300000D01*
X34925000Y-36830000D02*
X34925000Y-34290000D01*
X36195000Y-37084000D02*
X36068000Y-36957000D01*
X35450000Y-34300000D02*
X35450000Y-33400000D01*
X30550000Y-34300000D02*
X35450000Y-34300000D01*
X36068000Y-36957000D02*
X35052000Y-36957000D01*
X38735000Y-37084000D02*
X36195000Y-37084000D01*
X35052000Y-36957000D02*
X34925000Y-36830000D01*
%TO.N,USB_DP*%
D17*
X34050000Y-32350000D02*
X33200000Y-30550000D01*
%TO.N,USB_DM*%
X32450000Y-30000000D02*
X34905000Y-27550000D01*
%TO.N,IO0*%
X16129000Y-33147000D02*
X16129000Y-33020000D01*
X16383000Y-33655000D02*
X16383000Y-33528000D01*
X16510000Y-33782000D02*
X16383000Y-33655000D01*
X16383000Y-33528000D02*
X16256000Y-33401000D01*
X15875000Y-32512000D02*
X15748000Y-32384999D01*
X16129000Y-33020000D02*
X16001999Y-32893000D01*
X16256000Y-33401000D02*
X16256000Y-33274000D01*
X13462000Y-32258000D02*
X13462000Y-17780000D01*
X16637000Y-35179000D02*
X16637000Y-34163000D01*
X16637000Y-34163000D02*
X16510000Y-34036000D01*
X15748000Y-32384999D02*
X13589000Y-32384999D01*
X16510000Y-34036000D02*
X16510000Y-33782000D01*
X16001999Y-32766000D02*
X15875000Y-32639000D01*
X13589000Y-32384999D02*
X13462000Y-32258000D01*
X16256000Y-33274000D02*
X16129000Y-33147000D01*
X15875000Y-32639000D02*
X15875000Y-32512000D01*
X16001999Y-32893000D02*
X16001999Y-32766000D01*
%TO.N,U0_RX*%
X23495000Y-22098000D02*
X19431000Y-22098000D01*
X19431000Y-22098000D02*
X8000999Y-10668000D01*
X29845000Y-28448000D02*
X23495000Y-22098000D01*
%TO.N,U0_TX*%
X30607000Y-27813000D02*
X24384000Y-21590000D01*
X30607000Y-27940000D02*
X30607000Y-27813000D01*
X20828000Y-21590000D02*
X10668000Y-11430000D01*
X31115000Y-28448000D02*
X30607000Y-27940000D01*
X24384000Y-21590000D02*
X20828000Y-21590000D01*
X10668000Y-11430000D02*
X10414000Y-11430000D01*
%TD*%
%TA.AperFunction,Conductor*%
%TO.N,GND*%
G36*
X65442539Y-520185D02*
G01*
X65488294Y-572989D01*
X65499500Y-624500D01*
X65499500Y-41375500D01*
X65479815Y-41442539D01*
X65427011Y-41488294D01*
X65375500Y-41499500D01*
X624500Y-41499500D01*
X557461Y-41479815D01*
X511706Y-41427011D01*
X500500Y-41375500D01*
X500500Y-38378711D01*
X1649500Y-38378711D01*
X1649500Y-38621288D01*
X1681161Y-38861785D01*
X1743947Y-39096104D01*
X1828404Y-39300000D01*
X1836776Y-39320212D01*
X1958064Y-39530289D01*
X1958066Y-39530292D01*
X1958067Y-39530293D01*
X2105733Y-39722736D01*
X2105739Y-39722743D01*
X2277256Y-39894260D01*
X2277262Y-39894265D01*
X2469711Y-40041936D01*
X2679788Y-40163224D01*
X2903900Y-40256054D01*
X3138211Y-40318838D01*
X3318586Y-40342584D01*
X3378711Y-40350500D01*
X3378712Y-40350500D01*
X3621289Y-40350500D01*
X3669388Y-40344167D01*
X3861789Y-40318838D01*
X4096100Y-40256054D01*
X4320212Y-40163224D01*
X4530289Y-40041936D01*
X4722738Y-39894265D01*
X4894265Y-39722738D01*
X5041936Y-39530289D01*
X5163224Y-39320212D01*
X5233105Y-39151504D01*
X27680000Y-39151504D01*
X27680000Y-39300000D01*
X28380000Y-39300000D01*
X28380000Y-39800000D01*
X27680000Y-39800000D01*
X27680000Y-39948495D01*
X27718427Y-40141681D01*
X27718430Y-40141693D01*
X27793807Y-40323671D01*
X27793814Y-40323684D01*
X27903248Y-40487462D01*
X27903251Y-40487466D01*
X28042533Y-40626748D01*
X28042537Y-40626751D01*
X28206315Y-40736185D01*
X28206328Y-40736192D01*
X28388308Y-40811569D01*
X28430000Y-40819862D01*
X28430000Y-40016988D01*
X28439940Y-40034205D01*
X28495795Y-40090060D01*
X28564204Y-40129556D01*
X28640504Y-40150000D01*
X28719496Y-40150000D01*
X28795796Y-40129556D01*
X28864205Y-40090060D01*
X28920060Y-40034205D01*
X28930000Y-40016988D01*
X28930000Y-40819862D01*
X28971690Y-40811569D01*
X28971692Y-40811569D01*
X29153671Y-40736192D01*
X29153684Y-40736185D01*
X29317462Y-40626751D01*
X29317466Y-40626748D01*
X29456748Y-40487466D01*
X29456751Y-40487462D01*
X29566185Y-40323684D01*
X29566192Y-40323671D01*
X29641569Y-40141693D01*
X29641572Y-40141681D01*
X29679999Y-39948495D01*
X29680000Y-39948492D01*
X29680000Y-39800000D01*
X28980000Y-39800000D01*
X28980000Y-39300000D01*
X29680000Y-39300000D01*
X29680000Y-39151508D01*
X29679999Y-39151504D01*
X36320000Y-39151504D01*
X36320000Y-39300000D01*
X37020000Y-39300000D01*
X37020000Y-39800000D01*
X36320000Y-39800000D01*
X36320000Y-39948495D01*
X36358427Y-40141681D01*
X36358430Y-40141693D01*
X36433807Y-40323671D01*
X36433814Y-40323684D01*
X36543248Y-40487462D01*
X36543251Y-40487466D01*
X36682533Y-40626748D01*
X36682537Y-40626751D01*
X36846315Y-40736185D01*
X36846328Y-40736192D01*
X37028308Y-40811569D01*
X37070000Y-40819862D01*
X37070000Y-40016988D01*
X37079940Y-40034205D01*
X37135795Y-40090060D01*
X37204204Y-40129556D01*
X37280504Y-40150000D01*
X37359496Y-40150000D01*
X37435796Y-40129556D01*
X37504205Y-40090060D01*
X37560060Y-40034205D01*
X37570000Y-40016988D01*
X37570000Y-40819862D01*
X37611690Y-40811569D01*
X37611692Y-40811569D01*
X37793671Y-40736192D01*
X37793684Y-40736185D01*
X37957462Y-40626751D01*
X37957466Y-40626748D01*
X38096748Y-40487466D01*
X38096751Y-40487462D01*
X38206185Y-40323684D01*
X38206192Y-40323671D01*
X38281569Y-40141693D01*
X38281572Y-40141681D01*
X38319999Y-39948495D01*
X38320000Y-39948492D01*
X38320000Y-39800000D01*
X37620000Y-39800000D01*
X37620000Y-39300000D01*
X38320000Y-39300000D01*
X38320000Y-39151508D01*
X38319999Y-39151504D01*
X38281572Y-38958318D01*
X38281569Y-38958306D01*
X38206192Y-38776328D01*
X38206185Y-38776315D01*
X38096751Y-38612537D01*
X38096748Y-38612533D01*
X37957468Y-38473253D01*
X37957461Y-38473247D01*
X37815979Y-38378711D01*
X60649500Y-38378711D01*
X60649500Y-38621288D01*
X60681161Y-38861785D01*
X60743947Y-39096104D01*
X60828404Y-39300000D01*
X60836776Y-39320212D01*
X60958064Y-39530289D01*
X60958066Y-39530292D01*
X60958067Y-39530293D01*
X61105733Y-39722736D01*
X61105739Y-39722743D01*
X61277256Y-39894260D01*
X61277262Y-39894265D01*
X61469711Y-40041936D01*
X61679788Y-40163224D01*
X61903900Y-40256054D01*
X62138211Y-40318838D01*
X62318586Y-40342584D01*
X62378711Y-40350500D01*
X62378712Y-40350500D01*
X62621289Y-40350500D01*
X62669388Y-40344167D01*
X62861789Y-40318838D01*
X63096100Y-40256054D01*
X63320212Y-40163224D01*
X63530289Y-40041936D01*
X63722738Y-39894265D01*
X63894265Y-39722738D01*
X64041936Y-39530289D01*
X64163224Y-39320212D01*
X64256054Y-39096100D01*
X64318838Y-38861789D01*
X64350500Y-38621288D01*
X64350500Y-38378712D01*
X64318838Y-38138211D01*
X64256054Y-37903900D01*
X64163224Y-37679788D01*
X64041936Y-37469711D01*
X63894265Y-37277262D01*
X63894260Y-37277256D01*
X63722743Y-37105739D01*
X63722736Y-37105733D01*
X63530293Y-36958067D01*
X63530292Y-36958066D01*
X63530289Y-36958064D01*
X63320212Y-36836776D01*
X63246359Y-36806185D01*
X63096104Y-36743947D01*
X62861785Y-36681161D01*
X62621289Y-36649500D01*
X62621288Y-36649500D01*
X62378712Y-36649500D01*
X62378711Y-36649500D01*
X62138214Y-36681161D01*
X61903895Y-36743947D01*
X61679794Y-36836773D01*
X61679785Y-36836777D01*
X61469706Y-36958067D01*
X61277263Y-37105733D01*
X61277256Y-37105739D01*
X61105739Y-37277256D01*
X61105733Y-37277263D01*
X60958067Y-37469706D01*
X60836777Y-37679785D01*
X60836773Y-37679794D01*
X60743947Y-37903895D01*
X60681161Y-38138214D01*
X60649500Y-38378711D01*
X37815979Y-38378711D01*
X37793684Y-38363814D01*
X37793671Y-38363807D01*
X37611691Y-38288429D01*
X37611683Y-38288427D01*
X37570000Y-38280135D01*
X37570000Y-39083011D01*
X37560060Y-39065795D01*
X37504205Y-39009940D01*
X37435796Y-38970444D01*
X37359496Y-38950000D01*
X37280504Y-38950000D01*
X37204204Y-38970444D01*
X37135795Y-39009940D01*
X37079940Y-39065795D01*
X37070000Y-39083011D01*
X37070000Y-38280136D01*
X37069999Y-38280135D01*
X37028316Y-38288427D01*
X37028308Y-38288429D01*
X36846328Y-38363807D01*
X36846315Y-38363814D01*
X36682537Y-38473248D01*
X36682533Y-38473251D01*
X36543251Y-38612533D01*
X36543248Y-38612537D01*
X36433814Y-38776315D01*
X36433807Y-38776328D01*
X36358430Y-38958306D01*
X36358427Y-38958318D01*
X36320000Y-39151504D01*
X29679999Y-39151504D01*
X29641572Y-38958318D01*
X29641569Y-38958306D01*
X29566192Y-38776328D01*
X29566185Y-38776315D01*
X29456751Y-38612537D01*
X29456748Y-38612533D01*
X29317466Y-38473251D01*
X29317462Y-38473248D01*
X29153684Y-38363814D01*
X29153671Y-38363807D01*
X28971691Y-38288429D01*
X28971683Y-38288427D01*
X28930000Y-38280135D01*
X28930000Y-39083011D01*
X28920060Y-39065795D01*
X28864205Y-39009940D01*
X28795796Y-38970444D01*
X28719496Y-38950000D01*
X28640504Y-38950000D01*
X28564204Y-38970444D01*
X28495795Y-39009940D01*
X28439940Y-39065795D01*
X28430000Y-39083011D01*
X28430000Y-38280136D01*
X28429999Y-38280135D01*
X28388316Y-38288427D01*
X28388308Y-38288429D01*
X28206328Y-38363807D01*
X28206315Y-38363814D01*
X28042537Y-38473248D01*
X28042533Y-38473251D01*
X27903251Y-38612533D01*
X27903248Y-38612537D01*
X27793814Y-38776315D01*
X27793807Y-38776328D01*
X27718430Y-38958306D01*
X27718427Y-38958318D01*
X27680000Y-39151504D01*
X5233105Y-39151504D01*
X5256054Y-39096100D01*
X5318838Y-38861789D01*
X5350500Y-38621288D01*
X5350500Y-38378712D01*
X5318838Y-38138211D01*
X5256054Y-37903900D01*
X5163224Y-37679788D01*
X5041936Y-37469711D01*
X4894265Y-37277262D01*
X4894260Y-37277256D01*
X4722743Y-37105739D01*
X4722736Y-37105733D01*
X4530293Y-36958067D01*
X4530292Y-36958066D01*
X4530289Y-36958064D01*
X4320212Y-36836776D01*
X4246359Y-36806185D01*
X4096104Y-36743947D01*
X3861785Y-36681161D01*
X3621289Y-36649500D01*
X3621288Y-36649500D01*
X3378712Y-36649500D01*
X3378711Y-36649500D01*
X3138214Y-36681161D01*
X2903895Y-36743947D01*
X2679794Y-36836773D01*
X2679785Y-36836777D01*
X2469706Y-36958067D01*
X2277263Y-37105733D01*
X2277256Y-37105739D01*
X2105739Y-37277256D01*
X2105733Y-37277263D01*
X1958067Y-37469706D01*
X1836777Y-37679785D01*
X1836773Y-37679794D01*
X1743947Y-37903895D01*
X1681161Y-38138214D01*
X1649500Y-38378711D01*
X500500Y-38378711D01*
X500500Y-27352943D01*
X1431500Y-27352943D01*
X1431500Y-27511057D01*
X1463118Y-27629055D01*
X1472423Y-27663783D01*
X1472426Y-27663790D01*
X1551475Y-27800709D01*
X1551479Y-27800714D01*
X1551480Y-27800716D01*
X1663284Y-27912520D01*
X1663286Y-27912521D01*
X1663290Y-27912524D01*
X1789281Y-27985264D01*
X1800216Y-27991577D01*
X1952943Y-28032500D01*
X1952945Y-28032500D01*
X2111055Y-28032500D01*
X2111057Y-28032500D01*
X2263784Y-27991577D01*
X2337334Y-27949112D01*
X2399334Y-27932500D01*
X6091324Y-27932500D01*
X6158363Y-27952185D01*
X6179005Y-27968819D01*
X6752347Y-28542161D01*
X6784440Y-28597747D01*
X6806421Y-28679779D01*
X6806426Y-28679790D01*
X6885475Y-28816709D01*
X6885479Y-28816714D01*
X6885480Y-28816716D01*
X6997284Y-28928520D01*
X6997286Y-28928521D01*
X6997290Y-28928524D01*
X7134209Y-29007573D01*
X7134216Y-29007577D01*
X7286943Y-29048500D01*
X7286945Y-29048500D01*
X7445055Y-29048500D01*
X7445057Y-29048500D01*
X7597784Y-29007577D01*
X7734716Y-28928520D01*
X7846520Y-28816716D01*
X7925577Y-28679784D01*
X7966500Y-28527057D01*
X7966500Y-28368943D01*
X7925577Y-28216216D01*
X7887636Y-28150499D01*
X7846524Y-28079290D01*
X7846518Y-28079282D01*
X7734717Y-27967481D01*
X7734709Y-27967475D01*
X7597790Y-27888426D01*
X7597786Y-27888424D01*
X7597784Y-27888423D01*
X7597782Y-27888422D01*
X7597779Y-27888421D01*
X7515747Y-27866440D01*
X7460161Y-27834347D01*
X6657316Y-27031502D01*
X6657314Y-27031500D01*
X6586167Y-26990423D01*
X6543187Y-26965608D01*
X6479539Y-26948554D01*
X6415892Y-26931500D01*
X6415891Y-26931500D01*
X2399334Y-26931500D01*
X2337334Y-26914887D01*
X2263786Y-26872424D01*
X2263785Y-26872423D01*
X2263784Y-26872423D01*
X2111057Y-26831500D01*
X1952943Y-26831500D01*
X1800216Y-26872423D01*
X1800209Y-26872426D01*
X1663290Y-26951475D01*
X1663282Y-26951481D01*
X1551481Y-27063282D01*
X1551475Y-27063290D01*
X1472426Y-27200209D01*
X1472423Y-27200216D01*
X1431500Y-27352943D01*
X500500Y-27352943D01*
X500500Y-10588943D01*
X7400499Y-10588943D01*
X7400499Y-10747057D01*
X7439045Y-10890911D01*
X7441422Y-10899783D01*
X7441425Y-10899790D01*
X7520474Y-11036709D01*
X7520478Y-11036714D01*
X7520479Y-11036716D01*
X7632283Y-11148520D01*
X7632285Y-11148521D01*
X7632289Y-11148524D01*
X7733321Y-11206854D01*
X7769215Y-11227577D01*
X7921942Y-11268500D01*
X8019100Y-11268500D01*
X8086139Y-11288185D01*
X8106781Y-11304819D01*
X13815431Y-17013469D01*
X13848916Y-17074792D01*
X13843932Y-17144484D01*
X13802060Y-17200417D01*
X13736596Y-17224834D01*
X13695657Y-17220925D01*
X13619120Y-17200417D01*
X13541057Y-17179500D01*
X13382943Y-17179500D01*
X13230216Y-17220423D01*
X13230209Y-17220426D01*
X13093290Y-17299475D01*
X13093282Y-17299481D01*
X12981481Y-17411282D01*
X12981475Y-17411290D01*
X12902426Y-17548209D01*
X12902423Y-17548216D01*
X12861500Y-17700943D01*
X12861500Y-17859056D01*
X12902423Y-18011783D01*
X12902426Y-18011790D01*
X12981475Y-18148709D01*
X12981481Y-18148717D01*
X13050181Y-18217417D01*
X13083666Y-18278740D01*
X13086500Y-18305098D01*
X13086500Y-32208566D01*
X13086500Y-32307437D01*
X13103560Y-32371104D01*
X13112090Y-32402939D01*
X13112091Y-32402940D01*
X13161526Y-32488564D01*
X13358438Y-32685474D01*
X13444064Y-32734910D01*
X13539565Y-32760499D01*
X15253481Y-32760499D01*
X15320520Y-32780184D01*
X15360868Y-32822499D01*
X15394477Y-32880712D01*
X15394479Y-32880715D01*
X15394480Y-32880716D01*
X15506284Y-32992520D01*
X15506286Y-32992521D01*
X15506290Y-32992524D01*
X15650254Y-33075641D01*
X15649634Y-33076713D01*
X15687580Y-33104005D01*
X15695452Y-33113046D01*
X15701525Y-33123564D01*
X15725388Y-33147426D01*
X15728193Y-33150648D01*
X15736881Y-33169552D01*
X15754450Y-33199982D01*
X15764038Y-33235763D01*
X15766637Y-33245463D01*
X15779091Y-33291942D01*
X15814377Y-33353057D01*
X15824108Y-33369911D01*
X15828526Y-33377563D01*
X15849356Y-33398393D01*
X15881450Y-33453981D01*
X15892952Y-33496909D01*
X15906088Y-33545933D01*
X15906091Y-33545940D01*
X15955526Y-33631563D01*
X15976356Y-33652393D01*
X15984372Y-33666277D01*
X15994555Y-33675534D01*
X16008449Y-33707978D01*
X16015830Y-33735522D01*
X16015830Y-33735525D01*
X16015831Y-33735525D01*
X16015831Y-33735526D01*
X16022390Y-33760004D01*
X16033090Y-33799939D01*
X16033091Y-33799940D01*
X16079614Y-33880520D01*
X16082526Y-33885563D01*
X16082528Y-33885566D01*
X16098179Y-33901216D01*
X16131666Y-33962538D01*
X16134500Y-33988899D01*
X16134500Y-34085435D01*
X16157992Y-34173110D01*
X16160091Y-34180942D01*
X16160092Y-34180943D01*
X16187401Y-34228242D01*
X16190788Y-34234108D01*
X16209526Y-34266563D01*
X16231894Y-34288931D01*
X16237504Y-34296583D01*
X16246289Y-34320874D01*
X16258666Y-34343541D01*
X16260434Y-34359987D01*
X16261266Y-34362287D01*
X16260868Y-34364028D01*
X16261500Y-34369899D01*
X16261500Y-34653902D01*
X16241815Y-34720941D01*
X16225181Y-34741583D01*
X16156481Y-34810282D01*
X16156475Y-34810290D01*
X16077426Y-34947209D01*
X16077423Y-34947216D01*
X16036500Y-35099943D01*
X16036500Y-35258057D01*
X16071823Y-35389882D01*
X16077423Y-35410783D01*
X16077426Y-35410790D01*
X16156475Y-35547709D01*
X16156479Y-35547714D01*
X16156480Y-35547716D01*
X16268284Y-35659520D01*
X16268286Y-35659521D01*
X16268290Y-35659524D01*
X16405209Y-35738573D01*
X16405216Y-35738577D01*
X16557943Y-35779500D01*
X16557945Y-35779500D01*
X16716055Y-35779500D01*
X16716057Y-35779500D01*
X16868784Y-35738577D01*
X17005716Y-35659520D01*
X17117520Y-35547716D01*
X17196577Y-35410784D01*
X17237500Y-35258057D01*
X17237500Y-35099943D01*
X17196577Y-34947216D01*
X17180788Y-34919868D01*
X17117524Y-34810290D01*
X17117518Y-34810282D01*
X17048819Y-34741583D01*
X17037855Y-34721504D01*
X27680000Y-34721504D01*
X27680000Y-35120000D01*
X28380000Y-35120000D01*
X28380000Y-35620000D01*
X27680000Y-35620000D01*
X27680000Y-36018495D01*
X27718427Y-36211681D01*
X27718430Y-36211693D01*
X27793807Y-36393671D01*
X27793814Y-36393684D01*
X27903248Y-36557462D01*
X27903251Y-36557466D01*
X28042533Y-36696748D01*
X28042537Y-36696751D01*
X28206315Y-36806185D01*
X28206328Y-36806192D01*
X28388308Y-36881569D01*
X28430000Y-36889862D01*
X28430000Y-36086988D01*
X28439940Y-36104205D01*
X28495795Y-36160060D01*
X28564204Y-36199556D01*
X28640504Y-36220000D01*
X28719496Y-36220000D01*
X28795796Y-36199556D01*
X28864205Y-36160060D01*
X28920060Y-36104205D01*
X28930000Y-36086988D01*
X28930000Y-36889862D01*
X28971690Y-36881569D01*
X28971692Y-36881569D01*
X29153671Y-36806192D01*
X29153684Y-36806185D01*
X29317462Y-36696751D01*
X29317466Y-36696748D01*
X29456748Y-36557466D01*
X29456751Y-36557462D01*
X29569574Y-36388613D01*
X29571007Y-36389570D01*
X29614198Y-36345580D01*
X29682332Y-36330103D01*
X29748018Y-36353919D01*
X29750089Y-36355697D01*
X29750189Y-36355568D01*
X29756630Y-36360510D01*
X29756635Y-36360515D01*
X29887865Y-36436281D01*
X30034234Y-36475500D01*
X30034236Y-36475500D01*
X30185764Y-36475500D01*
X30185766Y-36475500D01*
X30332135Y-36436281D01*
X30463365Y-36360515D01*
X30570515Y-36253365D01*
X30646281Y-36122135D01*
X30685500Y-35975766D01*
X30685500Y-35824234D01*
X30646281Y-35677865D01*
X30570515Y-35546635D01*
X30463365Y-35439485D01*
X30388499Y-35396261D01*
X30332136Y-35363719D01*
X30258950Y-35344109D01*
X30185766Y-35324500D01*
X30034234Y-35324500D01*
X29887863Y-35363719D01*
X29756635Y-35439485D01*
X29756632Y-35439487D01*
X29649486Y-35546633D01*
X29649482Y-35546638D01*
X29642923Y-35558000D01*
X29592356Y-35606216D01*
X29535536Y-35620000D01*
X28980000Y-35620000D01*
X28980000Y-35120000D01*
X29680000Y-35120000D01*
X29680000Y-34721508D01*
X29679999Y-34721504D01*
X29641572Y-34528318D01*
X29641569Y-34528306D01*
X29566192Y-34346328D01*
X29566185Y-34346315D01*
X29456751Y-34182537D01*
X29456748Y-34182533D01*
X29317466Y-34043251D01*
X29317462Y-34043248D01*
X29153684Y-33933814D01*
X29153671Y-33933807D01*
X28971691Y-33858429D01*
X28971683Y-33858427D01*
X28930000Y-33850135D01*
X28930000Y-34653011D01*
X28920060Y-34635795D01*
X28864205Y-34579940D01*
X28795796Y-34540444D01*
X28719496Y-34520000D01*
X28640504Y-34520000D01*
X28564204Y-34540444D01*
X28495795Y-34579940D01*
X28439940Y-34635795D01*
X28430000Y-34653011D01*
X28430000Y-33850136D01*
X28429999Y-33850135D01*
X28388316Y-33858427D01*
X28388308Y-33858429D01*
X28206328Y-33933807D01*
X28206315Y-33933814D01*
X28042537Y-34043248D01*
X28042533Y-34043251D01*
X27903251Y-34182533D01*
X27903248Y-34182537D01*
X27793814Y-34346315D01*
X27793807Y-34346328D01*
X27718430Y-34528306D01*
X27718427Y-34528318D01*
X27680000Y-34721504D01*
X17037855Y-34721504D01*
X17015334Y-34680260D01*
X17012500Y-34653902D01*
X17012500Y-34113567D01*
X17012500Y-34113565D01*
X16986910Y-34018062D01*
X16937475Y-33932438D01*
X16921819Y-33916782D01*
X16909357Y-33893960D01*
X16893627Y-33873253D01*
X16891377Y-33861033D01*
X16888334Y-33855459D01*
X16885881Y-33838819D01*
X16885500Y-33833972D01*
X16885500Y-33732565D01*
X16877169Y-33701475D01*
X16869523Y-33672937D01*
X16859910Y-33637062D01*
X16810475Y-33551438D01*
X16789643Y-33530606D01*
X16781626Y-33516721D01*
X16771443Y-33507464D01*
X16757550Y-33475020D01*
X16750169Y-33447475D01*
X16750168Y-33447473D01*
X16745362Y-33429537D01*
X16732910Y-33383063D01*
X16732910Y-33383062D01*
X16683475Y-33297438D01*
X16662643Y-33276606D01*
X16654626Y-33262721D01*
X16644443Y-33253464D01*
X16630550Y-33221020D01*
X16623169Y-33193475D01*
X16623168Y-33193472D01*
X16610135Y-33144829D01*
X16605910Y-33129064D01*
X16605910Y-33129063D01*
X16605910Y-33129062D01*
X16556475Y-33043438D01*
X16535644Y-33022607D01*
X16530098Y-33014060D01*
X16524709Y-33010099D01*
X16515927Y-32992219D01*
X16507525Y-32979270D01*
X16504500Y-32971370D01*
X16504500Y-32970565D01*
X16504500Y-32970564D01*
X16504500Y-32970563D01*
X16478910Y-32875062D01*
X16445379Y-32816984D01*
X16441872Y-32807826D01*
X16439829Y-32782386D01*
X16433812Y-32757582D01*
X16436470Y-32740537D01*
X16436281Y-32738181D01*
X16437066Y-32736711D01*
X16437894Y-32731401D01*
X16475500Y-32591057D01*
X16475500Y-32432943D01*
X16434577Y-32280216D01*
X16379316Y-32184500D01*
X16362843Y-32116599D01*
X16385696Y-32050572D01*
X16440617Y-32007382D01*
X16486703Y-31998500D01*
X18208101Y-31998500D01*
X18275140Y-32018185D01*
X18295782Y-32034819D01*
X20527525Y-34266562D01*
X20597438Y-34336475D01*
X20683059Y-34385908D01*
X20683062Y-34385910D01*
X20730811Y-34398705D01*
X20730812Y-34398705D01*
X20740903Y-34401408D01*
X20778564Y-34411500D01*
X20778565Y-34411500D01*
X20778566Y-34411500D01*
X22147435Y-34411500D01*
X22147436Y-34411500D01*
X22195186Y-34398705D01*
X22242938Y-34385910D01*
X22328562Y-34336475D01*
X22398475Y-34266562D01*
X22398474Y-34266562D01*
X22457034Y-34208002D01*
X22754220Y-33910817D01*
X22815543Y-33877334D01*
X22841900Y-33874500D01*
X22939055Y-33874500D01*
X22939057Y-33874500D01*
X23091784Y-33833577D01*
X23228716Y-33754520D01*
X23340520Y-33642716D01*
X23419577Y-33505784D01*
X23460500Y-33353057D01*
X23460500Y-33320943D01*
X29949500Y-33320943D01*
X29949500Y-33479057D01*
X29968895Y-33551438D01*
X29990423Y-33631783D01*
X29990424Y-33631786D01*
X30005474Y-33657853D01*
X30032368Y-33704436D01*
X30032887Y-33705334D01*
X30049500Y-33767334D01*
X30049500Y-34365892D01*
X30061720Y-34411499D01*
X30083608Y-34493187D01*
X30110892Y-34540444D01*
X30149500Y-34607314D01*
X30242686Y-34700500D01*
X30356814Y-34766392D01*
X30484108Y-34800500D01*
X30615892Y-34800500D01*
X34300500Y-34800500D01*
X34367539Y-34820185D01*
X34413294Y-34872989D01*
X34424500Y-34924500D01*
X34424500Y-36895891D01*
X34458608Y-37023187D01*
X34491554Y-37080250D01*
X34524500Y-37137314D01*
X34744686Y-37357500D01*
X34858814Y-37423392D01*
X34986107Y-37457500D01*
X34986108Y-37457500D01*
X35810407Y-37457500D01*
X35877446Y-37477185D01*
X35885895Y-37483125D01*
X35887681Y-37484495D01*
X35887686Y-37484500D01*
X36001814Y-37550392D01*
X36129107Y-37584500D01*
X36129108Y-37584500D01*
X38367666Y-37584500D01*
X38429665Y-37601112D01*
X38503216Y-37643577D01*
X38655943Y-37684500D01*
X38655945Y-37684500D01*
X38814055Y-37684500D01*
X38814057Y-37684500D01*
X38966784Y-37643577D01*
X39103716Y-37564520D01*
X39215520Y-37452716D01*
X39294577Y-37315784D01*
X39335500Y-37163057D01*
X39335500Y-37004943D01*
X39294577Y-36852216D01*
X39268001Y-36806185D01*
X39215524Y-36715290D01*
X39215518Y-36715282D01*
X39103717Y-36603481D01*
X39103709Y-36603475D01*
X38966790Y-36524426D01*
X38966786Y-36524424D01*
X38966784Y-36524423D01*
X38814057Y-36483500D01*
X38655943Y-36483500D01*
X38503216Y-36524423D01*
X38503213Y-36524424D01*
X38429666Y-36566887D01*
X38414177Y-36571037D01*
X38402601Y-36578477D01*
X38367666Y-36583500D01*
X38311342Y-36583500D01*
X38244303Y-36563815D01*
X38198548Y-36511011D01*
X38188604Y-36441853D01*
X38204719Y-36399803D01*
X38203316Y-36399053D01*
X38206192Y-36393671D01*
X38281569Y-36211693D01*
X38281572Y-36211681D01*
X38319999Y-36018495D01*
X38320000Y-36018492D01*
X38320000Y-35620000D01*
X37620000Y-35620000D01*
X37620000Y-35120000D01*
X38320000Y-35120000D01*
X38320000Y-34721508D01*
X38319999Y-34721504D01*
X38281572Y-34528318D01*
X38281569Y-34528306D01*
X38206192Y-34346328D01*
X38206185Y-34346315D01*
X38096751Y-34182537D01*
X38096748Y-34182533D01*
X37957466Y-34043251D01*
X37957462Y-34043248D01*
X37793684Y-33933814D01*
X37793671Y-33933807D01*
X37611691Y-33858429D01*
X37611683Y-33858427D01*
X37570000Y-33850135D01*
X37570000Y-34653011D01*
X37560060Y-34635795D01*
X37504205Y-34579940D01*
X37435796Y-34540444D01*
X37359496Y-34520000D01*
X37280504Y-34520000D01*
X37204204Y-34540444D01*
X37135795Y-34579940D01*
X37079940Y-34635795D01*
X37070000Y-34653011D01*
X37070000Y-33850136D01*
X37069999Y-33850135D01*
X37028316Y-33858427D01*
X37028308Y-33858429D01*
X36846328Y-33933807D01*
X36846315Y-33933814D01*
X36682537Y-34043248D01*
X36682533Y-34043251D01*
X36543251Y-34182533D01*
X36543248Y-34182537D01*
X36433814Y-34346315D01*
X36433807Y-34346328D01*
X36358430Y-34528306D01*
X36358427Y-34528318D01*
X36320000Y-34721504D01*
X36320000Y-35120000D01*
X37020000Y-35120000D01*
X37020000Y-35620000D01*
X36464464Y-35620000D01*
X36397425Y-35600315D01*
X36357077Y-35558000D01*
X36350517Y-35546638D01*
X36350513Y-35546633D01*
X36243367Y-35439487D01*
X36243365Y-35439485D01*
X36168499Y-35396261D01*
X36112136Y-35363719D01*
X36038950Y-35344109D01*
X35965766Y-35324500D01*
X35814234Y-35324500D01*
X35667865Y-35363719D01*
X35667864Y-35363719D01*
X35667862Y-35363720D01*
X35667861Y-35363720D01*
X35611500Y-35396261D01*
X35543600Y-35412734D01*
X35477573Y-35389882D01*
X35434383Y-35334960D01*
X35425500Y-35288874D01*
X35425500Y-34919868D01*
X35445185Y-34852829D01*
X35497989Y-34807074D01*
X35517395Y-34800097D01*
X35643186Y-34766392D01*
X35757314Y-34700500D01*
X35850500Y-34607314D01*
X35916392Y-34493186D01*
X35950500Y-34365892D01*
X35950500Y-33767334D01*
X35967113Y-33705334D01*
X36009577Y-33631784D01*
X36050500Y-33479057D01*
X36050500Y-33320943D01*
X36009577Y-33168216D01*
X35986972Y-33129062D01*
X35930524Y-33031290D01*
X35930518Y-33031282D01*
X35818717Y-32919481D01*
X35818709Y-32919475D01*
X35681790Y-32840426D01*
X35681786Y-32840424D01*
X35681784Y-32840423D01*
X35529057Y-32799500D01*
X35370943Y-32799500D01*
X35218216Y-32840423D01*
X35218209Y-32840426D01*
X35081290Y-32919475D01*
X35081282Y-32919481D01*
X34969481Y-33031282D01*
X34969475Y-33031290D01*
X34890426Y-33168209D01*
X34890423Y-33168216D01*
X34849500Y-33320943D01*
X34849500Y-33479057D01*
X34868894Y-33551438D01*
X34892527Y-33639635D01*
X34890190Y-33640260D01*
X34896342Y-33697528D01*
X34865061Y-33760004D01*
X34804969Y-33795651D01*
X34774314Y-33799500D01*
X31225686Y-33799500D01*
X31158647Y-33779815D01*
X31112892Y-33727011D01*
X31102948Y-33657853D01*
X31107912Y-33639752D01*
X31107473Y-33639635D01*
X31109636Y-33631562D01*
X31150500Y-33479057D01*
X31150500Y-33320943D01*
X31109577Y-33168216D01*
X31086972Y-33129062D01*
X31030524Y-33031290D01*
X31030518Y-33031282D01*
X30918717Y-32919481D01*
X30918709Y-32919475D01*
X30781790Y-32840426D01*
X30781786Y-32840424D01*
X30781784Y-32840423D01*
X30629057Y-32799500D01*
X30470943Y-32799500D01*
X30318216Y-32840423D01*
X30318209Y-32840426D01*
X30181290Y-32919475D01*
X30181282Y-32919481D01*
X30069481Y-33031282D01*
X30069475Y-33031290D01*
X29990426Y-33168209D01*
X29990423Y-33168216D01*
X29949500Y-33320943D01*
X23460500Y-33320943D01*
X23460500Y-33194943D01*
X23419577Y-33042216D01*
X23413269Y-33031290D01*
X23340524Y-32905290D01*
X23340518Y-32905282D01*
X23228717Y-32793481D01*
X23228709Y-32793475D01*
X23091790Y-32714426D01*
X23091786Y-32714424D01*
X23091784Y-32714423D01*
X22939057Y-32673500D01*
X22780943Y-32673500D01*
X22626340Y-32714925D01*
X22556490Y-32713262D01*
X22498628Y-32674099D01*
X22471124Y-32609870D01*
X22482711Y-32540968D01*
X22506562Y-32507473D01*
X23287474Y-31726563D01*
X23287475Y-31726562D01*
X23336910Y-31640938D01*
X23341747Y-31622884D01*
X23354964Y-31573563D01*
X23362499Y-31545438D01*
X23362500Y-31545436D01*
X23362500Y-31446564D01*
X23362500Y-30178899D01*
X23382185Y-30111860D01*
X23398819Y-30091218D01*
X23569094Y-29920943D01*
X31849500Y-29920943D01*
X31849500Y-30079056D01*
X31890423Y-30231783D01*
X31890426Y-30231790D01*
X31969475Y-30368709D01*
X31969479Y-30368714D01*
X31969480Y-30368716D01*
X32081284Y-30480520D01*
X32081286Y-30480521D01*
X32081290Y-30480524D01*
X32218209Y-30559573D01*
X32218216Y-30559577D01*
X32370943Y-30600500D01*
X32370945Y-30600500D01*
X32496700Y-30600500D01*
X32563739Y-30620185D01*
X32609494Y-30672989D01*
X32616475Y-30692407D01*
X32640423Y-30781783D01*
X32640426Y-30781790D01*
X32719475Y-30918709D01*
X32719479Y-30918714D01*
X32719480Y-30918716D01*
X32831284Y-31030520D01*
X32831286Y-31030521D01*
X32831290Y-31030524D01*
X32968209Y-31109574D01*
X32968213Y-31109575D01*
X32968216Y-31109577D01*
X33005184Y-31119482D01*
X33064843Y-31155845D01*
X33085216Y-31186305D01*
X33120155Y-31260293D01*
X33483625Y-32029997D01*
X33494451Y-32099023D01*
X33491273Y-32115038D01*
X33449500Y-32270941D01*
X33449500Y-32270943D01*
X33449500Y-32429057D01*
X33479487Y-32540968D01*
X33490423Y-32581783D01*
X33490426Y-32581790D01*
X33569475Y-32718709D01*
X33569479Y-32718714D01*
X33569480Y-32718716D01*
X33681284Y-32830520D01*
X33681286Y-32830521D01*
X33681290Y-32830524D01*
X33810777Y-32905282D01*
X33818216Y-32909577D01*
X33970943Y-32950500D01*
X33970945Y-32950500D01*
X34129055Y-32950500D01*
X34129057Y-32950500D01*
X34281784Y-32909577D01*
X34418716Y-32830520D01*
X34530520Y-32718716D01*
X34609577Y-32581784D01*
X34650500Y-32429057D01*
X34650500Y-32270943D01*
X34609577Y-32118216D01*
X34570523Y-32050572D01*
X34530524Y-31981290D01*
X34530518Y-31981282D01*
X34418717Y-31869481D01*
X34418709Y-31869475D01*
X34281790Y-31790426D01*
X34281786Y-31790424D01*
X34281784Y-31790423D01*
X34281782Y-31790422D01*
X34281779Y-31790421D01*
X34244813Y-31780516D01*
X34185153Y-31744151D01*
X34164783Y-31713694D01*
X33766372Y-30870000D01*
X33755547Y-30800976D01*
X33758725Y-30784959D01*
X33759574Y-30781788D01*
X33759577Y-30781784D01*
X33800500Y-30629057D01*
X33800500Y-30470943D01*
X33759577Y-30318216D01*
X33759573Y-30318209D01*
X33680524Y-30181290D01*
X33680518Y-30181282D01*
X33568717Y-30069481D01*
X33568709Y-30069475D01*
X33431790Y-29990426D01*
X33431785Y-29990423D01*
X33382998Y-29977351D01*
X33292134Y-29953004D01*
X33232476Y-29916640D01*
X33201947Y-29853793D01*
X33210242Y-29784417D01*
X33236635Y-29745462D01*
X34798551Y-28186728D01*
X34859909Y-28153307D01*
X34886143Y-28150500D01*
X34984055Y-28150500D01*
X34984057Y-28150500D01*
X35136784Y-28109577D01*
X35273716Y-28030520D01*
X35385520Y-27918716D01*
X35464577Y-27781784D01*
X35492239Y-27678549D01*
X50964500Y-27678549D01*
X50964500Y-27901450D01*
X50964501Y-27901466D01*
X50993594Y-28122452D01*
X50993595Y-28122457D01*
X50993596Y-28122463D01*
X51001861Y-28153307D01*
X51051290Y-28337780D01*
X51051293Y-28337790D01*
X51136593Y-28543722D01*
X51136595Y-28543726D01*
X51248052Y-28736774D01*
X51248057Y-28736780D01*
X51248058Y-28736782D01*
X51383751Y-28913622D01*
X51383757Y-28913629D01*
X51541370Y-29071242D01*
X51541376Y-29071247D01*
X51718226Y-29206948D01*
X51911274Y-29318405D01*
X52117219Y-29403710D01*
X52332537Y-29461404D01*
X52553543Y-29490500D01*
X52553550Y-29490500D01*
X52776450Y-29490500D01*
X52776457Y-29490500D01*
X52997463Y-29461404D01*
X53212781Y-29403710D01*
X53418726Y-29318405D01*
X53611774Y-29206948D01*
X53788624Y-29071247D01*
X53946247Y-28913624D01*
X54081948Y-28736774D01*
X54193405Y-28543726D01*
X54278710Y-28337781D01*
X54336404Y-28122463D01*
X54365500Y-27901457D01*
X54365500Y-27678543D01*
X54336404Y-27457537D01*
X54278710Y-27242219D01*
X54193405Y-27036274D01*
X54081948Y-26843226D01*
X54009689Y-26749056D01*
X53946248Y-26666377D01*
X53946242Y-26666370D01*
X53788629Y-26508757D01*
X53788622Y-26508751D01*
X53611782Y-26373058D01*
X53611780Y-26373057D01*
X53611774Y-26373052D01*
X53418726Y-26261595D01*
X53418722Y-26261593D01*
X53212790Y-26176293D01*
X53212783Y-26176291D01*
X53212781Y-26176290D01*
X52997463Y-26118596D01*
X52997457Y-26118595D01*
X52997452Y-26118594D01*
X52776466Y-26089501D01*
X52776463Y-26089500D01*
X52776457Y-26089500D01*
X52553543Y-26089500D01*
X52553537Y-26089500D01*
X52553533Y-26089501D01*
X52332547Y-26118594D01*
X52332540Y-26118595D01*
X52332537Y-26118596D01*
X52117219Y-26176290D01*
X52117209Y-26176293D01*
X51911277Y-26261593D01*
X51911273Y-26261595D01*
X51718226Y-26373052D01*
X51718217Y-26373058D01*
X51541377Y-26508751D01*
X51541370Y-26508757D01*
X51383757Y-26666370D01*
X51383751Y-26666377D01*
X51248058Y-26843217D01*
X51248052Y-26843226D01*
X51136595Y-27036273D01*
X51136593Y-27036277D01*
X51051293Y-27242209D01*
X51051290Y-27242219D01*
X50993597Y-27457534D01*
X50993594Y-27457547D01*
X50964501Y-27678533D01*
X50964500Y-27678549D01*
X35492239Y-27678549D01*
X35505500Y-27629057D01*
X35505500Y-27470943D01*
X35464577Y-27318216D01*
X35438665Y-27273334D01*
X35385524Y-27181290D01*
X35385518Y-27181282D01*
X35273717Y-27069481D01*
X35273709Y-27069475D01*
X35136790Y-26990426D01*
X35136786Y-26990424D01*
X35136784Y-26990423D01*
X34984057Y-26949500D01*
X34825943Y-26949500D01*
X34673216Y-26990423D01*
X34673209Y-26990426D01*
X34536290Y-27069475D01*
X34536282Y-27069481D01*
X34424481Y-27181282D01*
X34424475Y-27181290D01*
X34345426Y-27318209D01*
X34345423Y-27318216D01*
X34304500Y-27470943D01*
X34304500Y-27567342D01*
X34284815Y-27634381D01*
X34268092Y-27655113D01*
X32992089Y-28928518D01*
X32601406Y-29318406D01*
X32556449Y-29363271D01*
X32495092Y-29396693D01*
X32468857Y-29399500D01*
X32370943Y-29399500D01*
X32218216Y-29440423D01*
X32218209Y-29440426D01*
X32081290Y-29519475D01*
X32081282Y-29519481D01*
X31969481Y-29631282D01*
X31969475Y-29631290D01*
X31890426Y-29768209D01*
X31890423Y-29768216D01*
X31849500Y-29920943D01*
X23569094Y-29920943D01*
X26183218Y-27306819D01*
X26244541Y-27273334D01*
X26270899Y-27270500D01*
X26368055Y-27270500D01*
X26368057Y-27270500D01*
X26520784Y-27229577D01*
X26657716Y-27150520D01*
X26769520Y-27038716D01*
X26848577Y-26901784D01*
X26889500Y-26749057D01*
X26889500Y-26590943D01*
X26848577Y-26438216D01*
X26848573Y-26438209D01*
X26769524Y-26301290D01*
X26769518Y-26301282D01*
X26657717Y-26189481D01*
X26657709Y-26189475D01*
X26520790Y-26110426D01*
X26520786Y-26110424D01*
X26520784Y-26110423D01*
X26368057Y-26069500D01*
X26209943Y-26069500D01*
X26057216Y-26110423D01*
X26057209Y-26110426D01*
X25920290Y-26189475D01*
X25920282Y-26189481D01*
X25808481Y-26301282D01*
X25808475Y-26301290D01*
X25729426Y-26438209D01*
X25729423Y-26438216D01*
X25688500Y-26590943D01*
X25688500Y-26688101D01*
X25668815Y-26755140D01*
X25652181Y-26775782D01*
X22686527Y-29741435D01*
X22686525Y-29741437D01*
X22686525Y-29741438D01*
X22671069Y-29768209D01*
X22637091Y-29827060D01*
X22637090Y-29827064D01*
X22611942Y-29920917D01*
X22611934Y-29920945D01*
X22611500Y-29922560D01*
X22611500Y-31289101D01*
X22591815Y-31356140D01*
X22575181Y-31376782D01*
X21360872Y-32591090D01*
X21360857Y-32591105D01*
X21359438Y-32592525D01*
X21289525Y-32662438D01*
X21282311Y-32674930D01*
X21272548Y-32685351D01*
X21254245Y-32696131D01*
X21238871Y-32710787D01*
X21231958Y-32713993D01*
X21094287Y-32793477D01*
X21094282Y-32793481D01*
X20982481Y-32905282D01*
X20982475Y-32905290D01*
X20903426Y-33042209D01*
X20903423Y-33042216D01*
X20862500Y-33194943D01*
X20862500Y-33240101D01*
X20842815Y-33307140D01*
X20790011Y-33352895D01*
X20720853Y-33362839D01*
X20657297Y-33333814D01*
X20650819Y-33327782D01*
X18645563Y-31322526D01*
X18645562Y-31322525D01*
X18559938Y-31273090D01*
X18512186Y-31260295D01*
X18512184Y-31260294D01*
X18512182Y-31260293D01*
X18464436Y-31247500D01*
X18464435Y-31247500D01*
X14749098Y-31247500D01*
X14682059Y-31227815D01*
X14661417Y-31211181D01*
X14592717Y-31142481D01*
X14592709Y-31142475D01*
X14455790Y-31063426D01*
X14455786Y-31063424D01*
X14455784Y-31063423D01*
X14303057Y-31022500D01*
X14144943Y-31022500D01*
X13993593Y-31063054D01*
X13923743Y-31061391D01*
X13865881Y-31022228D01*
X13838377Y-30958000D01*
X13837500Y-30943279D01*
X13837500Y-18305098D01*
X13857185Y-18238059D01*
X13873819Y-18217417D01*
X13942520Y-18148716D01*
X14021577Y-18011784D01*
X14062500Y-17859057D01*
X14062500Y-17700943D01*
X14021577Y-17548216D01*
X14021574Y-17548212D01*
X14021074Y-17546343D01*
X14022737Y-17476493D01*
X14061899Y-17418630D01*
X14126128Y-17391126D01*
X14195030Y-17402712D01*
X14228530Y-17426568D01*
X19200437Y-22398475D01*
X19286063Y-22447911D01*
X19381564Y-22473500D01*
X19381565Y-22473500D01*
X23288101Y-22473500D01*
X23355140Y-22493185D01*
X23375782Y-22509819D01*
X29208181Y-28342218D01*
X29241666Y-28403541D01*
X29244500Y-28429899D01*
X29244500Y-28527057D01*
X29263442Y-28597747D01*
X29285423Y-28679783D01*
X29285426Y-28679790D01*
X29364475Y-28816709D01*
X29364479Y-28816714D01*
X29364480Y-28816716D01*
X29476284Y-28928520D01*
X29476286Y-28928521D01*
X29476290Y-28928524D01*
X29613209Y-29007573D01*
X29613216Y-29007577D01*
X29765943Y-29048500D01*
X29765945Y-29048500D01*
X29924055Y-29048500D01*
X29924057Y-29048500D01*
X30076784Y-29007577D01*
X30213716Y-28928520D01*
X30325520Y-28816716D01*
X30372612Y-28735148D01*
X30423179Y-28686933D01*
X30491786Y-28673709D01*
X30556651Y-28699677D01*
X30587387Y-28735147D01*
X30634480Y-28816716D01*
X30746284Y-28928520D01*
X30746286Y-28928521D01*
X30746290Y-28928524D01*
X30883209Y-29007573D01*
X30883216Y-29007577D01*
X31035943Y-29048500D01*
X31035945Y-29048500D01*
X31194055Y-29048500D01*
X31194057Y-29048500D01*
X31346784Y-29007577D01*
X31483716Y-28928520D01*
X31595520Y-28816716D01*
X31674577Y-28679784D01*
X31715500Y-28527057D01*
X31715500Y-28368943D01*
X31674577Y-28216216D01*
X31636636Y-28150499D01*
X31595524Y-28079290D01*
X31595518Y-28079282D01*
X31483717Y-27967481D01*
X31483709Y-27967475D01*
X31346790Y-27888426D01*
X31346786Y-27888424D01*
X31346784Y-27888423D01*
X31194057Y-27847500D01*
X31194056Y-27847500D01*
X31100139Y-27847500D01*
X31033100Y-27827815D01*
X30987345Y-27775011D01*
X30980364Y-27755594D01*
X30959718Y-27678543D01*
X30956910Y-27668062D01*
X30907475Y-27582438D01*
X30837562Y-27512525D01*
X27817186Y-24492149D01*
X46899500Y-24492149D01*
X46899500Y-24747850D01*
X46923009Y-24926412D01*
X46932874Y-25001340D01*
X46999050Y-25248312D01*
X46999053Y-25248322D01*
X47096894Y-25484531D01*
X47096899Y-25484542D01*
X47224734Y-25705957D01*
X47224745Y-25705973D01*
X47380388Y-25908811D01*
X47380394Y-25908818D01*
X47561181Y-26089605D01*
X47561188Y-26089611D01*
X47674150Y-26176290D01*
X47764035Y-26245261D01*
X47764042Y-26245265D01*
X47985457Y-26373100D01*
X47985462Y-26373102D01*
X47985465Y-26373104D01*
X48221687Y-26470950D01*
X48468660Y-26537126D01*
X48722157Y-26570500D01*
X48722164Y-26570500D01*
X48977836Y-26570500D01*
X48977843Y-26570500D01*
X49231340Y-26537126D01*
X49478313Y-26470950D01*
X49714535Y-26373104D01*
X49935965Y-26245261D01*
X50138813Y-26089610D01*
X50319610Y-25908813D01*
X50475261Y-25705965D01*
X50603104Y-25484535D01*
X50700950Y-25248313D01*
X50767126Y-25001340D01*
X50800500Y-24747843D01*
X50800500Y-24516530D01*
X56059500Y-24516530D01*
X56059500Y-24723469D01*
X56099868Y-24926412D01*
X56099870Y-24926420D01*
X56179058Y-25117596D01*
X56294024Y-25289657D01*
X56440342Y-25435975D01*
X56440345Y-25435977D01*
X56612402Y-25550941D01*
X56803580Y-25630130D01*
X57006530Y-25670499D01*
X57006534Y-25670500D01*
X57006535Y-25670500D01*
X57213466Y-25670500D01*
X57213467Y-25670499D01*
X57416420Y-25630130D01*
X57607598Y-25550941D01*
X57779655Y-25435977D01*
X57925977Y-25289655D01*
X58040941Y-25117598D01*
X58120130Y-24926420D01*
X58160500Y-24723465D01*
X58160500Y-24516535D01*
X58120130Y-24313580D01*
X58040941Y-24122402D01*
X57925977Y-23950345D01*
X57925975Y-23950342D01*
X57779657Y-23804024D01*
X57693626Y-23746541D01*
X57607598Y-23689059D01*
X57416420Y-23609870D01*
X57416412Y-23609868D01*
X57213469Y-23569500D01*
X57213465Y-23569500D01*
X57006535Y-23569500D01*
X57006530Y-23569500D01*
X56803587Y-23609868D01*
X56803579Y-23609870D01*
X56612403Y-23689058D01*
X56440342Y-23804024D01*
X56294024Y-23950342D01*
X56179058Y-24122403D01*
X56099870Y-24313579D01*
X56099868Y-24313587D01*
X56059500Y-24516530D01*
X50800500Y-24516530D01*
X50800500Y-24492157D01*
X50767126Y-24238660D01*
X50700950Y-23991687D01*
X50603104Y-23755465D01*
X50603102Y-23755462D01*
X50603100Y-23755457D01*
X50475265Y-23534042D01*
X50475261Y-23534035D01*
X50319610Y-23331187D01*
X50319605Y-23331181D01*
X50138818Y-23150394D01*
X50138811Y-23150388D01*
X49935973Y-22994745D01*
X49935971Y-22994743D01*
X49935965Y-22994739D01*
X49935960Y-22994736D01*
X49935957Y-22994734D01*
X49714542Y-22866899D01*
X49714531Y-22866894D01*
X49478322Y-22769053D01*
X49478315Y-22769051D01*
X49478316Y-22769051D01*
X49478313Y-22769050D01*
X49240635Y-22705364D01*
X49180976Y-22669000D01*
X49150447Y-22606153D01*
X49158742Y-22536777D01*
X49203227Y-22482899D01*
X49240629Y-22465818D01*
X49397781Y-22423710D01*
X49603726Y-22338405D01*
X49796774Y-22226948D01*
X49973624Y-22091247D01*
X50131247Y-21933624D01*
X50266948Y-21756774D01*
X50378405Y-21563726D01*
X50463710Y-21357781D01*
X50521404Y-21142463D01*
X50550500Y-20921457D01*
X50550500Y-20698549D01*
X50964500Y-20698549D01*
X50964500Y-20921450D01*
X50964501Y-20921466D01*
X50993594Y-21142452D01*
X50993595Y-21142457D01*
X50993596Y-21142463D01*
X51051290Y-21357780D01*
X51051293Y-21357790D01*
X51114680Y-21510819D01*
X51136595Y-21563726D01*
X51248052Y-21756774D01*
X51248057Y-21756780D01*
X51248058Y-21756782D01*
X51383751Y-21933622D01*
X51383757Y-21933629D01*
X51541370Y-22091242D01*
X51541376Y-22091247D01*
X51718226Y-22226948D01*
X51911274Y-22338405D01*
X52117219Y-22423710D01*
X52332537Y-22481404D01*
X52553543Y-22510500D01*
X52553550Y-22510500D01*
X52776450Y-22510500D01*
X52776457Y-22510500D01*
X52997463Y-22481404D01*
X53212781Y-22423710D01*
X53418726Y-22338405D01*
X53611774Y-22226948D01*
X53788624Y-22091247D01*
X53946247Y-21933624D01*
X54081948Y-21756774D01*
X54193405Y-21563726D01*
X54278710Y-21357781D01*
X54336404Y-21142463D01*
X54365500Y-20921457D01*
X54365500Y-20698543D01*
X54336404Y-20477537D01*
X54278710Y-20262219D01*
X54193405Y-20056274D01*
X54081948Y-19863226D01*
X53946247Y-19686376D01*
X53946242Y-19686370D01*
X53788629Y-19528757D01*
X53788622Y-19528751D01*
X53611782Y-19393058D01*
X53611780Y-19393057D01*
X53611774Y-19393052D01*
X53418726Y-19281595D01*
X53418722Y-19281593D01*
X53212790Y-19196293D01*
X53212783Y-19196291D01*
X53212781Y-19196290D01*
X52997463Y-19138596D01*
X52997457Y-19138595D01*
X52997452Y-19138594D01*
X52776466Y-19109501D01*
X52776463Y-19109500D01*
X52776457Y-19109500D01*
X52553543Y-19109500D01*
X52553537Y-19109500D01*
X52553533Y-19109501D01*
X52332547Y-19138594D01*
X52332540Y-19138595D01*
X52332537Y-19138596D01*
X52117219Y-19196290D01*
X52117209Y-19196293D01*
X51911277Y-19281593D01*
X51911273Y-19281595D01*
X51718226Y-19393052D01*
X51718217Y-19393058D01*
X51541377Y-19528751D01*
X51541370Y-19528757D01*
X51383757Y-19686370D01*
X51383751Y-19686377D01*
X51248058Y-19863217D01*
X51248052Y-19863226D01*
X51136595Y-20056273D01*
X51136593Y-20056277D01*
X51051293Y-20262209D01*
X51051290Y-20262219D01*
X50993597Y-20477534D01*
X50993594Y-20477547D01*
X50964501Y-20698533D01*
X50964500Y-20698549D01*
X50550500Y-20698549D01*
X50550500Y-20698543D01*
X50521404Y-20477537D01*
X50463710Y-20262219D01*
X50378405Y-20056274D01*
X50266948Y-19863226D01*
X50131247Y-19686376D01*
X50131242Y-19686370D01*
X49973629Y-19528757D01*
X49973622Y-19528751D01*
X49796782Y-19393058D01*
X49796780Y-19393057D01*
X49796774Y-19393052D01*
X49603726Y-19281595D01*
X49603722Y-19281593D01*
X49397790Y-19196293D01*
X49397783Y-19196291D01*
X49397781Y-19196290D01*
X49182463Y-19138596D01*
X49182457Y-19138595D01*
X49182452Y-19138594D01*
X48961466Y-19109501D01*
X48961463Y-19109500D01*
X48961457Y-19109500D01*
X48738543Y-19109500D01*
X48738537Y-19109500D01*
X48738533Y-19109501D01*
X48517547Y-19138594D01*
X48517540Y-19138595D01*
X48517537Y-19138596D01*
X48302219Y-19196290D01*
X48302209Y-19196293D01*
X48096277Y-19281593D01*
X48096273Y-19281595D01*
X47903226Y-19393052D01*
X47903217Y-19393058D01*
X47726377Y-19528751D01*
X47726370Y-19528757D01*
X47568757Y-19686370D01*
X47568751Y-19686377D01*
X47433058Y-19863217D01*
X47433052Y-19863226D01*
X47321595Y-20056273D01*
X47321593Y-20056277D01*
X47236293Y-20262209D01*
X47236290Y-20262219D01*
X47178597Y-20477534D01*
X47178594Y-20477547D01*
X47149501Y-20698533D01*
X47149500Y-20698549D01*
X47149500Y-20921450D01*
X47149501Y-20921466D01*
X47178594Y-21142452D01*
X47178595Y-21142457D01*
X47178596Y-21142463D01*
X47236290Y-21357780D01*
X47236293Y-21357790D01*
X47299680Y-21510819D01*
X47321595Y-21563726D01*
X47433052Y-21756774D01*
X47433057Y-21756780D01*
X47433058Y-21756782D01*
X47568751Y-21933622D01*
X47568757Y-21933629D01*
X47726370Y-22091242D01*
X47726376Y-22091247D01*
X47903226Y-22226948D01*
X48096274Y-22338405D01*
X48302219Y-22423710D01*
X48459365Y-22465817D01*
X48519023Y-22502180D01*
X48549552Y-22565026D01*
X48541258Y-22634402D01*
X48496773Y-22688280D01*
X48459362Y-22705365D01*
X48221687Y-22769050D01*
X48221685Y-22769050D01*
X48221684Y-22769051D01*
X48221677Y-22769053D01*
X47985468Y-22866894D01*
X47985457Y-22866899D01*
X47764042Y-22994734D01*
X47764026Y-22994745D01*
X47561188Y-23150388D01*
X47561181Y-23150394D01*
X47380394Y-23331181D01*
X47380388Y-23331188D01*
X47224745Y-23534026D01*
X47224734Y-23534042D01*
X47096899Y-23755457D01*
X47096894Y-23755468D01*
X46999053Y-23991677D01*
X46999050Y-23991687D01*
X46932874Y-24238661D01*
X46899500Y-24492149D01*
X27817186Y-24492149D01*
X24614563Y-21289526D01*
X24614562Y-21289525D01*
X24528938Y-21240090D01*
X24481186Y-21227295D01*
X24481184Y-21227294D01*
X24481182Y-21227293D01*
X24433436Y-21214500D01*
X24433435Y-21214500D01*
X21034900Y-21214500D01*
X20967861Y-21194815D01*
X20947219Y-21178181D01*
X16747162Y-16978124D01*
X16665568Y-16896530D01*
X61139500Y-16896530D01*
X61139500Y-17103469D01*
X61179868Y-17306412D01*
X61179870Y-17306420D01*
X61259058Y-17497596D01*
X61374024Y-17669657D01*
X61520342Y-17815975D01*
X61520345Y-17815977D01*
X61692402Y-17930941D01*
X61883580Y-18010130D01*
X62086530Y-18050499D01*
X62086534Y-18050500D01*
X62086535Y-18050500D01*
X62293466Y-18050500D01*
X62293467Y-18050499D01*
X62496420Y-18010130D01*
X62687598Y-17930941D01*
X62859655Y-17815977D01*
X63005977Y-17669655D01*
X63120941Y-17497598D01*
X63200130Y-17306420D01*
X63240500Y-17103465D01*
X63240500Y-16896535D01*
X63200130Y-16693580D01*
X63120941Y-16502402D01*
X63005977Y-16330345D01*
X63005975Y-16330342D01*
X62859657Y-16184024D01*
X62773626Y-16126541D01*
X62687598Y-16069059D01*
X62496420Y-15989870D01*
X62496412Y-15989868D01*
X62293469Y-15949500D01*
X62293465Y-15949500D01*
X62086535Y-15949500D01*
X62086530Y-15949500D01*
X61883587Y-15989868D01*
X61883579Y-15989870D01*
X61692403Y-16069058D01*
X61520342Y-16184024D01*
X61374024Y-16330342D01*
X61259058Y-16502403D01*
X61179870Y-16693579D01*
X61179868Y-16693587D01*
X61139500Y-16896530D01*
X16665568Y-16896530D01*
X10993760Y-11224723D01*
X10974054Y-11199041D01*
X10894524Y-11061290D01*
X10894518Y-11061282D01*
X10782717Y-10949481D01*
X10782709Y-10949475D01*
X10645790Y-10870426D01*
X10645786Y-10870424D01*
X10645784Y-10870423D01*
X10493057Y-10829500D01*
X10334943Y-10829500D01*
X10182216Y-10870423D01*
X10182209Y-10870426D01*
X10045290Y-10949475D01*
X10045282Y-10949481D01*
X9933481Y-11061282D01*
X9933475Y-11061290D01*
X9854426Y-11198209D01*
X9854423Y-11198216D01*
X9813500Y-11350943D01*
X9813500Y-11509056D01*
X9854925Y-11663658D01*
X9853262Y-11733508D01*
X9814099Y-11791370D01*
X9749871Y-11818874D01*
X9680968Y-11807287D01*
X9647469Y-11783432D01*
X8637818Y-10773780D01*
X8604333Y-10712457D01*
X8601499Y-10686099D01*
X8601499Y-10588945D01*
X8601499Y-10588943D01*
X8560576Y-10436216D01*
X8555939Y-10428185D01*
X8481523Y-10299290D01*
X8481517Y-10299282D01*
X8369716Y-10187481D01*
X8369708Y-10187475D01*
X8232789Y-10108426D01*
X8232785Y-10108424D01*
X8232783Y-10108423D01*
X8080056Y-10067500D01*
X7921942Y-10067500D01*
X7769215Y-10108423D01*
X7769208Y-10108426D01*
X7632289Y-10187475D01*
X7632281Y-10187481D01*
X7520480Y-10299282D01*
X7520474Y-10299290D01*
X7441425Y-10436209D01*
X7441422Y-10436216D01*
X7400499Y-10588943D01*
X500500Y-10588943D01*
X500500Y-9826943D01*
X14893500Y-9826943D01*
X14893500Y-9985057D01*
X14933505Y-10134356D01*
X14934423Y-10137783D01*
X14934426Y-10137790D01*
X15013475Y-10274709D01*
X15013479Y-10274714D01*
X15013480Y-10274716D01*
X15125284Y-10386520D01*
X15125286Y-10386521D01*
X15125290Y-10386524D01*
X15226731Y-10445090D01*
X15262216Y-10465577D01*
X15414943Y-10506500D01*
X15414945Y-10506500D01*
X15573055Y-10506500D01*
X15573057Y-10506500D01*
X15725784Y-10465577D01*
X15862716Y-10386520D01*
X15931417Y-10317819D01*
X15992740Y-10284334D01*
X16019098Y-10281500D01*
X32432101Y-10281500D01*
X32499140Y-10301185D01*
X32519782Y-10317819D01*
X32535438Y-10333475D01*
X32613874Y-10378760D01*
X32621062Y-10382910D01*
X32668811Y-10395705D01*
X32668812Y-10395705D01*
X32678903Y-10398408D01*
X32716564Y-10408500D01*
X32716565Y-10408500D01*
X32813101Y-10408500D01*
X32880140Y-10428185D01*
X32900782Y-10444819D01*
X32916438Y-10460475D01*
X32996154Y-10506499D01*
X33002062Y-10509910D01*
X33049810Y-10522705D01*
X33081870Y-10531294D01*
X33094016Y-10534549D01*
X33149606Y-10566643D01*
X33170438Y-10587475D01*
X33256062Y-10636910D01*
X33303810Y-10649705D01*
X33335870Y-10658294D01*
X33348016Y-10661549D01*
X33403606Y-10693643D01*
X33424438Y-10714475D01*
X33510062Y-10763910D01*
X33557810Y-10776705D01*
X33589870Y-10785294D01*
X33602016Y-10788549D01*
X33657606Y-10820643D01*
X33678438Y-10841475D01*
X33764062Y-10890910D01*
X33766781Y-10891638D01*
X33797177Y-10899784D01*
X33797178Y-10899784D01*
X33817351Y-10905189D01*
X33856018Y-10915550D01*
X33911606Y-10947643D01*
X33932438Y-10968475D01*
X34018062Y-11017910D01*
X34065811Y-11030705D01*
X34065812Y-11030705D01*
X34075903Y-11033408D01*
X34113564Y-11043500D01*
X34113565Y-11043500D01*
X34210101Y-11043500D01*
X34277140Y-11063185D01*
X34297782Y-11079819D01*
X34313438Y-11095475D01*
X34399062Y-11144910D01*
X34446810Y-11157705D01*
X34478870Y-11166294D01*
X34491016Y-11169549D01*
X34546606Y-11201643D01*
X34567438Y-11222475D01*
X34647154Y-11268499D01*
X34653062Y-11271910D01*
X34700810Y-11284705D01*
X34732870Y-11293294D01*
X34745016Y-11296549D01*
X34800606Y-11328643D01*
X34821438Y-11349475D01*
X34903754Y-11397000D01*
X34907062Y-11398910D01*
X34954810Y-11411705D01*
X34986870Y-11420294D01*
X34999016Y-11423549D01*
X35054606Y-11455643D01*
X35075438Y-11476475D01*
X35131872Y-11509057D01*
X35161062Y-11525910D01*
X35208810Y-11538705D01*
X35240870Y-11547294D01*
X35253016Y-11550549D01*
X35308606Y-11582643D01*
X35329438Y-11603475D01*
X35415062Y-11652910D01*
X35415066Y-11652911D01*
X35448178Y-11661784D01*
X35448179Y-11661784D01*
X35461362Y-11665316D01*
X35510564Y-11678500D01*
X35510565Y-11678500D01*
X35607101Y-11678500D01*
X35674140Y-11698185D01*
X35694782Y-11714819D01*
X35710438Y-11730475D01*
X35796062Y-11779910D01*
X35843810Y-11792705D01*
X35875870Y-11801294D01*
X35888016Y-11804549D01*
X35943606Y-11836643D01*
X35964438Y-11857475D01*
X36050062Y-11906910D01*
X36097810Y-11919705D01*
X36129870Y-11928294D01*
X36142016Y-11931549D01*
X36197606Y-11963643D01*
X36218438Y-11984475D01*
X36274872Y-12017057D01*
X36304062Y-12033910D01*
X36351810Y-12046705D01*
X36383870Y-12055294D01*
X36396017Y-12058549D01*
X36406962Y-12064375D01*
X36415708Y-12065654D01*
X36436303Y-12079990D01*
X36445353Y-12084807D01*
X36448578Y-12087615D01*
X36472438Y-12111475D01*
X36482950Y-12117544D01*
X36491993Y-12125418D01*
X36504611Y-12145156D01*
X36520779Y-12162112D01*
X36523994Y-12169042D01*
X36603477Y-12306712D01*
X36603479Y-12306715D01*
X36603480Y-12306716D01*
X36715284Y-12418520D01*
X36715286Y-12418521D01*
X36715290Y-12418524D01*
X36852209Y-12497573D01*
X36852216Y-12497577D01*
X37004943Y-12538500D01*
X37004945Y-12538500D01*
X37163055Y-12538500D01*
X37163057Y-12538500D01*
X37315784Y-12497577D01*
X37452716Y-12418520D01*
X37564520Y-12306716D01*
X37643577Y-12169784D01*
X37684500Y-12017057D01*
X37684500Y-11858943D01*
X37643577Y-11706216D01*
X37627575Y-11678499D01*
X37564524Y-11569290D01*
X37564518Y-11569282D01*
X37452717Y-11457481D01*
X37452709Y-11457475D01*
X37315790Y-11378426D01*
X37315786Y-11378424D01*
X37315784Y-11378423D01*
X37163057Y-11337500D01*
X37004943Y-11337500D01*
X36864608Y-11375102D01*
X36841391Y-11374549D01*
X36818518Y-11378534D01*
X36803704Y-11373651D01*
X36794758Y-11373439D01*
X36784373Y-11369600D01*
X36777233Y-11366592D01*
X36720938Y-11334090D01*
X36671850Y-11320937D01*
X36663640Y-11318737D01*
X36663633Y-11318734D01*
X36628978Y-11309448D01*
X36573392Y-11277355D01*
X36552563Y-11256526D01*
X36552562Y-11256525D01*
X36466938Y-11207090D01*
X36417850Y-11193937D01*
X36417848Y-11193936D01*
X36374977Y-11182448D01*
X36374959Y-11182437D01*
X36319392Y-11150355D01*
X36298564Y-11129527D01*
X36298563Y-11129526D01*
X36298562Y-11129525D01*
X36239580Y-11095472D01*
X36212937Y-11080089D01*
X36154766Y-11064502D01*
X36120978Y-11055448D01*
X36065392Y-11023355D01*
X36044563Y-11002526D01*
X36044562Y-11002525D01*
X35958940Y-10953091D01*
X35958939Y-10953090D01*
X35883095Y-10932767D01*
X35883091Y-10932766D01*
X35870015Y-10929263D01*
X35863436Y-10927500D01*
X35863435Y-10927500D01*
X35764146Y-10927500D01*
X35761413Y-10927379D01*
X35730844Y-10916913D01*
X35699860Y-10907815D01*
X35696601Y-10905189D01*
X35695310Y-10904747D01*
X35694000Y-10903093D01*
X35679218Y-10891181D01*
X35663563Y-10875526D01*
X35663562Y-10875525D01*
X35577938Y-10826090D01*
X35528850Y-10812937D01*
X35528848Y-10812936D01*
X35485977Y-10801448D01*
X35485959Y-10801437D01*
X35430392Y-10769355D01*
X35409563Y-10748526D01*
X35409562Y-10748525D01*
X35323938Y-10699090D01*
X35274850Y-10685937D01*
X35274847Y-10685935D01*
X35231978Y-10674448D01*
X35176392Y-10642355D01*
X35155563Y-10621526D01*
X35155562Y-10621525D01*
X35099128Y-10588943D01*
X41436500Y-10588943D01*
X41436500Y-10747057D01*
X41475046Y-10890911D01*
X41477423Y-10899783D01*
X41477426Y-10899790D01*
X41556475Y-11036709D01*
X41556479Y-11036714D01*
X41556480Y-11036716D01*
X41668284Y-11148520D01*
X41668286Y-11148521D01*
X41668290Y-11148524D01*
X41769322Y-11206854D01*
X41805216Y-11227577D01*
X41957943Y-11268500D01*
X41957945Y-11268500D01*
X42116055Y-11268500D01*
X42116057Y-11268500D01*
X42268784Y-11227577D01*
X42405716Y-11148520D01*
X42517520Y-11036716D01*
X42596577Y-10899784D01*
X42637500Y-10747057D01*
X42637500Y-10588943D01*
X42599897Y-10448606D01*
X42601560Y-10378760D01*
X42603872Y-10372171D01*
X42607376Y-10363020D01*
X42640910Y-10304938D01*
X42654047Y-10255910D01*
X42666500Y-10209436D01*
X42666500Y-10208627D01*
X42669525Y-10200728D01*
X42682299Y-10183970D01*
X42697644Y-10157392D01*
X42718474Y-10136563D01*
X42718475Y-10136562D01*
X42767910Y-10050938D01*
X42785169Y-9986526D01*
X42792551Y-9958975D01*
X42824643Y-9903393D01*
X42845474Y-9882563D01*
X42845475Y-9882562D01*
X42894910Y-9796938D01*
X42909694Y-9741763D01*
X42919551Y-9704976D01*
X42951643Y-9649393D01*
X42972474Y-9628563D01*
X42972475Y-9628562D01*
X43021910Y-9542938D01*
X43030008Y-9512716D01*
X43035048Y-9493909D01*
X43040911Y-9472025D01*
X43047500Y-9447436D01*
X43047500Y-9350899D01*
X43061358Y-9293936D01*
X43070202Y-9276834D01*
X43099474Y-9247563D01*
X43099475Y-9247562D01*
X43148910Y-9161938D01*
X43166169Y-9097526D01*
X43173551Y-9069975D01*
X43205643Y-9014393D01*
X43226474Y-8993563D01*
X43226475Y-8993562D01*
X43275910Y-8907938D01*
X43293169Y-8843526D01*
X43300551Y-8815975D01*
X43332643Y-8760393D01*
X43353474Y-8739563D01*
X43353475Y-8739562D01*
X43402910Y-8653938D01*
X43416047Y-8604910D01*
X43427552Y-8561971D01*
X43438544Y-8534551D01*
X43447072Y-8518964D01*
X43480474Y-8485563D01*
X43484892Y-8477911D01*
X43529910Y-8399938D01*
X43543047Y-8350909D01*
X43554552Y-8307972D01*
X43586642Y-8252393D01*
X43607475Y-8231561D01*
X43656910Y-8145937D01*
X43660243Y-8133500D01*
X43682500Y-8050433D01*
X43682500Y-7953899D01*
X43702185Y-7886860D01*
X43718819Y-7866218D01*
X43723898Y-7861139D01*
X43734474Y-7850563D01*
X43734475Y-7850562D01*
X43783910Y-7764938D01*
X43788075Y-7749393D01*
X43797048Y-7715909D01*
X43808550Y-7672980D01*
X43840644Y-7617392D01*
X43861474Y-7596563D01*
X43861475Y-7596562D01*
X43910910Y-7510938D01*
X43915075Y-7495393D01*
X43924048Y-7461909D01*
X43935550Y-7418980D01*
X43967644Y-7363392D01*
X43988474Y-7342563D01*
X43988475Y-7342562D01*
X44037910Y-7256938D01*
X44042075Y-7241393D01*
X44051048Y-7207909D01*
X44062550Y-7164980D01*
X44094644Y-7109392D01*
X44115474Y-7088563D01*
X44115475Y-7088562D01*
X44164910Y-7002938D01*
X44169075Y-6987393D01*
X44178048Y-6953909D01*
X44189550Y-6910980D01*
X44221644Y-6855392D01*
X44242474Y-6834563D01*
X44242475Y-6834562D01*
X44291910Y-6748938D01*
X44296075Y-6733393D01*
X44305048Y-6699909D01*
X44310913Y-6678019D01*
X44317500Y-6653436D01*
X44317500Y-6556899D01*
X44323818Y-6535380D01*
X44325523Y-6513022D01*
X44334434Y-6499225D01*
X44337185Y-6489860D01*
X44342582Y-6482124D01*
X44347750Y-6475286D01*
X44369474Y-6453563D01*
X44382775Y-6430525D01*
X44418910Y-6367938D01*
X44444500Y-6272435D01*
X44444500Y-4778899D01*
X44464185Y-4711860D01*
X44480819Y-4691218D01*
X44496474Y-4675563D01*
X44496475Y-4675562D01*
X44545910Y-4589938D01*
X44571500Y-4494435D01*
X44571500Y-4462098D01*
X44591185Y-4395059D01*
X44607819Y-4374417D01*
X44629816Y-4352420D01*
X44676520Y-4305716D01*
X44755577Y-4168784D01*
X44796500Y-4016057D01*
X44796500Y-3857943D01*
X44755577Y-3705216D01*
X44707122Y-3621288D01*
X44676524Y-3568290D01*
X44676518Y-3568282D01*
X44564717Y-3456481D01*
X44564709Y-3456475D01*
X44430016Y-3378711D01*
X60649500Y-3378711D01*
X60649500Y-3621288D01*
X60681161Y-3861785D01*
X60743947Y-4096104D01*
X60830772Y-4305717D01*
X60836776Y-4320212D01*
X60958064Y-4530289D01*
X60958066Y-4530292D01*
X60958067Y-4530293D01*
X61105733Y-4722736D01*
X61105739Y-4722743D01*
X61277256Y-4894260D01*
X61277262Y-4894265D01*
X61469711Y-5041936D01*
X61679788Y-5163224D01*
X61903900Y-5256054D01*
X62138211Y-5318838D01*
X62318586Y-5342584D01*
X62378711Y-5350500D01*
X62378712Y-5350500D01*
X62621289Y-5350500D01*
X62669388Y-5344167D01*
X62861789Y-5318838D01*
X63096100Y-5256054D01*
X63320212Y-5163224D01*
X63530289Y-5041936D01*
X63722738Y-4894265D01*
X63894265Y-4722738D01*
X64041936Y-4530289D01*
X64163224Y-4320212D01*
X64256054Y-4096100D01*
X64318838Y-3861789D01*
X64350500Y-3621288D01*
X64350500Y-3378712D01*
X64318838Y-3138211D01*
X64256054Y-2903900D01*
X64163224Y-2679788D01*
X64041936Y-2469711D01*
X63894265Y-2277262D01*
X63894260Y-2277256D01*
X63722743Y-2105739D01*
X63722736Y-2105733D01*
X63530293Y-1958067D01*
X63530292Y-1958066D01*
X63530289Y-1958064D01*
X63320212Y-1836776D01*
X63320205Y-1836773D01*
X63096104Y-1743947D01*
X62861785Y-1681161D01*
X62621289Y-1649500D01*
X62621288Y-1649500D01*
X62378712Y-1649500D01*
X62378711Y-1649500D01*
X62138214Y-1681161D01*
X61903895Y-1743947D01*
X61679794Y-1836773D01*
X61679785Y-1836777D01*
X61469706Y-1958067D01*
X61277263Y-2105733D01*
X61277256Y-2105739D01*
X61105739Y-2277256D01*
X61105733Y-2277263D01*
X60958067Y-2469706D01*
X60836777Y-2679785D01*
X60836773Y-2679794D01*
X60743947Y-2903895D01*
X60681161Y-3138214D01*
X60649500Y-3378711D01*
X44430016Y-3378711D01*
X44427790Y-3377426D01*
X44427786Y-3377424D01*
X44427784Y-3377423D01*
X44275057Y-3336500D01*
X44116943Y-3336500D01*
X43964216Y-3377423D01*
X43964209Y-3377426D01*
X43827290Y-3456475D01*
X43827282Y-3456481D01*
X43715481Y-3568282D01*
X43715475Y-3568290D01*
X43636426Y-3705209D01*
X43636423Y-3705216D01*
X43595500Y-3857943D01*
X43595500Y-4016057D01*
X43616949Y-4096104D01*
X43636423Y-4168783D01*
X43636423Y-4168784D01*
X43716519Y-4307516D01*
X43732991Y-4375416D01*
X43720272Y-4418753D01*
X43722201Y-4419552D01*
X43719090Y-4427060D01*
X43719090Y-4427062D01*
X43693500Y-4522565D01*
X43693500Y-4522567D01*
X43693500Y-6016101D01*
X43673815Y-6083140D01*
X43657181Y-6103782D01*
X43641526Y-6119436D01*
X43592091Y-6205059D01*
X43592091Y-6205060D01*
X43592090Y-6205062D01*
X43566500Y-6300565D01*
X43566500Y-6300567D01*
X43566500Y-6397101D01*
X43546815Y-6464140D01*
X43530181Y-6484782D01*
X43514526Y-6500436D01*
X43465091Y-6586059D01*
X43465090Y-6586060D01*
X43440450Y-6678019D01*
X43425511Y-6712147D01*
X43418127Y-6723835D01*
X43387525Y-6754438D01*
X43338090Y-6840062D01*
X43338090Y-6840063D01*
X43333214Y-6858258D01*
X43333213Y-6858261D01*
X43320832Y-6904473D01*
X43320830Y-6904479D01*
X43313448Y-6932024D01*
X43281358Y-6987605D01*
X43260525Y-7008438D01*
X43211090Y-7094062D01*
X43211090Y-7094063D01*
X43198638Y-7140537D01*
X43193832Y-7158473D01*
X43193830Y-7158479D01*
X43186448Y-7186024D01*
X43154358Y-7241605D01*
X43133525Y-7262438D01*
X43084090Y-7348062D01*
X43084090Y-7348063D01*
X43071638Y-7394537D01*
X43066832Y-7412473D01*
X43066830Y-7412479D01*
X43059448Y-7440024D01*
X43027358Y-7495605D01*
X43006525Y-7516438D01*
X42957090Y-7602062D01*
X42957090Y-7602063D01*
X42944638Y-7648537D01*
X42939832Y-7666473D01*
X42939831Y-7666476D01*
X42931500Y-7697564D01*
X42931500Y-7794100D01*
X42911815Y-7861139D01*
X42895181Y-7881781D01*
X42879525Y-7897436D01*
X42830088Y-7983065D01*
X42830087Y-7983066D01*
X42816953Y-8032086D01*
X42816953Y-8032090D01*
X42805450Y-8075019D01*
X42773358Y-8130605D01*
X42752525Y-8151438D01*
X42703091Y-8237059D01*
X42703090Y-8237060D01*
X42678450Y-8329019D01*
X42646358Y-8384605D01*
X42625526Y-8405437D01*
X42576089Y-8491064D01*
X42572338Y-8505064D01*
X42558832Y-8555472D01*
X42558830Y-8555479D01*
X42551448Y-8583024D01*
X42519358Y-8638605D01*
X42498525Y-8659438D01*
X42452265Y-8739563D01*
X42449089Y-8745064D01*
X42445338Y-8759064D01*
X42431832Y-8809472D01*
X42431830Y-8809479D01*
X42424448Y-8837024D01*
X42392358Y-8892605D01*
X42371525Y-8913438D01*
X42322090Y-8999062D01*
X42322090Y-8999063D01*
X42304831Y-9063475D01*
X42300665Y-9079020D01*
X42296500Y-9094564D01*
X42296500Y-9191101D01*
X42276815Y-9258140D01*
X42260181Y-9278782D01*
X42244527Y-9294435D01*
X42195090Y-9380060D01*
X42190283Y-9397999D01*
X42185477Y-9415937D01*
X42175274Y-9454018D01*
X42175273Y-9454022D01*
X42170448Y-9472025D01*
X42138358Y-9527605D01*
X42117526Y-9548437D01*
X42068090Y-9634060D01*
X42063982Y-9649391D01*
X42058477Y-9669937D01*
X42058476Y-9669938D01*
X42050830Y-9698477D01*
X42050829Y-9698479D01*
X42043449Y-9726020D01*
X42011358Y-9781605D01*
X41990525Y-9802438D01*
X41944265Y-9882563D01*
X41941089Y-9888064D01*
X41936865Y-9903829D01*
X41921275Y-9962014D01*
X41921274Y-9962018D01*
X41918224Y-9973399D01*
X41916448Y-9980026D01*
X41884358Y-10035604D01*
X41863524Y-10056437D01*
X41863444Y-10056578D01*
X41863343Y-10056673D01*
X41858581Y-10062881D01*
X41857611Y-10062137D01*
X41812871Y-10104787D01*
X41805958Y-10107993D01*
X41668287Y-10187477D01*
X41668282Y-10187481D01*
X41556481Y-10299282D01*
X41556475Y-10299290D01*
X41477426Y-10436209D01*
X41477423Y-10436216D01*
X41436500Y-10588943D01*
X35099128Y-10588943D01*
X35069938Y-10572090D01*
X35020850Y-10558937D01*
X35020848Y-10558936D01*
X34977977Y-10547448D01*
X34977959Y-10547437D01*
X34922392Y-10515355D01*
X34901563Y-10494526D01*
X34901562Y-10494525D01*
X34815938Y-10445090D01*
X34766850Y-10431937D01*
X34766848Y-10431936D01*
X34723977Y-10420448D01*
X34723959Y-10420437D01*
X34668392Y-10388355D01*
X34647564Y-10367527D01*
X34647563Y-10367526D01*
X34647562Y-10367525D01*
X34588580Y-10333472D01*
X34561937Y-10318089D01*
X34503768Y-10302502D01*
X34503768Y-10302503D01*
X34466436Y-10292500D01*
X34466435Y-10292500D01*
X34369899Y-10292500D01*
X34302860Y-10272815D01*
X34282218Y-10256181D01*
X34266563Y-10240526D01*
X34266562Y-10240525D01*
X34180940Y-10191091D01*
X34180939Y-10191090D01*
X34092015Y-10167263D01*
X34092015Y-10167262D01*
X34092013Y-10167262D01*
X34088979Y-10166449D01*
X34033393Y-10134356D01*
X34012563Y-10113526D01*
X34012562Y-10113525D01*
X33926938Y-10064090D01*
X33877850Y-10050937D01*
X33877848Y-10050936D01*
X33834977Y-10039448D01*
X33834959Y-10039437D01*
X33779392Y-10007355D01*
X33757218Y-9985181D01*
X33723733Y-9923858D01*
X33728717Y-9854166D01*
X33770589Y-9798233D01*
X33836053Y-9773816D01*
X33844899Y-9773500D01*
X34653902Y-9773500D01*
X34720941Y-9793185D01*
X34741583Y-9809819D01*
X34810284Y-9878520D01*
X34810286Y-9878521D01*
X34810290Y-9878524D01*
X34888812Y-9923858D01*
X34947216Y-9957577D01*
X35099943Y-9998500D01*
X35099945Y-9998500D01*
X35258055Y-9998500D01*
X35258057Y-9998500D01*
X35410784Y-9957577D01*
X35547716Y-9878520D01*
X35659520Y-9766716D01*
X35738577Y-9629784D01*
X35779500Y-9477057D01*
X35779500Y-9318943D01*
X35738577Y-9166216D01*
X35697209Y-9094564D01*
X35659524Y-9029290D01*
X35659518Y-9029282D01*
X35547717Y-8917481D01*
X35547709Y-8917475D01*
X35410790Y-8838426D01*
X35410786Y-8838424D01*
X35410784Y-8838423D01*
X35258057Y-8797500D01*
X35099943Y-8797500D01*
X34947216Y-8838423D01*
X34947209Y-8838426D01*
X34810290Y-8917475D01*
X34810282Y-8917481D01*
X34741583Y-8986181D01*
X34680260Y-9019666D01*
X34653902Y-9022500D01*
X33734899Y-9022500D01*
X33705458Y-9013855D01*
X33675472Y-9007332D01*
X33670456Y-9003577D01*
X33667860Y-9002815D01*
X33647218Y-8986181D01*
X33631563Y-8970526D01*
X33631559Y-8970523D01*
X33631433Y-8970450D01*
X33631344Y-8970357D01*
X33625117Y-8965579D01*
X33625862Y-8964607D01*
X33583218Y-8919883D01*
X33580004Y-8912954D01*
X33500524Y-8775290D01*
X33500518Y-8775282D01*
X33388717Y-8663481D01*
X33388709Y-8663475D01*
X33251790Y-8584426D01*
X33251786Y-8584424D01*
X33251784Y-8584423D01*
X33099057Y-8543500D01*
X32940943Y-8543500D01*
X32788216Y-8584423D01*
X32788209Y-8584426D01*
X32651290Y-8663475D01*
X32651282Y-8663481D01*
X32539481Y-8775282D01*
X32539475Y-8775290D01*
X32460426Y-8912209D01*
X32460423Y-8912216D01*
X32419500Y-9064943D01*
X32419500Y-9223057D01*
X32445193Y-9318943D01*
X32460054Y-9374407D01*
X32458391Y-9444257D01*
X32419228Y-9502119D01*
X32355000Y-9529623D01*
X32340279Y-9530500D01*
X16019098Y-9530500D01*
X15952059Y-9510815D01*
X15931417Y-9494181D01*
X15862717Y-9425481D01*
X15862709Y-9425475D01*
X15725790Y-9346426D01*
X15725786Y-9346424D01*
X15725784Y-9346423D01*
X15573057Y-9305500D01*
X15414943Y-9305500D01*
X15262216Y-9346423D01*
X15262209Y-9346426D01*
X15125290Y-9425475D01*
X15125282Y-9425481D01*
X15013481Y-9537282D01*
X15013475Y-9537290D01*
X14934426Y-9674209D01*
X14934423Y-9674216D01*
X14893500Y-9826943D01*
X500500Y-9826943D01*
X500500Y-3378711D01*
X1649500Y-3378711D01*
X1649500Y-3621288D01*
X1681161Y-3861785D01*
X1743947Y-4096104D01*
X1830772Y-4305717D01*
X1836776Y-4320212D01*
X1958064Y-4530289D01*
X1958066Y-4530292D01*
X1958067Y-4530293D01*
X2105733Y-4722736D01*
X2105739Y-4722743D01*
X2277256Y-4894260D01*
X2277262Y-4894265D01*
X2469711Y-5041936D01*
X2679788Y-5163224D01*
X2903900Y-5256054D01*
X3138211Y-5318838D01*
X3318586Y-5342584D01*
X3378711Y-5350500D01*
X3378712Y-5350500D01*
X3621289Y-5350500D01*
X3669388Y-5344167D01*
X3861789Y-5318838D01*
X4096100Y-5256054D01*
X4320212Y-5163224D01*
X4530289Y-5041936D01*
X4722738Y-4894265D01*
X4894265Y-4722738D01*
X5041936Y-4530289D01*
X5163224Y-4320212D01*
X5256054Y-4096100D01*
X5318838Y-3861789D01*
X5350500Y-3621288D01*
X5350500Y-3378712D01*
X5318838Y-3138211D01*
X5256054Y-2903900D01*
X5163224Y-2679788D01*
X5041936Y-2469711D01*
X4894265Y-2277262D01*
X4894260Y-2277256D01*
X4722743Y-2105739D01*
X4722736Y-2105733D01*
X4530293Y-1958067D01*
X4530292Y-1958066D01*
X4530289Y-1958064D01*
X4320212Y-1836776D01*
X4320205Y-1836773D01*
X4096104Y-1743947D01*
X3861785Y-1681161D01*
X3621289Y-1649500D01*
X3621288Y-1649500D01*
X3378712Y-1649500D01*
X3378711Y-1649500D01*
X3138214Y-1681161D01*
X2903895Y-1743947D01*
X2679794Y-1836773D01*
X2679785Y-1836777D01*
X2469706Y-1958067D01*
X2277263Y-2105733D01*
X2277256Y-2105739D01*
X2105739Y-2277256D01*
X2105733Y-2277263D01*
X1958067Y-2469706D01*
X1836777Y-2679785D01*
X1836773Y-2679794D01*
X1743947Y-2903895D01*
X1681161Y-3138214D01*
X1649500Y-3378711D01*
X500500Y-3378711D01*
X500500Y-624500D01*
X520185Y-557461D01*
X572989Y-511706D01*
X624500Y-500500D01*
X65375500Y-500500D01*
X65442539Y-520185D01*
G37*
%TD.AperFunction*%
%TD*%
M02*
