<svg xmlns="http://www.w3.org/2000/svg" viewBox="0 0 1900 1300" width="1900" height="1300">
  <rect x="0" y="0" width="1900" height="1300" fill="#ffffff"/>
  <g font-family="-apple-system, 'Segoe UI', Roboto, Helvetica, Arial, sans-serif">

    <text x="60" y="54" font-size="30" font-weight="700" fill="#1a1a1a">WakeLight controller &#8212; schematic</text>
    <text x="60" y="82" font-size="16" fill="#6b6b66">USB-C power &#183; AMS1117 3.3 V LDO &#183; CH340C USB-UART with auto-program &#183; ESP32-WROOM-32E &#183; THVD1410 RS-485 DMX out</text>

    <!-- ========================= signal wires ========================= -->
    <!-- USB data: J1 -> CH340C -->
    <path d="M310,660 L470,610" fill="none" stroke="#16a085" stroke-width="4" stroke-linecap="round"/>
    <path d="M310,710 L470,660" fill="none" stroke="#16a085" stroke-width="4" stroke-linecap="round"/>
    <!-- DMX data: ESP -> THVD -->
    <path d="M1180,560 L1230,560 L1230,635 L1280,635" fill="none" stroke="#2fa84f" stroke-width="4" stroke-linejoin="round"/>
    <!-- DMX enable: ESP -> THVD DE//RE bracket -->
    <path d="M1180,620 L1212,620 L1212,705 L1232,705" fill="none" stroke="#7b61ff" stroke-width="4" stroke-linejoin="round"/>
    <path d="M1232,685 L1232,725" fill="none" stroke="#7b61ff" stroke-width="4"/>
    <path d="M1232,685 L1280,685" fill="none" stroke="#7b61ff" stroke-width="4"/>
    <path d="M1232,725 L1280,725" fill="none" stroke="#7b61ff" stroke-width="4"/>
    <!-- A / B out: THVD -> XLR -->
    <path d="M1520,620 L1600,620" fill="none" stroke="#2f88e0" stroke-width="4" stroke-linecap="round"/>
    <path d="M1520,700 L1600,700" fill="none" stroke="#f0a020" stroke-width="4" stroke-linecap="round"/>
    <!-- GND on XLR pin 1 -->
    <path d="M1600,760 L1580,760 L1580,772" fill="none" stroke="#1a1a1a" stroke-width="4" stroke-linejoin="round"/>
    <g stroke="#1a1a1a" stroke-width="3"><path d="M1568,772 L1592,772"/><path d="M1572,777 L1588,777"/><path d="M1576,782 L1580,782"/></g>

    <!-- ============================ ICs ============================ -->
    <!-- USB-C -->
    <rect x="70" y="520" width="240" height="360" rx="18" fill="#f4f4f0" stroke="#e2e2dc" stroke-width="2"/>
    <text x="190" y="585" font-size="26" font-weight="700" fill="#1a1a1a" text-anchor="middle">USB-C</text>
    <text x="190" y="611" font-size="15" fill="#6b6b66" text-anchor="middle">J1 &#183; Type-C 16P</text>

    <!-- AMS1117 -->
    <rect x="70" y="170" width="240" height="150" rx="18" fill="#f4f4f0" stroke="#e2e2dc" stroke-width="2"/>
    <text x="190" y="232" font-size="24" font-weight="700" fill="#1a1a1a" text-anchor="middle">AMS1117-3.3</text>
    <text x="190" y="257" font-size="15" fill="#6b6b66" text-anchor="middle">U3 &#183; 3.3 V LDO</text>

    <!-- CH340C -->
    <rect x="470" y="520" width="250" height="320" rx="18" fill="#f4f4f0" stroke="#e2e2dc" stroke-width="2"/>
    <text x="595" y="582" font-size="26" font-weight="700" fill="#1a1a1a" text-anchor="middle">CH340C</text>
    <text x="595" y="608" font-size="15" fill="#6b6b66" text-anchor="middle">U2 &#183; USB &#8596; UART</text>

    <!-- ESP32 -->
    <rect x="860" y="360" width="320" height="620" rx="18" fill="#f4f4f0" stroke="#e2e2dc" stroke-width="2"/>
    <text x="1020" y="428" font-size="30" font-weight="700" fill="#1a1a1a" text-anchor="middle">ESP32</text>
    <text x="1020" y="456" font-size="15" fill="#6b6b66" text-anchor="middle">U1 &#183; WROOM-32E-N8</text>

    <!-- THVD1410 -->
    <rect x="1280" y="480" width="240" height="300" rx="18" fill="#f4f4f0" stroke="#e2e2dc" stroke-width="2"/>
    <text x="1400" y="542" font-size="24" font-weight="700" fill="#1a1a1a" text-anchor="middle">THVD1410</text>
    <text x="1400" y="567" font-size="15" fill="#6b6b66" text-anchor="middle">U4 &#183; RS-485 &#183; 3.3 V</text>

    <!-- DMX XLR -->
    <rect x="1600" y="540" width="250" height="320" rx="18" fill="#f4f4f0" stroke="#e2e2dc" stroke-width="2"/>
    <text x="1725" y="578" font-size="24" font-weight="700" fill="#1a1a1a" text-anchor="middle">DMX OUT</text>
    <text x="1725" y="600" font-size="14" fill="#6b6b66" text-anchor="middle">J2 &#183; 5-pin XLR &#183; female</text>

    <!-- ============================ pins ============================ -->
    <!-- J1 right-edge pins -->
    <g font-size="15" fill="#2b2b2b" text-anchor="end">
      <text x="298" y="585">VBUS</text>
      <text x="298" y="665">D+</text>
      <text x="298" y="715">D&#8722;</text>
      <text x="298" y="775">CC1</text>
      <text x="298" y="820">CC2</text>
      <text x="298" y="865">GND</text>
    </g>
    <circle cx="310" cy="580" r="6" fill="#e23b2e"/>
    <circle cx="310" cy="660" r="6" fill="#16a085"/>
    <circle cx="310" cy="710" r="6" fill="#16a085"/>
    <circle cx="310" cy="770" r="6" fill="#2b2b2b"/>
    <circle cx="310" cy="815" r="6" fill="#2b2b2b"/>
    <circle cx="310" cy="860" r="6" fill="#1a1a1a"/>
    <!-- VBUS -> +5V symbol -->
    <path d="M310,580 L360,580 L360,560" fill="none" stroke="#e23b2e" stroke-width="4" stroke-linejoin="round"/>
    <path d="M348,560 L372,560" stroke="#e23b2e" stroke-width="3"/>
    <text x="360" y="552" font-size="13" fill="#e23b2e" text-anchor="middle">+5V</text>
    <!-- GND symbol on J1 -->
    <path d="M310,860 L360,860 L360,872" fill="none" stroke="#1a1a1a" stroke-width="4" stroke-linejoin="round"/>
    <g stroke="#1a1a1a" stroke-width="3"><path d="M348,872 L372,872"/><path d="M352,877 L368,877"/><path d="M356,882 L360,882"/></g>
    <!-- R1 / R2 CC pulldowns -->
    <path d="M310,770 L350,770 L350,791" fill="none" stroke="#2b2b2b" stroke-width="3"/>
    <rect x="343" y="791" width="14" height="34" rx="2" fill="#fff" stroke="#555" stroke-width="2"/>
    <text x="363" y="812" font-size="13" fill="#2b2b2b">R1 5k1</text>
    <path d="M350,825 L350,840" stroke="#1a1a1a" stroke-width="3"/>
    <g stroke="#1a1a1a" stroke-width="3"><path d="M338,840 L362,840"/><path d="M342,845 L358,845"/><path d="M346,850 L354,850"/></g>
    <path d="M310,815 L410,815 L410,791" fill="none" stroke="#2b2b2b" stroke-width="3"/>
    <rect x="403" y="757" width="14" height="34" rx="2" fill="#fff" stroke="#555" stroke-width="2"/>
    <text x="423" y="778" font-size="13" fill="#2b2b2b">R2 5k1</text>
    <path d="M410,757 L410,742" stroke="#e2861f" stroke-width="0"/>
    <path d="M410,791 L410,757" fill="none" stroke="#2b2b2b" stroke-width="3"/>
    <path d="M410,757 L410,745" stroke="#1a1a1a" stroke-width="3"/>
    <g stroke="#1a1a1a" stroke-width="3"><path d="M398,745 L422,745"/><path d="M402,750 L418,750"/><path d="M406,755 L410,755"/></g>

    <!-- AMS1117 pins -->
    <circle cx="70" cy="240" r="6" fill="#e23b2e"/>
    <circle cx="310" cy="240" r="6" fill="#e2861f"/>
    <circle cx="190" cy="320" r="6" fill="#1a1a1a"/>
    <text x="86" y="234" font-size="14" fill="#2b2b2b">IN</text>
    <text x="294" y="234" font-size="14" fill="#2b2b2b" text-anchor="end">OUT</text>
    <!-- +5V into IN -->
    <path d="M70,240 L40,240 L40,222" fill="none" stroke="#e23b2e" stroke-width="4" stroke-linejoin="round"/>
    <path d="M28,222 L52,222" stroke="#e23b2e" stroke-width="3"/>
    <text x="40" y="214" font-size="13" fill="#e23b2e" text-anchor="middle">+5V</text>
    <!-- +3V3 out of OUT -->
    <path d="M310,240 L340,240 L340,222" fill="none" stroke="#e2861f" stroke-width="4" stroke-linejoin="round"/>
    <path d="M328,222 L352,222" stroke="#e2861f" stroke-width="3"/>
    <text x="340" y="214" font-size="13" fill="#e2861f" text-anchor="middle">+3V3</text>
    <!-- AMS GND -->
    <path d="M190,320 L190,334" stroke="#1a1a1a" stroke-width="4"/>
    <g stroke="#1a1a1a" stroke-width="3"><path d="M178,334 L202,334"/><path d="M182,339 L198,339"/><path d="M186,344 L190,344"/></g>
    <!-- C1 input cap (+5V/GND), polar -->
    <path d="M110,240 L110,388" fill="none" stroke="#2b2b2b" stroke-width="3"/>
    <path d="M99,392 L121,392" stroke="#555" stroke-width="3"/>
    <path d="M101,402 Q110,409 119,402" fill="none" stroke="#555" stroke-width="3"/>
    <text x="124" y="392" font-size="12" fill="#2b2b2b">+</text>
    <text x="126" y="406" font-size="13" fill="#2b2b2b">C1 10&#181;F</text>
    <path d="M110,240 L110,232" stroke="#e23b2e" stroke-width="0"/>
    <circle cx="110" cy="240" r="0"/>
    <path d="M85,240 L110,240" stroke="#e23b2e" stroke-width="3"/>
    <path d="M110,406 L110,418" stroke="#1a1a1a" stroke-width="3"/>
    <g stroke="#1a1a1a" stroke-width="3"><path d="M98,418 L122,418"/><path d="M102,423 L118,423"/><path d="M106,428 L110,428"/></g>
    <!-- C2 output cap (+3V3/GND), polar -->
    <path d="M270,240 L270,388" fill="none" stroke="#2b2b2b" stroke-width="3"/>
    <path d="M259,392 L281,392" stroke="#555" stroke-width="3"/>
    <path d="M261,402 Q270,409 279,402" fill="none" stroke="#555" stroke-width="3"/>
    <text x="284" y="392" font-size="12" fill="#2b2b2b">+</text>
    <text x="286" y="406" font-size="13" fill="#2b2b2b">C2 22&#181;F</text>
    <path d="M270,240 L295,240" stroke="#e2861f" stroke-width="3"/>
    <path d="M270,406 L270,418" stroke="#1a1a1a" stroke-width="3"/>
    <g stroke="#1a1a1a" stroke-width="3"><path d="M258,418 L282,418"/><path d="M262,423 L278,423"/><path d="M266,428 L270,428"/></g>

    <!-- CH340C pins -->
    <g font-size="15" fill="#2b2b2b">
      <text x="486" y="545">VCC</text>
      <text x="486" y="615">D+</text>
      <text x="486" y="665">D&#8722;</text>
      <text x="486" y="765">GND</text>
    </g>
    <circle cx="470" cy="540" r="6" fill="#e2861f"/>
    <circle cx="470" cy="610" r="6" fill="#16a085"/>
    <circle cx="470" cy="660" r="6" fill="#16a085"/>
    <circle cx="470" cy="760" r="6" fill="#1a1a1a"/>
    <path d="M470,540 L440,540 L440,522" fill="none" stroke="#e2861f" stroke-width="4" stroke-linejoin="round"/>
    <path d="M428,522 L452,522" stroke="#e2861f" stroke-width="3"/>
    <text x="440" y="514" font-size="13" fill="#e2861f" text-anchor="middle">+3V3</text>
    <path d="M470,760 L440,760 L440,772" fill="none" stroke="#1a1a1a" stroke-width="4" stroke-linejoin="round"/>
    <g stroke="#1a1a1a" stroke-width="3"><path d="M428,772 L452,772"/><path d="M432,777 L448,777"/><path d="M436,782 L440,782"/></g>
    <g font-size="15" fill="#2b2b2b" text-anchor="end">
      <text x="704" y="605">TXD</text>
      <text x="704" y="655">RXD</text>
      <text x="704" y="715">DTR</text>
      <text x="704" y="760">RTS</text>
    </g>
    <circle cx="720" cy="600" r="6" fill="#2fa84f"/>
    <circle cx="720" cy="650" r="6" fill="#2fa84f"/>
    <circle cx="720" cy="710" r="6" fill="#c07cd6"/>
    <circle cx="720" cy="755" r="6" fill="#c07cd6"/>
    <!-- UART + program net tags on CH340 right -->
    <g>
      <path d="M720,600 L746,600" stroke="#2fa84f" stroke-width="4"/>
      <rect x="746" y="588" width="74" height="24" rx="12" fill="#fff" stroke="#2fa84f" stroke-width="2"/>
      <text x="783" y="605" font-size="13" fill="#2b8a43" text-anchor="middle">U0_TX</text>
      <path d="M720,650 L746,650" stroke="#2fa84f" stroke-width="4"/>
      <rect x="746" y="638" width="74" height="24" rx="12" fill="#fff" stroke="#2fa84f" stroke-width="2"/>
      <text x="783" y="655" font-size="13" fill="#2b8a43" text-anchor="middle">U0_RX</text>
      <path d="M720,710 L746,710" stroke="#c07cd6" stroke-width="4"/>
      <rect x="746" y="698" width="60" height="24" rx="12" fill="#fff" stroke="#c07cd6" stroke-width="2"/>
      <text x="776" y="715" font-size="13" fill="#8e54b0" text-anchor="middle">DTR</text>
      <path d="M720,755 L746,755" stroke="#c07cd6" stroke-width="4"/>
      <rect x="746" y="743" width="60" height="24" rx="12" fill="#fff" stroke="#c07cd6" stroke-width="2"/>
      <text x="776" y="760" font-size="13" fill="#8e54b0" text-anchor="middle">RTS</text>
    </g>

    <!-- ESP32 left pins (EN / IO0 connect by net name to Reset/boot + Auto-program) -->
    <g font-size="15" fill="#2b2b2b">
      <text x="876" y="525">3V3</text>
      <text x="876" y="585">EN</text>
      <text x="876" y="635">IO0</text>
      <text x="876" y="835">RXD</text>
      <text x="876" y="885">TXD</text>
      <text x="876" y="935">GND</text>
    </g>
    <circle cx="860" cy="520" r="6" fill="#e2861f"/>
    <circle cx="860" cy="580" r="6" fill="#7b61ff"/>
    <circle cx="860" cy="630" r="6" fill="#7b61ff"/>
    <circle cx="860" cy="830" r="6" fill="#2fa84f"/>
    <circle cx="860" cy="880" r="6" fill="#2fa84f"/>
    <circle cx="860" cy="930" r="6" fill="#1a1a1a"/>
    <!-- ESP +3V3 -->
    <path d="M860,520 L828,520 L828,502" fill="none" stroke="#e2861f" stroke-width="4" stroke-linejoin="round"/>
    <path d="M816,502 L840,502" stroke="#e2861f" stroke-width="3"/>
    <text x="828" y="494" font-size="13" fill="#e2861f" text-anchor="middle">+3V3</text>
    <!-- ESP GND -->
    <path d="M860,930 L828,930 L828,944" fill="none" stroke="#1a1a1a" stroke-width="4" stroke-linejoin="round"/>
    <g stroke="#1a1a1a" stroke-width="3"><path d="M816,944 L840,944"/><path d="M820,949 L836,949"/><path d="M824,954 L828,954"/></g>
    <!-- EN / IO0 net tags on ESP (matched in Reset/boot &amp; Auto-program) -->
    <path d="M860,580 L736,580" stroke="#7b61ff" stroke-width="4"/>
    <rect x="680" y="568" width="56" height="24" rx="12" fill="#fff" stroke="#7b61ff" stroke-width="2"/>
    <text x="708" y="585" font-size="13" fill="#6a4fe0" text-anchor="middle">EN</text>
    <path d="M860,630 L736,630" stroke="#7b61ff" stroke-width="4"/>
    <rect x="680" y="618" width="56" height="24" rx="12" fill="#fff" stroke="#7b61ff" stroke-width="2"/>
    <text x="708" y="635" font-size="13" fill="#6a4fe0" text-anchor="middle">IO0</text>
    <!-- ESP UART tags (match CH340C TXD/RXD by name) -->
    <path d="M860,830 L834,830" stroke="#2fa84f" stroke-width="4"/>
    <rect x="760" y="818" width="74" height="24" rx="12" fill="#fff" stroke="#2fa84f" stroke-width="2"/>
    <text x="797" y="835" font-size="13" fill="#2b8a43" text-anchor="middle">U0_RX</text>
    <path d="M860,880 L834,880" stroke="#2fa84f" stroke-width="4"/>
    <rect x="760" y="868" width="74" height="24" rx="12" fill="#fff" stroke="#2fa84f" stroke-width="2"/>
    <text x="797" y="885" font-size="13" fill="#2b8a43" text-anchor="middle">U0_TX</text>

    <!-- ESP right pins -->
    <g font-size="15" fill="#2b2b2b" text-anchor="end">
      <text x="1164" y="555">DMX TX</text>
      <text x="1164" y="615">DMX EN</text>
      <text x="1164" y="715">LED_ST</text>
    </g>
    <circle cx="1180" cy="560" r="6" fill="#2fa84f"/>
    <circle cx="1180" cy="620" r="6" fill="#7b61ff"/>
    <circle cx="1180" cy="720" r="6" fill="#2b2b2b"/>

    <!-- THVD left pins -->
    <g font-size="15" fill="#2b2b2b">
      <text x="1296" y="525">VCC</text>
      <text x="1296" y="640">DI</text>
      <text x="1296" y="690">/RE</text>
      <text x="1296" y="730">DE</text>
      <text x="1296" y="770">GND</text>
    </g>
    <circle cx="1280" cy="520" r="6" fill="#e2861f"/>
    <circle cx="1280" cy="635" r="6" fill="#2fa84f"/>
    <circle cx="1280" cy="685" r="6" fill="#7b61ff"/>
    <circle cx="1280" cy="725" r="6" fill="#7b61ff"/>
    <circle cx="1280" cy="765" r="6" fill="#1a1a1a"/>
    <circle cx="1280" cy="575" r="6" fill="#fff" stroke="#b9b9b3" stroke-width="2"/>
    <text x="1296" y="580" font-size="14" fill="#9a9a93">RO &#183; n/c</text>
    <!-- THVD VCC +3V3 -->
    <path d="M1280,520 L1252,520 L1252,502" fill="none" stroke="#e2861f" stroke-width="4" stroke-linejoin="round"/>
    <path d="M1240,502 L1264,502" stroke="#e2861f" stroke-width="3"/>
    <text x="1252" y="494" font-size="13" fill="#e2861f" text-anchor="middle">+3V3</text>
    <!-- THVD GND -->
    <path d="M1280,765 L1252,765 L1252,779" fill="none" stroke="#1a1a1a" stroke-width="4" stroke-linejoin="round"/>
    <g stroke="#1a1a1a" stroke-width="3"><path d="M1240,779 L1264,779"/><path d="M1244,784 L1260,784"/><path d="M1248,789 L1252,789"/></g>
    <!-- R8 enable pull-up on DMX_EN -->
    <circle cx="1232" cy="705" r="4" fill="#7b61ff"/>
    <path d="M1232,705 L1180,705" stroke="#7b61ff" stroke-width="0"/>
    <path d="M1200,705 L1200,671" stroke="#2b2b2b" stroke-width="3"/>
    <path d="M1200,705 L1232,705" stroke="#7b61ff" stroke-width="4"/>
    <rect x="1193" y="637" width="14" height="34" rx="2" fill="#fff" stroke="#555" stroke-width="2"/>
    <text x="1188" y="658" font-size="13" fill="#2b2b2b" text-anchor="end">R8 10k</text>
    <path d="M1200,637 L1200,622" stroke="#e2861f" stroke-width="3"/>
    <path d="M1188,622 L1212,622" stroke="#e2861f" stroke-width="3"/>
    <text x="1200" y="614" font-size="13" fill="#e2861f" text-anchor="middle">+3V3</text>

    <!-- THVD right pins A/B -->
    <text x="1504" y="615" font-size="15" fill="#2b2b2b" text-anchor="end">A</text>
    <text x="1504" y="695" font-size="15" fill="#2b2b2b" text-anchor="end">B</text>
    <circle cx="1520" cy="620" r="6" fill="#2f88e0"/>
    <circle cx="1520" cy="700" r="6" fill="#f0a020"/>
    <!-- bias R9 680R A->+3V3 -->
    <circle cx="1555" cy="620" r="4" fill="#2f88e0"/>
    <path d="M1555,620 L1555,506" stroke="#2b2b2b" stroke-width="3"/>
    <rect x="1548" y="540" width="14" height="34" rx="2" fill="#fff" stroke="#555" stroke-width="2"/>
    <text x="1568" y="561" font-size="13" fill="#2b2b2b">R9 680R</text>
    <path d="M1543,506 L1567,506" stroke="#e2861f" stroke-width="3"/>
    <text x="1555" y="498" font-size="13" fill="#e2861f" text-anchor="middle">+3V3</text>
    <!-- bias R10 680R B->GND -->
    <circle cx="1555" cy="700" r="4" fill="#f0a020"/>
    <path d="M1555,700 L1555,734" stroke="#2b2b2b" stroke-width="3"/>
    <rect x="1548" y="734" width="14" height="34" rx="2" fill="#fff" stroke="#555" stroke-width="2"/>
    <text x="1568" y="755" font-size="13" fill="#2b2b2b">R10 680R</text>
    <path d="M1555,768 L1555,782" stroke="#1a1a1a" stroke-width="3"/>
    <g stroke="#1a1a1a" stroke-width="3"><path d="M1543,782 L1567,782"/><path d="M1547,787 L1563,787"/><path d="M1551,792 L1555,792"/></g>
    <!-- R11 120R DNP across A-B -->
    <path d="M1585,620 L1585,648" stroke="#9a9a93" stroke-width="3" stroke-dasharray="5 5"/>
    <path d="M1585,672 L1585,700" stroke="#9a9a93" stroke-width="3" stroke-dasharray="5 5"/>
    <rect x="1578" y="648" width="14" height="24" rx="2" fill="#fff" stroke="#9a9a93" stroke-width="2" stroke-dasharray="4 3"/>
    <circle cx="1585" cy="620" r="3" fill="#2f88e0"/>
    <circle cx="1585" cy="700" r="3" fill="#f0a020"/>
    <text x="1598" y="664" font-size="12" fill="#7a7a73">R11 120R DNP</text>

    <!-- XLR pins -->
    <circle cx="1600" cy="620" r="6" fill="#2f88e0"/>
    <circle cx="1600" cy="700" r="6" fill="#f0a020"/>
    <circle cx="1600" cy="760" r="6" fill="#1a1a1a"/>
    <circle cx="1600" cy="805" r="6" fill="#fff" stroke="#b9b9b3" stroke-width="2"/>
    <circle cx="1600" cy="840" r="6" fill="#fff" stroke="#b9b9b3" stroke-width="2"/>
    <g font-size="15">
      <text x="1616" y="625" fill="#2b2b2b">Pin 3 &#183; Data+</text>
      <text x="1616" y="705" fill="#2b2b2b">Pin 2 &#183; Data&#8722;</text>
      <text x="1616" y="765" fill="#2b2b2b">Pin 1 &#183; GND</text>
      <text x="1616" y="810" fill="#9a9a93">Pin 4 &#183; n/c</text>
      <text x="1616" y="845" fill="#9a9a93">Pin 5 &#183; n/c</text>
    </g>

    <!-- ================= auto-program transistors ================= -->
    <rect x="470" y="900" width="470" height="300" rx="18" fill="#faf7f0" stroke="#ece6da" stroke-width="2"/>
    <text x="490" y="940" font-size="18" font-weight="700" fill="#1a1a1a">Auto-program (one-click flash)</text>
    <text x="490" y="964" font-size="14" fill="#6b6b66">DTR/RTS from CH340C toggle EN &amp; IO0 through SS8050 NPNs &#8212; no buttons needed to upload.</text>

    <!-- Q1: E=RTS, B=R3<-DTR, C=EN -->
    <circle cx="600" cy="1080" r="22" fill="#fff" stroke="#555" stroke-width="2"/>
    <path d="M596,1062 L596,1098" stroke="#555" stroke-width="4"/>
    <path d="M560,1080 L596,1080" stroke="#555" stroke-width="3"/>
    <path d="M596,1070 L616,1056" stroke="#555" stroke-width="3"/>
    <path d="M596,1090 L616,1104" stroke="#555" stroke-width="3"/>
    <path d="M610,1100 L616,1104 L610,1108" fill="none" stroke="#555" stroke-width="3"/>
    <text x="600" y="1044" font-size="14" font-weight="700" fill="#2b2b2b" text-anchor="middle">Q1</text>
    <!-- Q1 collector -> EN tag (up) -->
    <path d="M616,1056 L616,1030" stroke="#7b61ff" stroke-width="4"/>
    <rect x="588" y="1006" width="56" height="24" rx="12" fill="#fff" stroke="#7b61ff" stroke-width="2"/>
    <text x="616" y="1023" font-size="13" fill="#6a4fe0" text-anchor="middle">EN</text>
    <!-- Q1 emitter -> RTS tag (down) -->
    <path d="M616,1104 L616,1130" stroke="#c07cd6" stroke-width="4"/>
    <rect x="588" y="1130" width="56" height="24" rx="12" fill="#fff" stroke="#c07cd6" stroke-width="2"/>
    <text x="616" y="1147" font-size="13" fill="#8e54b0" text-anchor="middle">RTS</text>
    <!-- R3 base <- DTR -->
    <path d="M560,1080 L536,1080" stroke="#2b2b2b" stroke-width="3"/>
    <rect x="502" y="1073" width="34" height="14" rx="2" fill="#fff" stroke="#555" stroke-width="2"/>
    <text x="519" y="1066" font-size="12" fill="#2b2b2b" text-anchor="middle">R3 10k</text>
    <path d="M502,1080 L484,1080" stroke="#c07cd6" stroke-width="4"/>
    <rect x="424" y="1068" width="60" height="24" rx="12" fill="#fff" stroke="#c07cd6" stroke-width="2"/>
    <text x="454" y="1085" font-size="13" fill="#8e54b0" text-anchor="middle">DTR</text>

    <!-- Q2: E=DTR, B=R4<-RTS, C=IO0 -->
    <circle cx="820" cy="1080" r="22" fill="#fff" stroke="#555" stroke-width="2"/>
    <path d="M816,1062 L816,1098" stroke="#555" stroke-width="4"/>
    <path d="M780,1080 L816,1080" stroke="#555" stroke-width="3"/>
    <path d="M816,1070 L836,1056" stroke="#555" stroke-width="3"/>
    <path d="M816,1090 L836,1104" stroke="#555" stroke-width="3"/>
    <path d="M830,1100 L836,1104 L830,1108" fill="none" stroke="#555" stroke-width="3"/>
    <text x="820" y="1044" font-size="14" font-weight="700" fill="#2b2b2b" text-anchor="middle">Q2</text>
    <path d="M836,1056 L836,1030" stroke="#7b61ff" stroke-width="4"/>
    <rect x="808" y="1006" width="56" height="24" rx="12" fill="#fff" stroke="#7b61ff" stroke-width="2"/>
    <text x="836" y="1023" font-size="13" fill="#6a4fe0" text-anchor="middle">IO0</text>
    <path d="M836,1104 L836,1130" stroke="#c07cd6" stroke-width="4"/>
    <rect x="808" y="1130" width="56" height="24" rx="12" fill="#fff" stroke="#c07cd6" stroke-width="2"/>
    <text x="836" y="1147" font-size="13" fill="#8e54b0" text-anchor="middle">DTR</text>
    <path d="M780,1080 L756,1080" stroke="#2b2b2b" stroke-width="3"/>
    <rect x="722" y="1073" width="34" height="14" rx="2" fill="#fff" stroke="#555" stroke-width="2"/>
    <text x="739" y="1066" font-size="12" fill="#2b2b2b" text-anchor="middle">R4 10k</text>
    <path d="M722,1080 L704,1080" stroke="#c07cd6" stroke-width="4"/>
    <rect x="644" y="1068" width="60" height="24" rx="12" fill="#fff" stroke="#c07cd6" stroke-width="2"/>
    <text x="674" y="1085" font-size="13" fill="#8e54b0" text-anchor="middle">RTS</text>

    <!-- ================= indicator LEDs ================= -->
    <!-- D1 power LED: +3V3 -> R6 -> D1 -> GND -->
    <rect x="430" y="170" width="300" height="150" rx="18" fill="#faf7f0" stroke="#ece6da" stroke-width="2"/>
    <text x="450" y="208" font-size="18" font-weight="700" fill="#1a1a1a">Indicators</text>
    <text x="450" y="230" font-size="14" fill="#6b6b66">D1 power (always on) &#183; D2 status (sunrise blink)</text>
    <!-- D1 -->
    <path d="M500,262 L500,278" stroke="#e2861f" stroke-width="3"/>
    <path d="M488,262 L512,262" stroke="#e2861f" stroke-width="3"/>
    <text x="500" y="254" font-size="13" fill="#e2861f" text-anchor="middle">+3V3</text>
    <rect x="493" y="278" width="14" height="30" rx="2" fill="#fff" stroke="#555" stroke-width="2"/>
    <text x="514" y="297" font-size="12" fill="#2b2b2b">R6 1k</text>
    <path d="M500,308 L500,316" stroke="#2b2b2b" stroke-width="3"/>
    <path d="M488,316 L512,316 L500,332 Z" fill="#e23b2e" stroke="#e23b2e" stroke-width="1"/>
    <path d="M488,332 L512,332" stroke="#e23b2e" stroke-width="3"/>
    <path d="M514,312 L522,304 M516,318 L524,310" stroke="#e23b2e" stroke-width="1.5"/>
    <text x="470" y="328" font-size="12" fill="#2b2b2b" text-anchor="end">D1</text>
    <path d="M500,332 L500,344" stroke="#1a1a1a" stroke-width="3"/>
    <g stroke="#1a1a1a" stroke-width="3"><path d="M488,344 L512,344"/><path d="M492,349 L508,349"/><path d="M496,354 L500,354"/></g>
    <!-- D2 status LED: LED_ST -> R7 -> D2 -> GND -->
    <rect x="618" y="262" width="60" height="24" rx="12" fill="#fff" stroke="#7a7a73" stroke-width="2"/>
    <text x="648" y="279" font-size="12" fill="#4b4b46" text-anchor="middle">LED_ST</text>
    <path d="M648,286 L648,300" stroke="#2b2b2b" stroke-width="3"/>
    <rect x="641" y="300" width="14" height="30" rx="2" fill="#fff" stroke="#555" stroke-width="2"/>
    <text x="662" y="319" font-size="12" fill="#2b2b2b">R7 1k</text>
    <path d="M648,330 L648,338" stroke="#2b2b2b" stroke-width="3"/>
    <path d="M636,338 L660,338 L648,354 Z" fill="#2f88e0" stroke="#2f88e0" stroke-width="1"/>
    <path d="M636,354 L660,354" stroke="#2f88e0" stroke-width="3"/>
    <path d="M662,334 L670,326 M664,340 L672,332" stroke="#2f88e0" stroke-width="1.5"/>
    <text x="618" y="350" font-size="12" fill="#2b2b2b" text-anchor="end">D2</text>
    <path d="M648,354 L648,366" stroke="#1a1a1a" stroke-width="3"/>
    <g stroke="#1a1a1a" stroke-width="3"><path d="M636,366 L660,366"/><path d="M640,371 L656,371"/><path d="M644,376 L648,376"/></g>

    <!-- ================= reset / boot network ================= -->
    <rect x="430" y="330" width="320" height="185" rx="18" fill="#faf7f0" stroke="#ece6da" stroke-width="2"/>
    <text x="450" y="366" font-size="17" font-weight="700" fill="#1a1a1a">Reset / boot</text>
    <text x="450" y="386" font-size="12" fill="#6b6b66">EN pull-up R5, cap C6, buttons SW1 (EN) / SW2 (BOOT)</text>
    <!-- EN rail -->
    <rect x="442" y="408" width="56" height="24" rx="12" fill="#fff" stroke="#7b61ff" stroke-width="2"/>
    <text x="470" y="425" font-size="13" fill="#6a4fe0" text-anchor="middle">EN</text>
    <path d="M498,420 L715,420" stroke="#7b61ff" stroke-width="4"/>
    <!-- R5 to +3V3 -->
    <path d="M543,396 L567,396" stroke="#e2861f" stroke-width="3"/>
    <text x="555" y="390" font-size="12" fill="#e2861f" text-anchor="middle">+3V3</text>
    <path d="M555,396 L555,400" stroke="#e2861f" stroke-width="3"/>
    <rect x="548" y="400" width="14" height="14" rx="2" fill="#fff" stroke="#555" stroke-width="2"/>
    <path d="M555,414 L555,420" stroke="#2b2b2b" stroke-width="3"/>
    <text x="572" y="412" font-size="12" fill="#2b2b2b">R5 10k</text>
    <!-- C6 to GND -->
    <path d="M620,420 L620,436" stroke="#2b2b2b" stroke-width="3"/>
    <path d="M609,436 L631,436" stroke="#555" stroke-width="3"/><path d="M609,443 L631,443" stroke="#555" stroke-width="3"/>
    <path d="M620,443 L620,454" stroke="#1a1a1a" stroke-width="3"/>
    <g stroke="#1a1a1a" stroke-width="3"><path d="M608,454 L632,454"/><path d="M612,459 L628,459"/><path d="M616,464 L620,464"/></g>
    <text x="636" y="445" font-size="12" fill="#2b2b2b">C6 1&#181;F</text>
    <!-- SW1 EN button to GND -->
    <path d="M685,420 L685,434" stroke="#2b2b2b" stroke-width="3"/>
    <circle cx="685" cy="434" r="3" fill="#555"/><circle cx="685" cy="446" r="3" fill="#555"/>
    <path d="M673,428 L697,428" stroke="#555" stroke-width="3"/><path d="M685,428 L685,434" stroke="#555" stroke-width="3"/>
    <path d="M685,446 L685,458" stroke="#1a1a1a" stroke-width="3"/>
    <g stroke="#1a1a1a" stroke-width="3"><path d="M673,458 L697,458"/><path d="M677,463 L693,463"/><path d="M681,468 L685,468"/></g>
    <text x="700" y="446" font-size="12" fill="#2b2b2b">SW1</text>
    <!-- IO0 rail + SW2 -->
    <rect x="442" y="480" width="56" height="24" rx="12" fill="#fff" stroke="#7b61ff" stroke-width="2"/>
    <text x="470" y="497" font-size="13" fill="#6a4fe0" text-anchor="middle">IO0</text>
    <path d="M498,492 L560,492" stroke="#7b61ff" stroke-width="4"/>
    <path d="M545,492 L545,498" stroke="#2b2b2b" stroke-width="3"/>
    <circle cx="545" cy="498" r="3" fill="#555"/><circle cx="545" cy="506" r="3" fill="#555"/>
    <path d="M533,494 L557,494" stroke="#555" stroke-width="3"/><path d="M545,494 L545,498" stroke="#555" stroke-width="3"/>
    <path d="M545,506 L545,510" stroke="#1a1a1a" stroke-width="3"/>
    <g stroke="#1a1a1a" stroke-width="3"><path d="M535,510 L555,510"/><path d="M539,514 L551,514"/></g>
    <text x="562" y="497" font-size="12" fill="#2b2b2b">SW2</text>

    <!-- ================= decoupling bank ================= -->
    <rect x="980" y="1010" width="500" height="200" rx="18" fill="#faf7f0" stroke="#ece6da" stroke-width="2"/>
    <text x="1000" y="1048" font-size="18" font-weight="700" fill="#1a1a1a">Decoupling &#8212; +3V3 rail</text>
    <text x="1000" y="1070" font-size="14" fill="#6b6b66">Local bypass caps from +3V3 to GND across the board (C1/C2 shown at the LDO).</text>
    <!-- +3V3 bus bar -->
    <path d="M1030,1100 L1430,1100" stroke="#e2861f" stroke-width="4"/>
    <text x="1010" y="1105" font-size="13" fill="#e2861f" text-anchor="end">+3V3</text>
    <g>
      <!-- five caps -->
      <!-- C3 100n -->
      <path d="M1060,1100 L1060,1128" stroke="#2b2b2b" stroke-width="3"/>
      <path d="M1049,1128 L1071,1128" stroke="#555" stroke-width="3"/><path d="M1049,1136 L1071,1136" stroke="#555" stroke-width="3"/>
      <path d="M1060,1136 L1060,1150" stroke="#1a1a1a" stroke-width="3"/>
      <g stroke="#1a1a1a" stroke-width="3"><path d="M1048,1150 L1072,1150"/><path d="M1052,1155 L1068,1155"/><path d="M1056,1160 L1060,1160"/></g>
      <text x="1060" y="1182" font-size="12" fill="#2b2b2b" text-anchor="middle">C3 100n</text>
      <!-- C4 22u (polar) -->
      <path d="M1150,1100 L1150,1128" stroke="#2b2b2b" stroke-width="3"/>
      <path d="M1139,1128 L1161,1128" stroke="#555" stroke-width="3"/>
      <path d="M1141,1138 Q1150,1145 1159,1138" fill="none" stroke="#555" stroke-width="3"/>
      <text x="1164" y="1128" font-size="11" fill="#2b2b2b">+</text>
      <path d="M1150,1142 L1150,1150" stroke="#1a1a1a" stroke-width="3"/>
      <g stroke="#1a1a1a" stroke-width="3"><path d="M1138,1150 L1162,1150"/><path d="M1142,1155 L1158,1155"/><path d="M1146,1160 L1150,1160"/></g>
      <text x="1150" y="1182" font-size="12" fill="#2b2b2b" text-anchor="middle">C4 22&#181;</text>
      <!-- C5 100n -->
      <path d="M1240,1100 L1240,1128" stroke="#2b2b2b" stroke-width="3"/>
      <path d="M1229,1128 L1251,1128" stroke="#555" stroke-width="3"/><path d="M1229,1136 L1251,1136" stroke="#555" stroke-width="3"/>
      <path d="M1240,1136 L1240,1150" stroke="#1a1a1a" stroke-width="3"/>
      <g stroke="#1a1a1a" stroke-width="3"><path d="M1228,1150 L1252,1150"/><path d="M1232,1155 L1248,1155"/><path d="M1236,1160 L1240,1160"/></g>
      <text x="1240" y="1182" font-size="12" fill="#2b2b2b" text-anchor="middle">C5 100n</text>
      <!-- C7 100n -->
      <path d="M1330,1100 L1330,1128" stroke="#2b2b2b" stroke-width="3"/>
      <path d="M1319,1128 L1341,1128" stroke="#555" stroke-width="3"/><path d="M1319,1136 L1341,1136" stroke="#555" stroke-width="3"/>
      <path d="M1330,1136 L1330,1150" stroke="#1a1a1a" stroke-width="3"/>
      <g stroke="#1a1a1a" stroke-width="3"><path d="M1318,1150 L1342,1150"/><path d="M1322,1155 L1338,1155"/><path d="M1326,1160 L1330,1160"/></g>
      <text x="1330" y="1182" font-size="12" fill="#2b2b2b" text-anchor="middle">C7 100n</text>
      <!-- C8 4.7u (polar) -->
      <path d="M1420,1100 L1420,1128" stroke="#2b2b2b" stroke-width="3"/>
      <path d="M1409,1128 L1431,1128" stroke="#555" stroke-width="3"/>
      <path d="M1411,1138 Q1420,1145 1429,1138" fill="none" stroke="#555" stroke-width="3"/>
      <text x="1434" y="1128" font-size="11" fill="#2b2b2b">+</text>
      <path d="M1420,1142 L1420,1150" stroke="#1a1a1a" stroke-width="3"/>
      <g stroke="#1a1a1a" stroke-width="3"><path d="M1408,1150 L1432,1150"/><path d="M1412,1155 L1428,1155"/><path d="M1416,1160 L1420,1160"/></g>
      <text x="1420" y="1182" font-size="12" fill="#2b2b2b" text-anchor="middle">C8 4.7&#181;</text>
    </g>

    <!-- ================= legend ================= -->
    <text x="60" y="1150" font-size="14" fill="#6b6b66">Matching net names (rounded tags or pin labels) are the same electrical net.</text>
    <text x="60" y="1172" font-size="14" fill="#6b6b66">Transmit-only RS-485: RO unconnected, DE+/RE tied (firmware holds enable HIGH). 120R termination DNP &#8212; the PL60C terminates the bus.</text>
    <text x="60" y="1194" font-size="14" fill="#6b6b66">Power: USB-C 5 V &#8594; AMS1117 &#8594; +3V3. Also on board: 4&#215; M3 mounting holes (H1&#8211;H4).</text>

  </g>
</svg>
