%TF.GenerationSoftware,KiCad,Pcbnew,10.0.3*%
%TF.CreationDate,2026-06-10T09:27:34+01:00*%
%TF.ProjectId,wakelight,77616b65-6c69-4676-9874-2e6b69636164,rev?*%
%TF.SameCoordinates,Original*%
%TF.FileFunction,Copper,L2,Bot*%
%TF.FilePolarity,Positive*%
%FSLAX46Y46*%
G04 Gerber Fmt 4.6, Leading zero omitted, Abs format (unit mm)*
G04 Created by KiCad (PCBNEW 10.0.3) date 2026-06-10 09:27:34*
%MOMM*%
%LPD*%
G01*
G04 APERTURE LIST*
G04 Aperture macros list*
%AMRoundRect*
0 Rectangle with rounded corners*
0 $1 Rounding radius*
0 $2 $3 $4 $5 $6 $7 $8 $9 X,Y pos of 4 corners*
0 Add a 4 corners polygon primitive as box body*
4,1,4,$2,$3,$4,$5,$6,$7,$8,$9,$2,$3,0*
0 Add four circle primitives for the rounded corners*
1,1,$1+$1,$2,$3*
1,1,$1+$1,$4,$5*
1,1,$1+$1,$6,$7*
1,1,$1+$1,$8,$9*
0 Add four rect primitives between the rounded corners*
20,1,$1+$1,$2,$3,$4,$5,0*
20,1,$1+$1,$4,$5,$6,$7,0*
20,1,$1+$1,$6,$7,$8,$9,0*
20,1,$1+$1,$8,$9,$2,$3,0*%
G04 Aperture macros list end*
%TA.AperFunction,ComponentPad*%
%ADD10O,1.000000X2.100000*%
%TD*%
%TA.AperFunction,ComponentPad*%
%ADD11O,1.000000X1.600000*%
%TD*%
%TA.AperFunction,HeatsinkPad*%
%ADD12C,0.600000*%
%TD*%
%TA.AperFunction,ComponentPad*%
%ADD13RoundRect,0.250000X-1.050000X1.050000X-1.050000X-1.050000X1.050000X-1.050000X1.050000X1.050000X0*%
%TD*%
%TA.AperFunction,ComponentPad*%
%ADD14C,2.600000*%
%TD*%
%TA.AperFunction,ViaPad*%
%ADD15C,0.700000*%
%TD*%
%TA.AperFunction,Conductor*%
%ADD16C,0.250000*%
%TD*%
%TA.AperFunction,Conductor*%
%ADD17C,0.500000*%
%TD*%
G04 APERTURE END LIST*
D10*
%TO.P,J1,SH*%
%TO.N,GND*%
X28680000Y-35370000D03*
D11*
X28680000Y-39550000D03*
D10*
X37320000Y-35370000D03*
D11*
X37320000Y-39550000D03*
%TD*%
D12*
%TO.P,U1,39*%
%TO.N,GND*%
X8060000Y-19900000D03*
X9460000Y-19900000D03*
X7360000Y-19200000D03*
X8760000Y-19200000D03*
X10160000Y-19200000D03*
X8060000Y-18500000D03*
X9460000Y-18500000D03*
X7360000Y-17800000D03*
X8760000Y-17800000D03*
X10160000Y-17800000D03*
X8060000Y-17100000D03*
X9460000Y-17100000D03*
%TD*%
D13*
%TO.P,J2,1*%
%TO.N,GND*%
X49200000Y-10500000D03*
D14*
%TO.P,J2,2*%
%TO.N,DMX_B*%
X49200000Y-15580000D03*
%TO.P,J2,3*%
%TO.N,DMX_A*%
X49200000Y-20660000D03*
%TD*%
D15*
%TO.N,GND*%
X42300000Y-32100000D03*
X40975000Y-15175000D03*
X52525000Y-32787500D03*
X22525000Y-15787500D03*
X18750000Y-39900000D03*
X40025000Y-4525000D03*
X10275000Y-27650000D03*
X30400000Y-30000000D03*
X16050000Y-39900000D03*
X11160000Y-18500000D03*
X9325000Y-27825000D03*
X37200000Y-33500000D03*
X40525000Y-23225000D03*
X25049999Y-39900000D03*
X40450000Y-11905000D03*
X42500000Y-37500000D03*
X37300000Y-32200000D03*
X27705000Y-28475000D03*
X42775000Y-4350000D03*
X28900000Y-33600000D03*
X40875000Y-31550000D03*
X9750000Y-39900000D03*
X1040000Y-27750000D03*
X6096000Y-28194000D03*
%TO.N,+3V3*%
X4572000Y-29845000D03*
X9017000Y-29591000D03*
%TO.N,DTR*%
X32384999Y-23495000D03*
X30099000Y-26162000D03*
%TO.N,+5V*%
X30550000Y-33400000D03*
X35450000Y-33400000D03*
X38735000Y-37084000D03*
%TO.N,USB_DP*%
X33200000Y-30550000D03*
X34050000Y-32350000D03*
%TO.N,USB_DM*%
X34905000Y-27550000D03*
X32450000Y-30000000D03*
%TO.N,IO0*%
X15875000Y-32512000D03*
X17399000Y-36068000D03*
X18923000Y-24892000D03*
X22860000Y-31369000D03*
%TO.N,RTS*%
X21463000Y-33274000D03*
X31115000Y-23114000D03*
%TO.N,DMX_A*%
X42672000Y-10668000D03*
X42037000Y-20320000D03*
X44450000Y-3937000D03*
%TO.N,Q_IO0_B*%
X14224000Y-31623000D03*
X21463000Y-31623000D03*
%TO.N,DMX_EN*%
X35179000Y-9398000D03*
X33020000Y-9144000D03*
%TO.N,U0_RX*%
X15875000Y-14986000D03*
X29845000Y-28448000D03*
%TO.N,U0_TX*%
X31115000Y-28448000D03*
X5461000Y-9906000D03*
%TO.N,DMX_DI*%
X34417000Y-11938000D03*
X16637000Y-9906000D03*
%TD*%
%TO.N,GND*%
D16*
X8509000Y-28194000D02*
X8636000Y-28067000D01*
X8763000Y-28067000D02*
X8890000Y-27940000D01*
X6096000Y-28194000D02*
X8509000Y-28194000D01*
X8890000Y-27940000D02*
X9017000Y-27940000D01*
X9017000Y-27940000D02*
X9144000Y-27813000D01*
X9144000Y-27813000D02*
X9271000Y-27813000D01*
X8636000Y-28067000D02*
X8763000Y-28067000D01*
%TO.N,+3V3*%
D17*
X8763000Y-29718000D02*
X8890000Y-29591000D01*
X4572000Y-29845000D02*
X8509000Y-29845000D01*
X8890000Y-29591000D02*
X9017000Y-29591000D01*
X8636000Y-29718000D02*
X8763000Y-29718000D01*
X8509000Y-29845000D02*
X8636000Y-29718000D01*
%TO.N,DTR*%
D16*
X32384999Y-23495000D02*
X30099000Y-25781000D01*
X30099000Y-25781000D02*
X30099000Y-26162000D01*
%TO.N,+5V*%
D17*
X35052000Y-36957000D02*
X34925000Y-36830000D01*
X36195000Y-37084000D02*
X36068000Y-36957000D01*
X30550000Y-33400000D02*
X30550000Y-34300000D01*
X30550000Y-34300000D02*
X35450000Y-34300000D01*
X34925000Y-36830000D02*
X34925000Y-34290000D01*
X38735000Y-37084000D02*
X36195000Y-37084000D01*
X36068000Y-36957000D02*
X35052000Y-36957000D01*
X35450000Y-34300000D02*
X35450000Y-33400000D01*
%TO.N,USB_DP*%
D16*
X34050000Y-32350000D02*
X33200000Y-30550000D01*
%TO.N,USB_DM*%
X32450000Y-30000000D02*
X34905000Y-27550000D01*
%TO.N,IO0*%
X16129000Y-33401000D02*
X16256000Y-33528000D01*
X16764000Y-34798000D02*
X16891000Y-34925000D01*
X16256000Y-33655000D02*
X16383000Y-33782000D01*
X16510000Y-34036000D02*
X16510000Y-34163000D01*
X15875000Y-32512000D02*
X15875000Y-32766000D01*
X18923000Y-24892000D02*
X18923000Y-27432000D01*
X17145000Y-35433000D02*
X17145000Y-35560000D01*
X16637000Y-34417000D02*
X16764000Y-34544000D01*
X15875000Y-32766000D02*
X16001999Y-32893000D01*
X16001999Y-32893000D02*
X16001999Y-33020000D01*
X17018000Y-35179000D02*
X17018000Y-35306000D01*
X16383000Y-33909000D02*
X16510000Y-34036000D01*
X16256000Y-33528000D02*
X16256000Y-33655000D01*
X16129000Y-33147000D02*
X16129000Y-33401000D01*
X16764000Y-34544000D02*
X16764000Y-34798000D01*
X16383000Y-33782000D02*
X16383000Y-33909000D01*
X16637000Y-34290000D02*
X16637000Y-34417000D01*
X16510000Y-34163000D02*
X16637000Y-34290000D01*
X16891000Y-34925000D02*
X16891000Y-35052000D01*
X18923000Y-27432000D02*
X22860000Y-31369000D01*
X17018000Y-35306000D02*
X17145000Y-35433000D01*
X17272000Y-35687000D02*
X17272000Y-35814000D01*
X17145000Y-35560000D02*
X17272000Y-35687000D01*
X16891000Y-35052000D02*
X17018000Y-35179000D01*
X17399000Y-35941000D02*
X17399000Y-36068000D01*
X16001999Y-33020000D02*
X16129000Y-33147000D01*
X17272000Y-35814000D02*
X17399000Y-35941000D01*
%TO.N,RTS*%
X22733000Y-32639000D02*
X22606000Y-32766000D01*
X26797000Y-30861000D02*
X26670000Y-30861000D01*
X23495000Y-32384999D02*
X23368000Y-32384999D01*
X24892000Y-31750000D02*
X24765000Y-31750000D01*
X21590000Y-33274000D02*
X21463000Y-33274000D01*
X21717000Y-33147000D02*
X21590000Y-33274000D01*
X24130000Y-32003999D02*
X24003000Y-32131000D01*
X26924000Y-30734000D02*
X26797000Y-30861000D01*
X25908000Y-31242000D02*
X25781000Y-31369000D01*
X33147000Y-22860000D02*
X33147000Y-24130000D01*
X26289000Y-31115000D02*
X26162000Y-31115000D01*
X26416000Y-30988000D02*
X26289000Y-31115000D01*
X26543000Y-30988000D02*
X26416000Y-30988000D01*
X22352000Y-32893000D02*
X22225000Y-32893000D01*
X31877000Y-29083000D02*
X31750000Y-29210000D01*
X25146000Y-31623000D02*
X25019000Y-31623000D01*
X23368000Y-32384999D02*
X23241000Y-32512000D01*
X24384000Y-32003999D02*
X24130000Y-32003999D01*
X31877000Y-25400000D02*
X31877000Y-29083000D01*
X28321000Y-29464000D02*
X27051000Y-30734000D01*
X25019000Y-31623000D02*
X24892000Y-31750000D01*
X25527000Y-31369000D02*
X25400000Y-31496000D01*
X26162000Y-31115000D02*
X26035000Y-31242000D01*
X22479000Y-32766000D02*
X22352000Y-32893000D01*
X22606000Y-32766000D02*
X22479000Y-32766000D01*
X31115000Y-23114000D02*
X31369000Y-23114000D01*
X33020000Y-22733000D02*
X33147000Y-22860000D01*
X22098000Y-33020000D02*
X21971000Y-33020000D01*
X33147000Y-24130000D02*
X31877000Y-25400000D01*
X25781000Y-31369000D02*
X25527000Y-31369000D01*
X25273000Y-31496000D02*
X25146000Y-31623000D01*
X23241000Y-32512000D02*
X23114000Y-32512000D01*
X26670000Y-30861000D02*
X26543000Y-30988000D01*
X23114000Y-32512000D02*
X22987000Y-32639000D01*
X29718000Y-29210000D02*
X29464000Y-29464000D01*
X22225000Y-32893000D02*
X22098000Y-33020000D01*
X22987000Y-32639000D02*
X22733000Y-32639000D01*
X23876000Y-32131000D02*
X23749000Y-32258000D01*
X27051000Y-30734000D02*
X26924000Y-30734000D01*
X23749000Y-32258000D02*
X23622000Y-32258000D01*
X26035000Y-31242000D02*
X25908000Y-31242000D01*
X31750000Y-29210000D02*
X29718000Y-29210000D01*
X25400000Y-31496000D02*
X25273000Y-31496000D01*
X24765000Y-31750000D02*
X24638000Y-31877000D01*
X24003000Y-32131000D02*
X23876000Y-32131000D01*
X31369000Y-23114000D02*
X31750000Y-22733000D01*
X31750000Y-22733000D02*
X33020000Y-22733000D01*
X29464000Y-29464000D02*
X28321000Y-29464000D01*
X24511000Y-31877000D02*
X24384000Y-32003999D01*
X24638000Y-31877000D02*
X24511000Y-31877000D01*
X21971000Y-33020000D02*
X21844000Y-33147000D01*
X23622000Y-32258000D02*
X23495000Y-32384999D01*
X21844000Y-33147000D02*
X21717000Y-33147000D01*
%TO.N,DMX_A*%
X42418000Y-19431000D02*
X42418000Y-19558000D01*
X49149000Y-20701000D02*
X45847000Y-17399000D01*
X42545000Y-19177000D02*
X42545000Y-19304000D01*
X44450000Y-15113000D02*
X44323000Y-15240000D01*
X42164000Y-20066000D02*
X42037000Y-20193000D01*
X42545000Y-19304000D02*
X42418000Y-19431000D01*
X44704000Y-16891000D02*
X44577000Y-16891000D01*
X45085000Y-17145000D02*
X44958000Y-17018000D01*
X42672000Y-10668000D02*
X44450000Y-10668000D01*
X43053000Y-18034000D02*
X43053000Y-18161000D01*
X42799000Y-18542000D02*
X42799000Y-18669000D01*
X42672000Y-19050000D02*
X42545000Y-19177000D01*
X44323000Y-16764000D02*
X43053000Y-18034000D01*
X42164000Y-19939000D02*
X42164000Y-20066000D01*
X42418000Y-19558000D02*
X42291000Y-19685000D01*
X49149000Y-20701000D02*
X49200000Y-20660000D01*
X42037000Y-20193000D02*
X42037000Y-20320000D01*
X44958000Y-17018000D02*
X44831000Y-17018000D01*
X42926000Y-18415000D02*
X42799000Y-18542000D01*
X44323000Y-15240000D02*
X44323000Y-16764000D01*
X42926000Y-18288000D02*
X42926000Y-18415000D01*
X45593000Y-17399000D02*
X45466000Y-17272000D01*
X44450000Y-3937000D02*
X44450000Y-15113000D01*
X42291000Y-19685000D02*
X42291000Y-19812000D01*
X45466000Y-17272000D02*
X45339000Y-17272000D01*
X44577000Y-16891000D02*
X44450000Y-16764000D01*
X42672000Y-18796000D02*
X42672000Y-19050000D01*
X42799000Y-18669000D02*
X42672000Y-18796000D01*
X45339000Y-17272000D02*
X45212000Y-17145000D01*
X44831000Y-17018000D02*
X44704000Y-16891000D01*
X45212000Y-17145000D02*
X45085000Y-17145000D01*
X45847000Y-17399000D02*
X45593000Y-17399000D01*
X44450000Y-16764000D02*
X44323000Y-16764000D01*
X43053000Y-18161000D02*
X42926000Y-18288000D01*
X42291000Y-19812000D02*
X42164000Y-19939000D01*
%TO.N,Q_IO0_B*%
X14224000Y-31623000D02*
X21463000Y-31623000D01*
%TO.N,DMX_EN*%
X33147000Y-9144000D02*
X33020000Y-9144000D01*
X33274000Y-9271000D02*
X33147000Y-9144000D01*
X33401000Y-9271000D02*
X33274000Y-9271000D01*
X35179000Y-9398000D02*
X33528000Y-9398000D01*
X33528000Y-9398000D02*
X33401000Y-9271000D01*
%TO.N,U0_RX*%
X29083000Y-28067000D02*
X29210000Y-28194000D01*
X15875000Y-14986000D02*
X28956000Y-28067000D01*
X29591000Y-28321000D02*
X29718000Y-28448000D01*
X29464000Y-28321000D02*
X29591000Y-28321000D01*
X29718000Y-28448000D02*
X29845000Y-28448000D01*
X29337000Y-28194000D02*
X29464000Y-28321000D01*
X29210000Y-28194000D02*
X29337000Y-28194000D01*
X28956000Y-28067000D02*
X29083000Y-28067000D01*
%TO.N,U0_TX*%
X30480000Y-27686000D02*
X31115000Y-28321000D01*
X5461000Y-9906000D02*
X8763000Y-13208000D01*
X16510000Y-14224000D02*
X29972000Y-27686000D01*
X16129000Y-14224000D02*
X16510000Y-14224000D01*
X31115000Y-28321000D02*
X31115000Y-28448000D01*
X29972000Y-27686000D02*
X30480000Y-27686000D01*
X8763000Y-13208000D02*
X15113000Y-13208000D01*
X15113000Y-13208000D02*
X16129000Y-14224000D01*
%TO.N,DMX_DI*%
X18923000Y-10668000D02*
X18796000Y-10541000D01*
X18161000Y-10287000D02*
X18034000Y-10160000D01*
X21463000Y-11811000D02*
X21336000Y-11684000D01*
X18415000Y-10414000D02*
X18288000Y-10287000D01*
X19558000Y-10922000D02*
X19431000Y-10795000D01*
X19431000Y-10795000D02*
X19177000Y-10795000D01*
X18542000Y-10414000D02*
X18415000Y-10414000D01*
X19939000Y-11049000D02*
X19812000Y-11049000D01*
X20447000Y-11303000D02*
X20320000Y-11303000D01*
X21082000Y-11557000D02*
X20955000Y-11557000D01*
X19812000Y-11049000D02*
X19685000Y-10922000D01*
X19685000Y-10922000D02*
X19558000Y-10922000D01*
X20574000Y-11430000D02*
X20447000Y-11303000D01*
X20955000Y-11557000D02*
X20828000Y-11430000D01*
X18796000Y-10541000D02*
X18669000Y-10541000D01*
X21209000Y-11684000D02*
X21082000Y-11557000D01*
X20828000Y-11430000D02*
X20574000Y-11430000D01*
X18034000Y-10160000D02*
X17780000Y-10160000D01*
X34417000Y-11938000D02*
X21717000Y-11938000D01*
X21336000Y-11684000D02*
X21209000Y-11684000D01*
X20193000Y-11176000D02*
X20066000Y-11176000D01*
X21717000Y-11938000D02*
X21590000Y-11811000D01*
X19050000Y-10668000D02*
X18923000Y-10668000D01*
X19177000Y-10795000D02*
X19050000Y-10668000D01*
X20320000Y-11303000D02*
X20193000Y-11176000D01*
X21590000Y-11811000D02*
X21463000Y-11811000D01*
X17780000Y-10160000D02*
X17653000Y-10033000D01*
X20066000Y-11176000D02*
X19939000Y-11049000D01*
X17399000Y-9906000D02*
X16637000Y-9906000D01*
X17653000Y-10033000D02*
X17526000Y-10033000D01*
X18669000Y-10541000D02*
X18542000Y-10414000D01*
X17526000Y-10033000D02*
X17399000Y-9906000D01*
X18288000Y-10287000D02*
X18161000Y-10287000D01*
%TD*%
%TA.AperFunction,Conductor*%
%TO.N,GND*%
G36*
X54442539Y-520185D02*
G01*
X54488294Y-572989D01*
X54499500Y-624500D01*
X54499500Y-41375500D01*
X54479815Y-41442539D01*
X54427011Y-41488294D01*
X54375500Y-41499500D01*
X624500Y-41499500D01*
X557461Y-41479815D01*
X511706Y-41427011D01*
X500500Y-41375500D01*
X500500Y-38378711D01*
X1649500Y-38378711D01*
X1649500Y-38621288D01*
X1681161Y-38861785D01*
X1743947Y-39096104D01*
X1828404Y-39300000D01*
X1836776Y-39320212D01*
X1958064Y-39530289D01*
X1958066Y-39530292D01*
X1958067Y-39530293D01*
X2105733Y-39722736D01*
X2105739Y-39722743D01*
X2277256Y-39894260D01*
X2277262Y-39894265D01*
X2469711Y-40041936D01*
X2679788Y-40163224D01*
X2903900Y-40256054D01*
X3138211Y-40318838D01*
X3318586Y-40342584D01*
X3378711Y-40350500D01*
X3378712Y-40350500D01*
X3621289Y-40350500D01*
X3669388Y-40344167D01*
X3861789Y-40318838D01*
X4096100Y-40256054D01*
X4320212Y-40163224D01*
X4530289Y-40041936D01*
X4722738Y-39894265D01*
X4894265Y-39722738D01*
X5041936Y-39530289D01*
X5163224Y-39320212D01*
X5233105Y-39151504D01*
X27680000Y-39151504D01*
X27680000Y-39300000D01*
X28380000Y-39300000D01*
X28380000Y-39800000D01*
X27680000Y-39800000D01*
X27680000Y-39948495D01*
X27718427Y-40141681D01*
X27718430Y-40141693D01*
X27793807Y-40323671D01*
X27793814Y-40323684D01*
X27903248Y-40487462D01*
X27903251Y-40487466D01*
X28042533Y-40626748D01*
X28042537Y-40626751D01*
X28206315Y-40736185D01*
X28206328Y-40736192D01*
X28388308Y-40811569D01*
X28430000Y-40819862D01*
X28430000Y-40016988D01*
X28439940Y-40034205D01*
X28495795Y-40090060D01*
X28564204Y-40129556D01*
X28640504Y-40150000D01*
X28719496Y-40150000D01*
X28795796Y-40129556D01*
X28864205Y-40090060D01*
X28920060Y-40034205D01*
X28930000Y-40016988D01*
X28930000Y-40819862D01*
X28971690Y-40811569D01*
X28971692Y-40811569D01*
X29153671Y-40736192D01*
X29153684Y-40736185D01*
X29317462Y-40626751D01*
X29317466Y-40626748D01*
X29456748Y-40487466D01*
X29456751Y-40487462D01*
X29566185Y-40323684D01*
X29566192Y-40323671D01*
X29641569Y-40141693D01*
X29641572Y-40141681D01*
X29679999Y-39948495D01*
X29680000Y-39948492D01*
X29680000Y-39800000D01*
X28980000Y-39800000D01*
X28980000Y-39300000D01*
X29680000Y-39300000D01*
X29680000Y-39151508D01*
X29679999Y-39151504D01*
X36320000Y-39151504D01*
X36320000Y-39300000D01*
X37020000Y-39300000D01*
X37020000Y-39800000D01*
X36320000Y-39800000D01*
X36320000Y-39948495D01*
X36358427Y-40141681D01*
X36358430Y-40141693D01*
X36433807Y-40323671D01*
X36433814Y-40323684D01*
X36543248Y-40487462D01*
X36543251Y-40487466D01*
X36682533Y-40626748D01*
X36682537Y-40626751D01*
X36846315Y-40736185D01*
X36846328Y-40736192D01*
X37028308Y-40811569D01*
X37070000Y-40819862D01*
X37070000Y-40016988D01*
X37079940Y-40034205D01*
X37135795Y-40090060D01*
X37204204Y-40129556D01*
X37280504Y-40150000D01*
X37359496Y-40150000D01*
X37435796Y-40129556D01*
X37504205Y-40090060D01*
X37560060Y-40034205D01*
X37570000Y-40016988D01*
X37570000Y-40819862D01*
X37611690Y-40811569D01*
X37611692Y-40811569D01*
X37793671Y-40736192D01*
X37793684Y-40736185D01*
X37957462Y-40626751D01*
X37957466Y-40626748D01*
X38096748Y-40487466D01*
X38096751Y-40487462D01*
X38206185Y-40323684D01*
X38206192Y-40323671D01*
X38281569Y-40141693D01*
X38281572Y-40141681D01*
X38319999Y-39948495D01*
X38320000Y-39948492D01*
X38320000Y-39800000D01*
X37620000Y-39800000D01*
X37620000Y-39300000D01*
X38320000Y-39300000D01*
X38320000Y-39151508D01*
X38319999Y-39151504D01*
X38281572Y-38958318D01*
X38281569Y-38958306D01*
X38206192Y-38776328D01*
X38206185Y-38776315D01*
X38096751Y-38612537D01*
X38096748Y-38612533D01*
X37957468Y-38473253D01*
X37957461Y-38473247D01*
X37815979Y-38378711D01*
X49649500Y-38378711D01*
X49649500Y-38621288D01*
X49681161Y-38861785D01*
X49743947Y-39096104D01*
X49828404Y-39300000D01*
X49836776Y-39320212D01*
X49958064Y-39530289D01*
X49958066Y-39530292D01*
X49958067Y-39530293D01*
X50105733Y-39722736D01*
X50105739Y-39722743D01*
X50277256Y-39894260D01*
X50277262Y-39894265D01*
X50469711Y-40041936D01*
X50679788Y-40163224D01*
X50903900Y-40256054D01*
X51138211Y-40318838D01*
X51318586Y-40342584D01*
X51378711Y-40350500D01*
X51378712Y-40350500D01*
X51621289Y-40350500D01*
X51669388Y-40344167D01*
X51861789Y-40318838D01*
X52096100Y-40256054D01*
X52320212Y-40163224D01*
X52530289Y-40041936D01*
X52722738Y-39894265D01*
X52894265Y-39722738D01*
X53041936Y-39530289D01*
X53163224Y-39320212D01*
X53256054Y-39096100D01*
X53318838Y-38861789D01*
X53350500Y-38621288D01*
X53350500Y-38378712D01*
X53318838Y-38138211D01*
X53256054Y-37903900D01*
X53163224Y-37679788D01*
X53041936Y-37469711D01*
X52894265Y-37277262D01*
X52894260Y-37277256D01*
X52722743Y-37105739D01*
X52722736Y-37105733D01*
X52530293Y-36958067D01*
X52530292Y-36958066D01*
X52530289Y-36958064D01*
X52320212Y-36836776D01*
X52246359Y-36806185D01*
X52096104Y-36743947D01*
X51861785Y-36681161D01*
X51621289Y-36649500D01*
X51621288Y-36649500D01*
X51378712Y-36649500D01*
X51378711Y-36649500D01*
X51138214Y-36681161D01*
X50903895Y-36743947D01*
X50679794Y-36836773D01*
X50679785Y-36836777D01*
X50469706Y-36958067D01*
X50277263Y-37105733D01*
X50277256Y-37105739D01*
X50105739Y-37277256D01*
X50105733Y-37277263D01*
X49958067Y-37469706D01*
X49836777Y-37679785D01*
X49836773Y-37679794D01*
X49743947Y-37903895D01*
X49681161Y-38138214D01*
X49649500Y-38378711D01*
X37815979Y-38378711D01*
X37793684Y-38363814D01*
X37793671Y-38363807D01*
X37611691Y-38288429D01*
X37611683Y-38288427D01*
X37570000Y-38280135D01*
X37570000Y-39083011D01*
X37560060Y-39065795D01*
X37504205Y-39009940D01*
X37435796Y-38970444D01*
X37359496Y-38950000D01*
X37280504Y-38950000D01*
X37204204Y-38970444D01*
X37135795Y-39009940D01*
X37079940Y-39065795D01*
X37070000Y-39083011D01*
X37070000Y-38280136D01*
X37069999Y-38280135D01*
X37028316Y-38288427D01*
X37028308Y-38288429D01*
X36846328Y-38363807D01*
X36846315Y-38363814D01*
X36682537Y-38473248D01*
X36682533Y-38473251D01*
X36543251Y-38612533D01*
X36543248Y-38612537D01*
X36433814Y-38776315D01*
X36433807Y-38776328D01*
X36358430Y-38958306D01*
X36358427Y-38958318D01*
X36320000Y-39151504D01*
X29679999Y-39151504D01*
X29641572Y-38958318D01*
X29641569Y-38958306D01*
X29566192Y-38776328D01*
X29566185Y-38776315D01*
X29456751Y-38612537D01*
X29456748Y-38612533D01*
X29317466Y-38473251D01*
X29317462Y-38473248D01*
X29153684Y-38363814D01*
X29153671Y-38363807D01*
X28971691Y-38288429D01*
X28971683Y-38288427D01*
X28930000Y-38280135D01*
X28930000Y-39083011D01*
X28920060Y-39065795D01*
X28864205Y-39009940D01*
X28795796Y-38970444D01*
X28719496Y-38950000D01*
X28640504Y-38950000D01*
X28564204Y-38970444D01*
X28495795Y-39009940D01*
X28439940Y-39065795D01*
X28430000Y-39083011D01*
X28430000Y-38280136D01*
X28429999Y-38280135D01*
X28388316Y-38288427D01*
X28388308Y-38288429D01*
X28206328Y-38363807D01*
X28206315Y-38363814D01*
X28042537Y-38473248D01*
X28042533Y-38473251D01*
X27903251Y-38612533D01*
X27903248Y-38612537D01*
X27793814Y-38776315D01*
X27793807Y-38776328D01*
X27718430Y-38958306D01*
X27718427Y-38958318D01*
X27680000Y-39151504D01*
X5233105Y-39151504D01*
X5256054Y-39096100D01*
X5318838Y-38861789D01*
X5350500Y-38621288D01*
X5350500Y-38378712D01*
X5318838Y-38138211D01*
X5256054Y-37903900D01*
X5163224Y-37679788D01*
X5041936Y-37469711D01*
X4894265Y-37277262D01*
X4894260Y-37277256D01*
X4722743Y-37105739D01*
X4722736Y-37105733D01*
X4530293Y-36958067D01*
X4530292Y-36958066D01*
X4530289Y-36958064D01*
X4320212Y-36836776D01*
X4246359Y-36806185D01*
X4096104Y-36743947D01*
X3861785Y-36681161D01*
X3621289Y-36649500D01*
X3621288Y-36649500D01*
X3378712Y-36649500D01*
X3378711Y-36649500D01*
X3138214Y-36681161D01*
X2903895Y-36743947D01*
X2679794Y-36836773D01*
X2679785Y-36836777D01*
X2469706Y-36958067D01*
X2277263Y-37105733D01*
X2277256Y-37105739D01*
X2105739Y-37277256D01*
X2105733Y-37277263D01*
X1958067Y-37469706D01*
X1836777Y-37679785D01*
X1836773Y-37679794D01*
X1743947Y-37903895D01*
X1681161Y-38138214D01*
X1649500Y-38378711D01*
X500500Y-38378711D01*
X500500Y-29765943D01*
X3971500Y-29765943D01*
X3971500Y-29924057D01*
X3989284Y-29990426D01*
X4012423Y-30076783D01*
X4012426Y-30076790D01*
X4091475Y-30213709D01*
X4091479Y-30213714D01*
X4091480Y-30213716D01*
X4203284Y-30325520D01*
X4203286Y-30325521D01*
X4203290Y-30325524D01*
X4278102Y-30368716D01*
X4340216Y-30404577D01*
X4492943Y-30445500D01*
X4492945Y-30445500D01*
X4651055Y-30445500D01*
X4651057Y-30445500D01*
X4803784Y-30404577D01*
X4877334Y-30362112D01*
X4939334Y-30345500D01*
X8574890Y-30345500D01*
X8574892Y-30345500D01*
X8702186Y-30311392D01*
X8816314Y-30245500D01*
X8825096Y-30236717D01*
X8838982Y-30228700D01*
X8848243Y-30218513D01*
X8880688Y-30204621D01*
X8913891Y-30195725D01*
X8945982Y-30191500D01*
X9096055Y-30191500D01*
X9096057Y-30191500D01*
X9248784Y-30150577D01*
X9385716Y-30071520D01*
X9497520Y-29959716D01*
X9576577Y-29822784D01*
X9617500Y-29670057D01*
X9617500Y-29511943D01*
X9576577Y-29359216D01*
X9563115Y-29335899D01*
X9497524Y-29222290D01*
X9497518Y-29222282D01*
X9385717Y-29110481D01*
X9385709Y-29110475D01*
X9248790Y-29031426D01*
X9248786Y-29031424D01*
X9248784Y-29031423D01*
X9096057Y-28990500D01*
X8937943Y-28990500D01*
X8785216Y-29031423D01*
X8785209Y-29031426D01*
X8648290Y-29110475D01*
X8648286Y-29110478D01*
X8554202Y-29204562D01*
X8520334Y-29228595D01*
X8509849Y-29233645D01*
X8442814Y-29251608D01*
X8328686Y-29317500D01*
X8322103Y-29324082D01*
X8305220Y-29332215D01*
X8282860Y-29335899D01*
X8261726Y-29344070D01*
X8251407Y-29344500D01*
X4939334Y-29344500D01*
X4877334Y-29327887D01*
X4803786Y-29285424D01*
X4803785Y-29285423D01*
X4803784Y-29285423D01*
X4651057Y-29244500D01*
X4492943Y-29244500D01*
X4340216Y-29285423D01*
X4340209Y-29285426D01*
X4203290Y-29364475D01*
X4203282Y-29364481D01*
X4091481Y-29476282D01*
X4091475Y-29476290D01*
X4012426Y-29613209D01*
X4012423Y-29613216D01*
X3971500Y-29765943D01*
X500500Y-29765943D01*
X500500Y-9826943D01*
X4860500Y-9826943D01*
X4860500Y-9985057D01*
X4900505Y-10134356D01*
X4901423Y-10137783D01*
X4901426Y-10137790D01*
X4980475Y-10274709D01*
X4980479Y-10274714D01*
X4980480Y-10274716D01*
X5092284Y-10386520D01*
X5092286Y-10386521D01*
X5092290Y-10386524D01*
X5193731Y-10445090D01*
X5229216Y-10465577D01*
X5381943Y-10506500D01*
X5479101Y-10506500D01*
X5546140Y-10526185D01*
X5566782Y-10542819D01*
X8462525Y-13438562D01*
X8532438Y-13508475D01*
X8618062Y-13557910D01*
X8665811Y-13570705D01*
X8665812Y-13570705D01*
X8675903Y-13573408D01*
X8713564Y-13583500D01*
X8713565Y-13583500D01*
X14906101Y-13583500D01*
X14973140Y-13603185D01*
X14993782Y-13619819D01*
X15628589Y-14254626D01*
X15662074Y-14315949D01*
X15657090Y-14385641D01*
X15615218Y-14441574D01*
X15602908Y-14449694D01*
X15506287Y-14505477D01*
X15506282Y-14505481D01*
X15394481Y-14617282D01*
X15394475Y-14617290D01*
X15315426Y-14754209D01*
X15315423Y-14754216D01*
X15274500Y-14906943D01*
X15274500Y-15065057D01*
X15315194Y-15216927D01*
X15315423Y-15217783D01*
X15315426Y-15217790D01*
X15394475Y-15354709D01*
X15394479Y-15354714D01*
X15394480Y-15354716D01*
X15506284Y-15466520D01*
X15506286Y-15466521D01*
X15506290Y-15466524D01*
X15643209Y-15545573D01*
X15643216Y-15545577D01*
X15795943Y-15586500D01*
X15893101Y-15586500D01*
X15960140Y-15606185D01*
X15980782Y-15622819D01*
X28725438Y-28367475D01*
X28811063Y-28416911D01*
X28903020Y-28441550D01*
X28958606Y-28473643D01*
X28979438Y-28494475D01*
X29035872Y-28527057D01*
X29065062Y-28543910D01*
X29112810Y-28556705D01*
X29144870Y-28565294D01*
X29157017Y-28568549D01*
X29167962Y-28574375D01*
X29176708Y-28575654D01*
X29197303Y-28589990D01*
X29206353Y-28594807D01*
X29209578Y-28597615D01*
X29233438Y-28621475D01*
X29243950Y-28627544D01*
X29252993Y-28635418D01*
X29265611Y-28655156D01*
X29281779Y-28672112D01*
X29284994Y-28679042D01*
X29364477Y-28816712D01*
X29364481Y-28816717D01*
X29384681Y-28836917D01*
X29389018Y-28844860D01*
X29396265Y-28850285D01*
X29405501Y-28875046D01*
X29418166Y-28898240D01*
X29417520Y-28907267D01*
X29420684Y-28915749D01*
X29415067Y-28941572D01*
X29413182Y-28967932D01*
X29407364Y-28976983D01*
X29405834Y-28984022D01*
X29384683Y-29012277D01*
X29344783Y-29052179D01*
X29283461Y-29085666D01*
X29257100Y-29088500D01*
X28271564Y-29088500D01*
X28223812Y-29101295D01*
X28223811Y-29101294D01*
X28176063Y-29114089D01*
X28176062Y-29114089D01*
X28090435Y-29163527D01*
X26926606Y-30327356D01*
X26871019Y-30359449D01*
X26836438Y-30368716D01*
X26836437Y-30368715D01*
X26779063Y-30384089D01*
X26779062Y-30384089D01*
X26693435Y-30433527D01*
X26693435Y-30433528D01*
X26672604Y-30454358D01*
X26617019Y-30486449D01*
X26572813Y-30498295D01*
X26572812Y-30498294D01*
X26525063Y-30511089D01*
X26525062Y-30511089D01*
X26439435Y-30560527D01*
X26439435Y-30560528D01*
X26418604Y-30581358D01*
X26363019Y-30613449D01*
X26318813Y-30625295D01*
X26318812Y-30625294D01*
X26271063Y-30638089D01*
X26271062Y-30638089D01*
X26185435Y-30687527D01*
X26185435Y-30687528D01*
X26164604Y-30708358D01*
X26109019Y-30740449D01*
X26064813Y-30752295D01*
X26064812Y-30752294D01*
X26017063Y-30765089D01*
X26017062Y-30765089D01*
X25931435Y-30814527D01*
X25931435Y-30814528D01*
X25910605Y-30835357D01*
X25855022Y-30867448D01*
X25812151Y-30878936D01*
X25812150Y-30878936D01*
X25763066Y-30892088D01*
X25763059Y-30892091D01*
X25677436Y-30941526D01*
X25661782Y-30957181D01*
X25600459Y-30990666D01*
X25574101Y-30993500D01*
X25477563Y-30993500D01*
X25431148Y-31005937D01*
X25431147Y-31005936D01*
X25382066Y-31019088D01*
X25382059Y-31019091D01*
X25296436Y-31068526D01*
X25296437Y-31068526D01*
X25296435Y-31068528D01*
X25275605Y-31089357D01*
X25220022Y-31121448D01*
X25177151Y-31132936D01*
X25177150Y-31132936D01*
X25128066Y-31146088D01*
X25128059Y-31146091D01*
X25042436Y-31195526D01*
X25042437Y-31195526D01*
X25042435Y-31195528D01*
X25021605Y-31216357D01*
X24966022Y-31248448D01*
X24923151Y-31259936D01*
X24923150Y-31259936D01*
X24874066Y-31273088D01*
X24874059Y-31273091D01*
X24788436Y-31322526D01*
X24788437Y-31322526D01*
X24788435Y-31322528D01*
X24767605Y-31343357D01*
X24712022Y-31375448D01*
X24669151Y-31386936D01*
X24669150Y-31386936D01*
X24620066Y-31400088D01*
X24620059Y-31400091D01*
X24534436Y-31449526D01*
X24534437Y-31449526D01*
X24534435Y-31449528D01*
X24513604Y-31470358D01*
X24458018Y-31502450D01*
X24381831Y-31522864D01*
X24365217Y-31525051D01*
X24351927Y-31535250D01*
X24336877Y-31543940D01*
X24336872Y-31543943D01*
X24316213Y-31555870D01*
X24280435Y-31576526D01*
X24264782Y-31592180D01*
X24203459Y-31625665D01*
X24177101Y-31628499D01*
X24080563Y-31628499D01*
X24032812Y-31641294D01*
X23985060Y-31654089D01*
X23985059Y-31654090D01*
X23899433Y-31703526D01*
X23878604Y-31724356D01*
X23864718Y-31732372D01*
X23855463Y-31742555D01*
X23823019Y-31756449D01*
X23789235Y-31765502D01*
X23789234Y-31765502D01*
X23731063Y-31781089D01*
X23731062Y-31781089D01*
X23645435Y-31830527D01*
X23645435Y-31830528D01*
X23624604Y-31851358D01*
X23569019Y-31883450D01*
X23540569Y-31891072D01*
X23492831Y-31903864D01*
X23460739Y-31908089D01*
X23456929Y-31908089D01*
X23389890Y-31888404D01*
X23344135Y-31835600D01*
X23334191Y-31766442D01*
X23349542Y-31722089D01*
X23351378Y-31718910D01*
X23419577Y-31600784D01*
X23460500Y-31448057D01*
X23460500Y-31289943D01*
X23419577Y-31137216D01*
X23411049Y-31122445D01*
X23340524Y-31000290D01*
X23340518Y-31000282D01*
X23228717Y-30888481D01*
X23228709Y-30888475D01*
X23091790Y-30809426D01*
X23091786Y-30809424D01*
X23091784Y-30809423D01*
X22939057Y-30768500D01*
X22939056Y-30768500D01*
X22841900Y-30768500D01*
X22774861Y-30748815D01*
X22754219Y-30732181D01*
X19334819Y-27312781D01*
X19301334Y-27251458D01*
X19298500Y-27225100D01*
X19298500Y-25417098D01*
X19318185Y-25350059D01*
X19334819Y-25329417D01*
X19403520Y-25260716D01*
X19482577Y-25123784D01*
X19523500Y-24971057D01*
X19523500Y-24812943D01*
X19482577Y-24660216D01*
X19482573Y-24660209D01*
X19403524Y-24523290D01*
X19403518Y-24523282D01*
X19291717Y-24411481D01*
X19291709Y-24411475D01*
X19154790Y-24332426D01*
X19154786Y-24332424D01*
X19154784Y-24332423D01*
X19002057Y-24291500D01*
X18843943Y-24291500D01*
X18691216Y-24332423D01*
X18691209Y-24332426D01*
X18554290Y-24411475D01*
X18554282Y-24411481D01*
X18442481Y-24523282D01*
X18442475Y-24523290D01*
X18363426Y-24660209D01*
X18363423Y-24660216D01*
X18322500Y-24812943D01*
X18322500Y-24971057D01*
X18362900Y-25121830D01*
X18363423Y-25123783D01*
X18363426Y-25123790D01*
X18442475Y-25260709D01*
X18442481Y-25260717D01*
X18511181Y-25329417D01*
X18544666Y-25390740D01*
X18547500Y-25417098D01*
X18547500Y-27481435D01*
X18570519Y-27567342D01*
X18573091Y-27576942D01*
X18573092Y-27576943D01*
X18603181Y-27629057D01*
X18607516Y-27636565D01*
X18622526Y-27662563D01*
X18622528Y-27662565D01*
X21816432Y-30856469D01*
X21849917Y-30917792D01*
X21844933Y-30987484D01*
X21803061Y-31043417D01*
X21737597Y-31067834D01*
X21696658Y-31063925D01*
X21586748Y-31034475D01*
X21542057Y-31022500D01*
X21383943Y-31022500D01*
X21231216Y-31063423D01*
X21231209Y-31063426D01*
X21094290Y-31142475D01*
X21094282Y-31142481D01*
X21025583Y-31211181D01*
X20964260Y-31244666D01*
X20937902Y-31247500D01*
X14749098Y-31247500D01*
X14682059Y-31227815D01*
X14661417Y-31211181D01*
X14592717Y-31142481D01*
X14592709Y-31142475D01*
X14455790Y-31063426D01*
X14455786Y-31063424D01*
X14455784Y-31063423D01*
X14303057Y-31022500D01*
X14144943Y-31022500D01*
X13992216Y-31063423D01*
X13992209Y-31063426D01*
X13855290Y-31142475D01*
X13855282Y-31142481D01*
X13743481Y-31254282D01*
X13743475Y-31254290D01*
X13664426Y-31391209D01*
X13664423Y-31391216D01*
X13623500Y-31543943D01*
X13623500Y-31702057D01*
X13662046Y-31845911D01*
X13664423Y-31854783D01*
X13664426Y-31854790D01*
X13743475Y-31991709D01*
X13743479Y-31991714D01*
X13743480Y-31991716D01*
X13855284Y-32103520D01*
X13855286Y-32103521D01*
X13855290Y-32103524D01*
X13971684Y-32170723D01*
X13992216Y-32182577D01*
X14144943Y-32223500D01*
X14144945Y-32223500D01*
X14303055Y-32223500D01*
X14303057Y-32223500D01*
X14455784Y-32182577D01*
X14592716Y-32103520D01*
X14661417Y-32034819D01*
X14722740Y-32001334D01*
X14749098Y-31998500D01*
X15263297Y-31998500D01*
X15330336Y-32018185D01*
X15376091Y-32070989D01*
X15386035Y-32140147D01*
X15370684Y-32184500D01*
X15315424Y-32280213D01*
X15315423Y-32280216D01*
X15274500Y-32432943D01*
X15274500Y-32591057D01*
X15313046Y-32734911D01*
X15315423Y-32743783D01*
X15315426Y-32743790D01*
X15394475Y-32880709D01*
X15394479Y-32880714D01*
X15394480Y-32880716D01*
X15506284Y-32992520D01*
X15573437Y-33031290D01*
X15579636Y-33034869D01*
X15627266Y-33084313D01*
X15633795Y-33096666D01*
X15652089Y-33164938D01*
X15701525Y-33250564D01*
X15730396Y-33279434D01*
X15739129Y-33295957D01*
X15742517Y-33312617D01*
X15750666Y-33327540D01*
X15753500Y-33353901D01*
X15753500Y-33450436D01*
X15765952Y-33496909D01*
X15779088Y-33545933D01*
X15779091Y-33545940D01*
X15828526Y-33631563D01*
X15849356Y-33652393D01*
X15857371Y-33666276D01*
X15867555Y-33675533D01*
X15881449Y-33707978D01*
X15890159Y-33740481D01*
X15890159Y-33740484D01*
X15890160Y-33740484D01*
X15890160Y-33740485D01*
X15906090Y-33799938D01*
X15952614Y-33880520D01*
X15955526Y-33885563D01*
X15976356Y-33906393D01*
X16008450Y-33961982D01*
X16018770Y-34000499D01*
X16033088Y-34053934D01*
X16033089Y-34053937D01*
X16036265Y-34059438D01*
X16082525Y-34139562D01*
X16082526Y-34139563D01*
X16082527Y-34139564D01*
X16103355Y-34160392D01*
X16111371Y-34174277D01*
X16121554Y-34183533D01*
X16135448Y-34215978D01*
X16146952Y-34258909D01*
X16160088Y-34307933D01*
X16160089Y-34307937D01*
X16160090Y-34307938D01*
X16182254Y-34346328D01*
X16209526Y-34393563D01*
X16230356Y-34414393D01*
X16262450Y-34469980D01*
X16287090Y-34561939D01*
X16287091Y-34561940D01*
X16329731Y-34635795D01*
X16336526Y-34647563D01*
X16352181Y-34663218D01*
X16385666Y-34724541D01*
X16388500Y-34750899D01*
X16388500Y-34847436D01*
X16400952Y-34893909D01*
X16414088Y-34942933D01*
X16414091Y-34942940D01*
X16463526Y-35028563D01*
X16484355Y-35049392D01*
X16492371Y-35063277D01*
X16502554Y-35072533D01*
X16516448Y-35104978D01*
X16527952Y-35147909D01*
X16541088Y-35196933D01*
X16541091Y-35196940D01*
X16590526Y-35282563D01*
X16611355Y-35303392D01*
X16619371Y-35317277D01*
X16629554Y-35326533D01*
X16643448Y-35358978D01*
X16654952Y-35401909D01*
X16668088Y-35450933D01*
X16668089Y-35450937D01*
X16668090Y-35450938D01*
X16682555Y-35475993D01*
X16717526Y-35536563D01*
X16738356Y-35557393D01*
X16746372Y-35571277D01*
X16756555Y-35580534D01*
X16770449Y-35612978D01*
X16778359Y-35642496D01*
X16778359Y-35642499D01*
X16778360Y-35642499D01*
X16778360Y-35642500D01*
X16795090Y-35704938D01*
X16823714Y-35754517D01*
X16840187Y-35822414D01*
X16836102Y-35848608D01*
X16806390Y-35959496D01*
X16798500Y-35988943D01*
X16798500Y-36147057D01*
X16825136Y-36246462D01*
X16839423Y-36299783D01*
X16839426Y-36299790D01*
X16918475Y-36436709D01*
X16918479Y-36436714D01*
X16918480Y-36436716D01*
X17030284Y-36548520D01*
X17030286Y-36548521D01*
X17030290Y-36548524D01*
X17125478Y-36603480D01*
X17167216Y-36627577D01*
X17319943Y-36668500D01*
X17319945Y-36668500D01*
X17478055Y-36668500D01*
X17478057Y-36668500D01*
X17630784Y-36627577D01*
X17767716Y-36548520D01*
X17879520Y-36436716D01*
X17958577Y-36299784D01*
X17999500Y-36147057D01*
X17999500Y-35988943D01*
X17958577Y-35836216D01*
X17951659Y-35824234D01*
X17879524Y-35699290D01*
X17879518Y-35699282D01*
X17767717Y-35587481D01*
X17767712Y-35587477D01*
X17623746Y-35504359D01*
X17624364Y-35503287D01*
X17586418Y-35475993D01*
X17578544Y-35466950D01*
X17572475Y-35456438D01*
X17548615Y-35432578D01*
X17545807Y-35429353D01*
X17537119Y-35410450D01*
X17519550Y-35380020D01*
X17512169Y-35352475D01*
X17512168Y-35352471D01*
X17505996Y-35329436D01*
X17494911Y-35288063D01*
X17478431Y-35259520D01*
X17445475Y-35202438D01*
X17424643Y-35181606D01*
X17416626Y-35167721D01*
X17406443Y-35158464D01*
X17392550Y-35126020D01*
X17385169Y-35098475D01*
X17385168Y-35098473D01*
X17380362Y-35080537D01*
X17367910Y-35034063D01*
X17367910Y-35034062D01*
X17318475Y-34948438D01*
X17297643Y-34927606D01*
X17290339Y-34915499D01*
X17282004Y-34908489D01*
X17269827Y-34881501D01*
X17266873Y-34876604D01*
X17266170Y-34874335D01*
X17240910Y-34780062D01*
X17207102Y-34721504D01*
X27680000Y-34721504D01*
X27680000Y-35120000D01*
X28380000Y-35120000D01*
X28380000Y-35620000D01*
X27680000Y-35620000D01*
X27680000Y-36018495D01*
X27718427Y-36211681D01*
X27718430Y-36211693D01*
X27793807Y-36393671D01*
X27793814Y-36393684D01*
X27903248Y-36557462D01*
X27903251Y-36557466D01*
X28042533Y-36696748D01*
X28042537Y-36696751D01*
X28206315Y-36806185D01*
X28206328Y-36806192D01*
X28388308Y-36881569D01*
X28430000Y-36889862D01*
X28430000Y-36086988D01*
X28439940Y-36104205D01*
X28495795Y-36160060D01*
X28564204Y-36199556D01*
X28640504Y-36220000D01*
X28719496Y-36220000D01*
X28795796Y-36199556D01*
X28864205Y-36160060D01*
X28920060Y-36104205D01*
X28930000Y-36086988D01*
X28930000Y-36889862D01*
X28971690Y-36881569D01*
X28971692Y-36881569D01*
X29153671Y-36806192D01*
X29153684Y-36806185D01*
X29317462Y-36696751D01*
X29317466Y-36696748D01*
X29456748Y-36557466D01*
X29456751Y-36557462D01*
X29569574Y-36388613D01*
X29571007Y-36389570D01*
X29614198Y-36345580D01*
X29682332Y-36330103D01*
X29748018Y-36353919D01*
X29750089Y-36355697D01*
X29750189Y-36355568D01*
X29756630Y-36360510D01*
X29756635Y-36360515D01*
X29887865Y-36436281D01*
X30034234Y-36475500D01*
X30034236Y-36475500D01*
X30185764Y-36475500D01*
X30185766Y-36475500D01*
X30332135Y-36436281D01*
X30463365Y-36360515D01*
X30570515Y-36253365D01*
X30646281Y-36122135D01*
X30685500Y-35975766D01*
X30685500Y-35824234D01*
X30646281Y-35677865D01*
X30570515Y-35546635D01*
X30463365Y-35439485D01*
X30388499Y-35396261D01*
X30332136Y-35363719D01*
X30258950Y-35344109D01*
X30185766Y-35324500D01*
X30034234Y-35324500D01*
X29887863Y-35363719D01*
X29756635Y-35439485D01*
X29756632Y-35439487D01*
X29649486Y-35546633D01*
X29649482Y-35546638D01*
X29642923Y-35558000D01*
X29592356Y-35606216D01*
X29535536Y-35620000D01*
X28980000Y-35620000D01*
X28980000Y-35120000D01*
X29680000Y-35120000D01*
X29680000Y-34721508D01*
X29679999Y-34721504D01*
X29641572Y-34528318D01*
X29641569Y-34528306D01*
X29566192Y-34346328D01*
X29566185Y-34346315D01*
X29456751Y-34182537D01*
X29456748Y-34182533D01*
X29317466Y-34043251D01*
X29317462Y-34043248D01*
X29153684Y-33933814D01*
X29153671Y-33933807D01*
X28971691Y-33858429D01*
X28971683Y-33858427D01*
X28930000Y-33850135D01*
X28930000Y-34653011D01*
X28920060Y-34635795D01*
X28864205Y-34579940D01*
X28795796Y-34540444D01*
X28719496Y-34520000D01*
X28640504Y-34520000D01*
X28564204Y-34540444D01*
X28495795Y-34579940D01*
X28439940Y-34635795D01*
X28430000Y-34653011D01*
X28430000Y-33850136D01*
X28429999Y-33850135D01*
X28388316Y-33858427D01*
X28388308Y-33858429D01*
X28206328Y-33933807D01*
X28206315Y-33933814D01*
X28042537Y-34043248D01*
X28042533Y-34043251D01*
X27903251Y-34182533D01*
X27903248Y-34182537D01*
X27793814Y-34346315D01*
X27793807Y-34346328D01*
X27718430Y-34528306D01*
X27718427Y-34528318D01*
X27680000Y-34721504D01*
X17207102Y-34721504D01*
X17191475Y-34694438D01*
X17175819Y-34678782D01*
X17162125Y-34653703D01*
X17145834Y-34630225D01*
X17144371Y-34621189D01*
X17142334Y-34617459D01*
X17139578Y-34595490D01*
X17139500Y-34593287D01*
X17139500Y-34494565D01*
X17139130Y-34493186D01*
X17113910Y-34399063D01*
X17113910Y-34399062D01*
X17064475Y-34313438D01*
X17043643Y-34292606D01*
X17035625Y-34278719D01*
X17025443Y-34269463D01*
X17011550Y-34237021D01*
X17008090Y-34224108D01*
X16986910Y-34145063D01*
X16986910Y-34145062D01*
X16937475Y-34059438D01*
X16916643Y-34038606D01*
X16908626Y-34024721D01*
X16898443Y-34015464D01*
X16884550Y-33983020D01*
X16877169Y-33955475D01*
X16877168Y-33955473D01*
X16872362Y-33937537D01*
X16859910Y-33891063D01*
X16859910Y-33891062D01*
X16810475Y-33805438D01*
X16789643Y-33784606D01*
X16781625Y-33770719D01*
X16771444Y-33761464D01*
X16757550Y-33729020D01*
X16757012Y-33727011D01*
X16750169Y-33701475D01*
X16742523Y-33672937D01*
X16732910Y-33637062D01*
X16683475Y-33551438D01*
X16662643Y-33530606D01*
X16654626Y-33516721D01*
X16644443Y-33507464D01*
X16630550Y-33475020D01*
X16623169Y-33447475D01*
X16623168Y-33447472D01*
X16608647Y-33393276D01*
X16605910Y-33383063D01*
X16605910Y-33383062D01*
X16556475Y-33297438D01*
X16540819Y-33281782D01*
X16507334Y-33220459D01*
X16504500Y-33194101D01*
X16504500Y-33097564D01*
X16504500Y-33097563D01*
X16478910Y-33002062D01*
X16429474Y-32916436D01*
X16429469Y-32916431D01*
X16425943Y-32911835D01*
X16400748Y-32846666D01*
X16414785Y-32778221D01*
X16416932Y-32774345D01*
X16424926Y-32760499D01*
X16434577Y-32743784D01*
X16475500Y-32591057D01*
X16475500Y-32432943D01*
X16434577Y-32280216D01*
X16379316Y-32184500D01*
X16362843Y-32116599D01*
X16385696Y-32050572D01*
X16440617Y-32007382D01*
X16486703Y-31998500D01*
X20937902Y-31998500D01*
X21004941Y-32018185D01*
X21025583Y-32034819D01*
X21094284Y-32103520D01*
X21094286Y-32103521D01*
X21094290Y-32103524D01*
X21210684Y-32170723D01*
X21231216Y-32182577D01*
X21383943Y-32223500D01*
X21383945Y-32223500D01*
X21542055Y-32223500D01*
X21542057Y-32223500D01*
X21694784Y-32182577D01*
X21831716Y-32103520D01*
X21943520Y-31991716D01*
X22022577Y-31854784D01*
X22063500Y-31702057D01*
X22063500Y-31652191D01*
X22083185Y-31585152D01*
X22135989Y-31539397D01*
X22205147Y-31529453D01*
X22268703Y-31558478D01*
X22294787Y-31594653D01*
X22296359Y-31593746D01*
X22379475Y-31737709D01*
X22379479Y-31737714D01*
X22379480Y-31737716D01*
X22491284Y-31849520D01*
X22491286Y-31849521D01*
X22491290Y-31849524D01*
X22583298Y-31902644D01*
X22628216Y-31928577D01*
X22780943Y-31969500D01*
X22780945Y-31969500D01*
X22839864Y-31969500D01*
X22868536Y-31977919D01*
X22897828Y-31983881D01*
X22901709Y-31987660D01*
X22906903Y-31989185D01*
X22926470Y-32011767D01*
X22947890Y-32032621D01*
X22949111Y-32037896D01*
X22952658Y-32041989D01*
X22956911Y-32071574D01*
X22963655Y-32100688D01*
X22961831Y-32105785D01*
X22962602Y-32111147D01*
X22950185Y-32138335D01*
X22940118Y-32166474D01*
X22935394Y-32170723D01*
X22933577Y-32174703D01*
X22915498Y-32191763D01*
X22908988Y-32196773D01*
X22883438Y-32211525D01*
X22883437Y-32211526D01*
X22862096Y-32232866D01*
X22855735Y-32237763D01*
X22830352Y-32247619D01*
X22806459Y-32260666D01*
X22793036Y-32262109D01*
X22790603Y-32263054D01*
X22788406Y-32262606D01*
X22780101Y-32263500D01*
X22683563Y-32263500D01*
X22655787Y-32270942D01*
X22655787Y-32270943D01*
X22588062Y-32289090D01*
X22588061Y-32289090D01*
X22588059Y-32289091D01*
X22502436Y-32338526D01*
X22502437Y-32338526D01*
X22502435Y-32338528D01*
X22481605Y-32359357D01*
X22426022Y-32391448D01*
X22383151Y-32402936D01*
X22383150Y-32402936D01*
X22334066Y-32416088D01*
X22334059Y-32416091D01*
X22248436Y-32465526D01*
X22248437Y-32465526D01*
X22248435Y-32465528D01*
X22227605Y-32486357D01*
X22172022Y-32518448D01*
X22129159Y-32529934D01*
X22129158Y-32529934D01*
X22080066Y-32543088D01*
X22080059Y-32543091D01*
X21994436Y-32592526D01*
X21994437Y-32592526D01*
X21994435Y-32592528D01*
X21973605Y-32613357D01*
X21918022Y-32645448D01*
X21875151Y-32656936D01*
X21875150Y-32656936D01*
X21826066Y-32670088D01*
X21826055Y-32670093D01*
X21776482Y-32698714D01*
X21708582Y-32715187D01*
X21682390Y-32711102D01*
X21636157Y-32698714D01*
X21542057Y-32673500D01*
X21383943Y-32673500D01*
X21231216Y-32714423D01*
X21231209Y-32714426D01*
X21094290Y-32793475D01*
X21094282Y-32793481D01*
X20982481Y-32905282D01*
X20982475Y-32905290D01*
X20903426Y-33042209D01*
X20903423Y-33042216D01*
X20862500Y-33194943D01*
X20862500Y-33353057D01*
X20901730Y-33499463D01*
X20903423Y-33505783D01*
X20903426Y-33505790D01*
X20982475Y-33642709D01*
X20982479Y-33642714D01*
X20982480Y-33642716D01*
X21094284Y-33754520D01*
X21094286Y-33754521D01*
X21094290Y-33754524D01*
X21172192Y-33799500D01*
X21231216Y-33833577D01*
X21383943Y-33874500D01*
X21383945Y-33874500D01*
X21542055Y-33874500D01*
X21542057Y-33874500D01*
X21694784Y-33833577D01*
X21831716Y-33754520D01*
X21943520Y-33642716D01*
X21996221Y-33551435D01*
X22026641Y-33498746D01*
X22027713Y-33499365D01*
X22055006Y-33461418D01*
X22064046Y-33453545D01*
X22074562Y-33447475D01*
X22098426Y-33423610D01*
X22101645Y-33420808D01*
X22120549Y-33412119D01*
X22150981Y-33394550D01*
X22195179Y-33382707D01*
X22195180Y-33382706D01*
X22195186Y-33382705D01*
X22242938Y-33369910D01*
X22327751Y-33320943D01*
X29949500Y-33320943D01*
X29949500Y-33479057D01*
X29968895Y-33551438D01*
X29990423Y-33631783D01*
X29990424Y-33631786D01*
X30005474Y-33657853D01*
X30032368Y-33704436D01*
X30032887Y-33705334D01*
X30049500Y-33767334D01*
X30049500Y-34365892D01*
X30058387Y-34399060D01*
X30083608Y-34493187D01*
X30110892Y-34540444D01*
X30149500Y-34607314D01*
X30242686Y-34700500D01*
X30341521Y-34757563D01*
X30355057Y-34765378D01*
X30356814Y-34766392D01*
X30484108Y-34800500D01*
X30615892Y-34800500D01*
X34300500Y-34800500D01*
X34367539Y-34820185D01*
X34413294Y-34872989D01*
X34424500Y-34924500D01*
X34424500Y-36895891D01*
X34458608Y-37023187D01*
X34491554Y-37080250D01*
X34524500Y-37137314D01*
X34744686Y-37357500D01*
X34858814Y-37423392D01*
X34986107Y-37457500D01*
X34986108Y-37457500D01*
X35810407Y-37457500D01*
X35877446Y-37477185D01*
X35885895Y-37483125D01*
X35887681Y-37484495D01*
X35887686Y-37484500D01*
X36001814Y-37550392D01*
X36129107Y-37584500D01*
X36129108Y-37584500D01*
X38367666Y-37584500D01*
X38429665Y-37601112D01*
X38503216Y-37643577D01*
X38655943Y-37684500D01*
X38655945Y-37684500D01*
X38814055Y-37684500D01*
X38814057Y-37684500D01*
X38966784Y-37643577D01*
X39103716Y-37564520D01*
X39215520Y-37452716D01*
X39294577Y-37315784D01*
X39335500Y-37163057D01*
X39335500Y-37004943D01*
X39294577Y-36852216D01*
X39268001Y-36806185D01*
X39215524Y-36715290D01*
X39215518Y-36715282D01*
X39103717Y-36603481D01*
X39103709Y-36603475D01*
X38966790Y-36524426D01*
X38966786Y-36524424D01*
X38966784Y-36524423D01*
X38814057Y-36483500D01*
X38655943Y-36483500D01*
X38503216Y-36524423D01*
X38503213Y-36524424D01*
X38429666Y-36566887D01*
X38414177Y-36571037D01*
X38402601Y-36578477D01*
X38367666Y-36583500D01*
X38311342Y-36583500D01*
X38244303Y-36563815D01*
X38198548Y-36511011D01*
X38188604Y-36441853D01*
X38204719Y-36399803D01*
X38203316Y-36399053D01*
X38206192Y-36393671D01*
X38281569Y-36211693D01*
X38281572Y-36211681D01*
X38319999Y-36018495D01*
X38320000Y-36018492D01*
X38320000Y-35620000D01*
X37620000Y-35620000D01*
X37620000Y-35120000D01*
X38320000Y-35120000D01*
X38320000Y-34721508D01*
X38319999Y-34721504D01*
X38281572Y-34528318D01*
X38281569Y-34528306D01*
X38206192Y-34346328D01*
X38206185Y-34346315D01*
X38096751Y-34182537D01*
X38096748Y-34182533D01*
X37957466Y-34043251D01*
X37957462Y-34043248D01*
X37793684Y-33933814D01*
X37793671Y-33933807D01*
X37611691Y-33858429D01*
X37611683Y-33858427D01*
X37570000Y-33850135D01*
X37570000Y-34653011D01*
X37560060Y-34635795D01*
X37504205Y-34579940D01*
X37435796Y-34540444D01*
X37359496Y-34520000D01*
X37280504Y-34520000D01*
X37204204Y-34540444D01*
X37135795Y-34579940D01*
X37079940Y-34635795D01*
X37070000Y-34653011D01*
X37070000Y-33850136D01*
X37069999Y-33850135D01*
X37028316Y-33858427D01*
X37028308Y-33858429D01*
X36846328Y-33933807D01*
X36846315Y-33933814D01*
X36682537Y-34043248D01*
X36682533Y-34043251D01*
X36543251Y-34182533D01*
X36543248Y-34182537D01*
X36433814Y-34346315D01*
X36433807Y-34346328D01*
X36358430Y-34528306D01*
X36358427Y-34528318D01*
X36320000Y-34721504D01*
X36320000Y-35120000D01*
X37020000Y-35120000D01*
X37020000Y-35620000D01*
X36464464Y-35620000D01*
X36397425Y-35600315D01*
X36357077Y-35558000D01*
X36350517Y-35546638D01*
X36350513Y-35546633D01*
X36243367Y-35439487D01*
X36243365Y-35439485D01*
X36168499Y-35396261D01*
X36112136Y-35363719D01*
X36038950Y-35344109D01*
X35965766Y-35324500D01*
X35814234Y-35324500D01*
X35667865Y-35363719D01*
X35667864Y-35363719D01*
X35667862Y-35363720D01*
X35667861Y-35363720D01*
X35611500Y-35396261D01*
X35543600Y-35412734D01*
X35477573Y-35389882D01*
X35434383Y-35334960D01*
X35425500Y-35288874D01*
X35425500Y-34919868D01*
X35445185Y-34852829D01*
X35497989Y-34807074D01*
X35517395Y-34800097D01*
X35643186Y-34766392D01*
X35757314Y-34700500D01*
X35850500Y-34607314D01*
X35916392Y-34493186D01*
X35950500Y-34365892D01*
X35950500Y-33767334D01*
X35967113Y-33705334D01*
X36009577Y-33631784D01*
X36050500Y-33479057D01*
X36050500Y-33320943D01*
X36009577Y-33168216D01*
X36009573Y-33168209D01*
X35930524Y-33031290D01*
X35930518Y-33031282D01*
X35818717Y-32919481D01*
X35818709Y-32919475D01*
X35681790Y-32840426D01*
X35681786Y-32840424D01*
X35681784Y-32840423D01*
X35529057Y-32799500D01*
X35370943Y-32799500D01*
X35218216Y-32840423D01*
X35218209Y-32840426D01*
X35081290Y-32919475D01*
X35081282Y-32919481D01*
X34969481Y-33031282D01*
X34969475Y-33031290D01*
X34890426Y-33168209D01*
X34890423Y-33168216D01*
X34849500Y-33320943D01*
X34849500Y-33479057D01*
X34868894Y-33551438D01*
X34892527Y-33639635D01*
X34890190Y-33640260D01*
X34896342Y-33697528D01*
X34865061Y-33760004D01*
X34804969Y-33795651D01*
X34774314Y-33799500D01*
X31225686Y-33799500D01*
X31158647Y-33779815D01*
X31112892Y-33727011D01*
X31102948Y-33657853D01*
X31107912Y-33639752D01*
X31107473Y-33639635D01*
X31109636Y-33631562D01*
X31150500Y-33479057D01*
X31150500Y-33320943D01*
X31109577Y-33168216D01*
X31109573Y-33168209D01*
X31030524Y-33031290D01*
X31030518Y-33031282D01*
X30918717Y-32919481D01*
X30918709Y-32919475D01*
X30781790Y-32840426D01*
X30781786Y-32840424D01*
X30781784Y-32840423D01*
X30629057Y-32799500D01*
X30470943Y-32799500D01*
X30318216Y-32840423D01*
X30318209Y-32840426D01*
X30181290Y-32919475D01*
X30181282Y-32919481D01*
X30069481Y-33031282D01*
X30069475Y-33031290D01*
X29990426Y-33168209D01*
X29990423Y-33168216D01*
X29949500Y-33320943D01*
X22327751Y-33320943D01*
X22328562Y-33320475D01*
X22349396Y-33299640D01*
X22357120Y-33294552D01*
X22360543Y-33289759D01*
X22376515Y-33281776D01*
X22391130Y-33272149D01*
X22400277Y-33268500D01*
X22401436Y-33268500D01*
X22468373Y-33250564D01*
X22496938Y-33242910D01*
X22582562Y-33193475D01*
X22608774Y-33167262D01*
X22614754Y-33162593D01*
X22634045Y-33154946D01*
X22658979Y-33140550D01*
X22697631Y-33130193D01*
X22722375Y-33123564D01*
X22739852Y-33118880D01*
X22750938Y-33115910D01*
X22836562Y-33066475D01*
X22852218Y-33050819D01*
X22874105Y-33038867D01*
X22893697Y-33023429D01*
X22907134Y-33020831D01*
X22913541Y-33017334D01*
X22927988Y-33015073D01*
X22933926Y-33014500D01*
X22937564Y-33014500D01*
X23036436Y-33014500D01*
X23084186Y-33001705D01*
X23131938Y-32988910D01*
X23217562Y-32939475D01*
X23238394Y-32918642D01*
X23293976Y-32886551D01*
X23385938Y-32861910D01*
X23471564Y-32812474D01*
X23492395Y-32791641D01*
X23547981Y-32759548D01*
X23590847Y-32748063D01*
X23625349Y-32738818D01*
X23639933Y-32734911D01*
X23639933Y-32734910D01*
X23639936Y-32734910D01*
X23725562Y-32685474D01*
X23746393Y-32664642D01*
X23760276Y-32656627D01*
X23769533Y-32646444D01*
X23801975Y-32632551D01*
X23865384Y-32615561D01*
X23893938Y-32607910D01*
X23979562Y-32558475D01*
X24000394Y-32537642D01*
X24055976Y-32505551D01*
X24147938Y-32480910D01*
X24233564Y-32431474D01*
X24249218Y-32415820D01*
X24271179Y-32403826D01*
X24290850Y-32388368D01*
X24304195Y-32385797D01*
X24310540Y-32382333D01*
X24325151Y-32380057D01*
X24331013Y-32379499D01*
X24334563Y-32379499D01*
X24433434Y-32379499D01*
X24433435Y-32379499D01*
X24479847Y-32367063D01*
X24517765Y-32356903D01*
X24528933Y-32353911D01*
X24528933Y-32353910D01*
X24528936Y-32353910D01*
X24614562Y-32304474D01*
X24635393Y-32283642D01*
X24649276Y-32275627D01*
X24658533Y-32265444D01*
X24690975Y-32251551D01*
X24754384Y-32234561D01*
X24782938Y-32226910D01*
X24868562Y-32177475D01*
X24889395Y-32156641D01*
X24944979Y-32124550D01*
X24983631Y-32114193D01*
X25008375Y-32107564D01*
X25034034Y-32100688D01*
X25036938Y-32099910D01*
X25122562Y-32050475D01*
X25143395Y-32029641D01*
X25198981Y-31997550D01*
X25230200Y-31989185D01*
X25259689Y-31981284D01*
X25281650Y-31975398D01*
X25290938Y-31972910D01*
X25376562Y-31923475D01*
X25397395Y-31902641D01*
X25452981Y-31870550D01*
X25477384Y-31864011D01*
X25511823Y-31854784D01*
X25535096Y-31848547D01*
X25544938Y-31845910D01*
X25630562Y-31796475D01*
X25646218Y-31780819D01*
X25668105Y-31768867D01*
X25687697Y-31753429D01*
X25701134Y-31750831D01*
X25707541Y-31747334D01*
X25721988Y-31745073D01*
X25727926Y-31744500D01*
X25731564Y-31744500D01*
X25830436Y-31744500D01*
X25878186Y-31731705D01*
X25925938Y-31718910D01*
X26011562Y-31669475D01*
X26032395Y-31648641D01*
X26087981Y-31616550D01*
X26112384Y-31610011D01*
X26146823Y-31600784D01*
X26173086Y-31593746D01*
X26179938Y-31591910D01*
X26265562Y-31542475D01*
X26286394Y-31521642D01*
X26300277Y-31513626D01*
X26309533Y-31503445D01*
X26341972Y-31489553D01*
X26341975Y-31489551D01*
X26386186Y-31477705D01*
X26433938Y-31464910D01*
X26519562Y-31415475D01*
X26540394Y-31394642D01*
X26554277Y-31386626D01*
X26563533Y-31376445D01*
X26595972Y-31362553D01*
X26595975Y-31362551D01*
X26640186Y-31350705D01*
X26687938Y-31337910D01*
X26773562Y-31288475D01*
X26794394Y-31267642D01*
X26808277Y-31259626D01*
X26817533Y-31249445D01*
X26849972Y-31235553D01*
X26849975Y-31235551D01*
X26894186Y-31223705D01*
X26941938Y-31210910D01*
X27027562Y-31161475D01*
X27048394Y-31140642D01*
X27062277Y-31132626D01*
X27071533Y-31122445D01*
X27103972Y-31108553D01*
X27103975Y-31108551D01*
X27148186Y-31096705D01*
X27195938Y-31083910D01*
X27281562Y-31034475D01*
X27351475Y-30964562D01*
X28440218Y-29875819D01*
X28501541Y-29842334D01*
X28527899Y-29839500D01*
X29513434Y-29839500D01*
X29513436Y-29839500D01*
X29564937Y-29825700D01*
X29575821Y-29822784D01*
X29590420Y-29818871D01*
X29608938Y-29813910D01*
X29694562Y-29764475D01*
X29764475Y-29694562D01*
X29837218Y-29621819D01*
X29898541Y-29588334D01*
X29924899Y-29585500D01*
X31781140Y-29585500D01*
X31848179Y-29605185D01*
X31893934Y-29657989D01*
X31903878Y-29727147D01*
X31892422Y-29760245D01*
X31893534Y-29760706D01*
X31890423Y-29768216D01*
X31849500Y-29920943D01*
X31849500Y-30079057D01*
X31868664Y-30150576D01*
X31890423Y-30231783D01*
X31890426Y-30231790D01*
X31969475Y-30368709D01*
X31969479Y-30368715D01*
X31969480Y-30368716D01*
X32081284Y-30480520D01*
X32081286Y-30480521D01*
X32081290Y-30480524D01*
X32134233Y-30511090D01*
X32218216Y-30559577D01*
X32370943Y-30600500D01*
X32370945Y-30600500D01*
X32496700Y-30600500D01*
X32563739Y-30620185D01*
X32609494Y-30672989D01*
X32616473Y-30692402D01*
X32635950Y-30765089D01*
X32640423Y-30781783D01*
X32640426Y-30781790D01*
X32719475Y-30918709D01*
X32719479Y-30918714D01*
X32719480Y-30918716D01*
X32831284Y-31030520D01*
X32831286Y-31030521D01*
X32831290Y-31030524D01*
X32968209Y-31109574D01*
X32968213Y-31109575D01*
X32968216Y-31109577D01*
X33005184Y-31119482D01*
X33064843Y-31155845D01*
X33085216Y-31186305D01*
X33186169Y-31400088D01*
X33483625Y-32029997D01*
X33494451Y-32099023D01*
X33491273Y-32115038D01*
X33449500Y-32270941D01*
X33449500Y-32270942D01*
X33449500Y-32270943D01*
X33449500Y-32429057D01*
X33484178Y-32558475D01*
X33490423Y-32581783D01*
X33490426Y-32581790D01*
X33569475Y-32718709D01*
X33569479Y-32718714D01*
X33569480Y-32718716D01*
X33681284Y-32830520D01*
X33681286Y-32830521D01*
X33681290Y-32830524D01*
X33779977Y-32887500D01*
X33818216Y-32909577D01*
X33970943Y-32950500D01*
X33970945Y-32950500D01*
X34129055Y-32950500D01*
X34129057Y-32950500D01*
X34281784Y-32909577D01*
X34418716Y-32830520D01*
X34530520Y-32718716D01*
X34609577Y-32581784D01*
X34650500Y-32429057D01*
X34650500Y-32270943D01*
X34609577Y-32118216D01*
X34590126Y-32084525D01*
X34530524Y-31981290D01*
X34530518Y-31981282D01*
X34418717Y-31869481D01*
X34418709Y-31869475D01*
X34281790Y-31790426D01*
X34281786Y-31790424D01*
X34281784Y-31790423D01*
X34281782Y-31790422D01*
X34281779Y-31790421D01*
X34244813Y-31780516D01*
X34185153Y-31744151D01*
X34164783Y-31713694D01*
X33766372Y-30870000D01*
X33755547Y-30800976D01*
X33758725Y-30784959D01*
X33759574Y-30781788D01*
X33759577Y-30781784D01*
X33800500Y-30629057D01*
X33800500Y-30470943D01*
X33759577Y-30318216D01*
X33717595Y-30245500D01*
X33680524Y-30181290D01*
X33680518Y-30181282D01*
X33568717Y-30069481D01*
X33568709Y-30069475D01*
X33431790Y-29990426D01*
X33431785Y-29990423D01*
X33382998Y-29977351D01*
X33292134Y-29953004D01*
X33232476Y-29916640D01*
X33201947Y-29853793D01*
X33210242Y-29784417D01*
X33236635Y-29745462D01*
X34798551Y-28186728D01*
X34859909Y-28153307D01*
X34886143Y-28150500D01*
X34984055Y-28150500D01*
X34984057Y-28150500D01*
X35136784Y-28109577D01*
X35273716Y-28030520D01*
X35385520Y-27918716D01*
X35464577Y-27781784D01*
X35505500Y-27629057D01*
X35505500Y-27470943D01*
X35464577Y-27318216D01*
X35410817Y-27225100D01*
X35385524Y-27181290D01*
X35385518Y-27181282D01*
X35273717Y-27069481D01*
X35273709Y-27069475D01*
X35136790Y-26990426D01*
X35136786Y-26990424D01*
X35136784Y-26990423D01*
X34984057Y-26949500D01*
X34825943Y-26949500D01*
X34673216Y-26990423D01*
X34673209Y-26990426D01*
X34536290Y-27069475D01*
X34536282Y-27069481D01*
X34424481Y-27181282D01*
X34424475Y-27181290D01*
X34345426Y-27318209D01*
X34345423Y-27318216D01*
X34304500Y-27470943D01*
X34304500Y-27567342D01*
X34284815Y-27634381D01*
X34268092Y-27655113D01*
X32556449Y-29363271D01*
X32531163Y-29377044D01*
X32507438Y-29393345D01*
X32498670Y-29394743D01*
X32495092Y-29396693D01*
X32472675Y-29399441D01*
X32470760Y-29399500D01*
X32370943Y-29399500D01*
X32357977Y-29402973D01*
X32343596Y-29403417D01*
X32323140Y-29398089D01*
X32302010Y-29397584D01*
X32290008Y-29389459D01*
X32275982Y-29385806D01*
X32261654Y-29370265D01*
X32244151Y-29358416D01*
X32238446Y-29345091D01*
X32228623Y-29334436D01*
X32224972Y-29313617D01*
X32216653Y-29294185D01*
X32218814Y-29278499D01*
X32216555Y-29265616D01*
X32222559Y-29251318D01*
X32225219Y-29232018D01*
X32226903Y-29227949D01*
X32226910Y-29227938D01*
X32244169Y-29163526D01*
X32252500Y-29132436D01*
X32252500Y-29033564D01*
X32252500Y-25606899D01*
X32272185Y-25539860D01*
X32288819Y-25519218D01*
X33447472Y-24360565D01*
X33447474Y-24360563D01*
X33458305Y-24341803D01*
X33463722Y-24332422D01*
X33496908Y-24274941D01*
X33496907Y-24274941D01*
X33496910Y-24274938D01*
X33522500Y-24179435D01*
X33522500Y-22810565D01*
X33512572Y-22773515D01*
X33496910Y-22715063D01*
X33496910Y-22715062D01*
X33447475Y-22629438D01*
X33377562Y-22559525D01*
X33250563Y-22432526D01*
X33250562Y-22432525D01*
X33164938Y-22383090D01*
X33117186Y-22370295D01*
X33117184Y-22370294D01*
X33117182Y-22370293D01*
X33069436Y-22357500D01*
X33069435Y-22357500D01*
X31799436Y-22357500D01*
X31700564Y-22357500D01*
X31652812Y-22370295D01*
X31652811Y-22370294D01*
X31605063Y-22383089D01*
X31605062Y-22383089D01*
X31519435Y-22432527D01*
X31519430Y-22432533D01*
X31437435Y-22514527D01*
X31376111Y-22548011D01*
X31317663Y-22546620D01*
X31194057Y-22513500D01*
X31035943Y-22513500D01*
X30883216Y-22554423D01*
X30883209Y-22554426D01*
X30746290Y-22633475D01*
X30746282Y-22633481D01*
X30634481Y-22745282D01*
X30634475Y-22745290D01*
X30555426Y-22882209D01*
X30555423Y-22882216D01*
X30514500Y-23034943D01*
X30514500Y-23193056D01*
X30555423Y-23345783D01*
X30555426Y-23345790D01*
X30634475Y-23482709D01*
X30634479Y-23482714D01*
X30634480Y-23482716D01*
X30746284Y-23594520D01*
X30746286Y-23594521D01*
X30746290Y-23594524D01*
X30882345Y-23673074D01*
X30883216Y-23673577D01*
X31035943Y-23714500D01*
X31035945Y-23714500D01*
X31194054Y-23714500D01*
X31194057Y-23714500D01*
X31346784Y-23673577D01*
X31346788Y-23673574D01*
X31348656Y-23673074D01*
X31418506Y-23674737D01*
X31476369Y-23713899D01*
X31503873Y-23778127D01*
X31492287Y-23847030D01*
X31468431Y-23880530D01*
X29868438Y-25480525D01*
X29798527Y-25550435D01*
X29749089Y-25636062D01*
X29749087Y-25636068D01*
X29747946Y-25640327D01*
X29715855Y-25695909D01*
X29618478Y-25793286D01*
X29618475Y-25793290D01*
X29539426Y-25930209D01*
X29539423Y-25930216D01*
X29498500Y-26082943D01*
X29498500Y-26241056D01*
X29539925Y-26395658D01*
X29538262Y-26465508D01*
X29499099Y-26523370D01*
X29434871Y-26550874D01*
X29365968Y-26539287D01*
X29332469Y-26515432D01*
X23057980Y-20240943D01*
X41436500Y-20240943D01*
X41436500Y-20399057D01*
X41473723Y-20537973D01*
X41477423Y-20551783D01*
X41477426Y-20551790D01*
X41556475Y-20688709D01*
X41556479Y-20688714D01*
X41556480Y-20688716D01*
X41668284Y-20800520D01*
X41668286Y-20800521D01*
X41668290Y-20800524D01*
X41805209Y-20879573D01*
X41805216Y-20879577D01*
X41957943Y-20920500D01*
X41957945Y-20920500D01*
X42116055Y-20920500D01*
X42116057Y-20920500D01*
X42268784Y-20879577D01*
X42405716Y-20800520D01*
X42517520Y-20688716D01*
X42596577Y-20551784D01*
X42637500Y-20399057D01*
X42637500Y-20240943D01*
X42599897Y-20100606D01*
X42600432Y-20078136D01*
X42596301Y-20056038D01*
X42601329Y-20040460D01*
X42601560Y-20030760D01*
X42604814Y-20021786D01*
X42608020Y-20013903D01*
X42640910Y-19956938D01*
X42657640Y-19894500D01*
X42665551Y-19864975D01*
X42697643Y-19809393D01*
X42718474Y-19788563D01*
X42718475Y-19788562D01*
X42767910Y-19702938D01*
X42772414Y-19686127D01*
X42782118Y-19649916D01*
X42792550Y-19610981D01*
X42824644Y-19555392D01*
X42845474Y-19534563D01*
X42845475Y-19534562D01*
X42894910Y-19448938D01*
X42899075Y-19433393D01*
X42908048Y-19399909D01*
X42919550Y-19356980D01*
X42951644Y-19301392D01*
X42972474Y-19280563D01*
X42972475Y-19280562D01*
X43021910Y-19194938D01*
X43026075Y-19179393D01*
X43035048Y-19145909D01*
X43044804Y-19109496D01*
X43047500Y-19099436D01*
X43047500Y-19002899D01*
X43067185Y-18935860D01*
X43083819Y-18915218D01*
X43088897Y-18910140D01*
X43099474Y-18899563D01*
X43099475Y-18899562D01*
X43148910Y-18813938D01*
X43173550Y-18721978D01*
X43205643Y-18666393D01*
X43226474Y-18645563D01*
X43226475Y-18645562D01*
X43275910Y-18559938D01*
X43280075Y-18544393D01*
X43289048Y-18510909D01*
X43300550Y-18467980D01*
X43311623Y-18440407D01*
X43320131Y-18424905D01*
X43353474Y-18391563D01*
X43353475Y-18391562D01*
X43402910Y-18305938D01*
X43415705Y-18258186D01*
X43427550Y-18213980D01*
X43459642Y-18158394D01*
X44338114Y-17279921D01*
X44348647Y-17274170D01*
X44356290Y-17264914D01*
X44378744Y-17257735D01*
X44399435Y-17246438D01*
X44413071Y-17246762D01*
X44422842Y-17243639D01*
X44457879Y-17247827D01*
X44479813Y-17253705D01*
X44524022Y-17265550D01*
X44524072Y-17265581D01*
X44579606Y-17297643D01*
X44600438Y-17318475D01*
X44686062Y-17367910D01*
X44733810Y-17380705D01*
X44765870Y-17389294D01*
X44778016Y-17392549D01*
X44833606Y-17424643D01*
X44854438Y-17445475D01*
X44940062Y-17494910D01*
X44987810Y-17507705D01*
X45019870Y-17516294D01*
X45032016Y-17519549D01*
X45087606Y-17551643D01*
X45108438Y-17572475D01*
X45194062Y-17621910D01*
X45241810Y-17634705D01*
X45273870Y-17643294D01*
X45286016Y-17646549D01*
X45341606Y-17678643D01*
X45362438Y-17699475D01*
X45448062Y-17748910D01*
X45495811Y-17761705D01*
X45495812Y-17761705D01*
X45505903Y-17764408D01*
X45543564Y-17774500D01*
X45543565Y-17774500D01*
X45640101Y-17774500D01*
X45707140Y-17794185D01*
X45727782Y-17810819D01*
X47773205Y-19856242D01*
X47806690Y-19917565D01*
X47801706Y-19987257D01*
X47796010Y-20000216D01*
X47763094Y-20064818D01*
X47687678Y-20296926D01*
X47687678Y-20296927D01*
X47649500Y-20537973D01*
X47649500Y-20782026D01*
X47687678Y-21023072D01*
X47763097Y-21255187D01*
X47873896Y-21472642D01*
X48017339Y-21670076D01*
X48017343Y-21670081D01*
X48189918Y-21842656D01*
X48189923Y-21842660D01*
X48362136Y-21967779D01*
X48387361Y-21986106D01*
X48604815Y-22096904D01*
X48836924Y-22172321D01*
X49077973Y-22210500D01*
X49077974Y-22210500D01*
X49322026Y-22210500D01*
X49322027Y-22210500D01*
X49563076Y-22172321D01*
X49795185Y-22096904D01*
X50012639Y-21986106D01*
X50210083Y-21842655D01*
X50382655Y-21670083D01*
X50526106Y-21472639D01*
X50636904Y-21255185D01*
X50712321Y-21023076D01*
X50750500Y-20782027D01*
X50750500Y-20537973D01*
X50712321Y-20296924D01*
X50636904Y-20064815D01*
X50526106Y-19847361D01*
X50462630Y-19759993D01*
X50382657Y-19649919D01*
X50210081Y-19477343D01*
X50210076Y-19477339D01*
X50012642Y-19333896D01*
X50012641Y-19333895D01*
X50012639Y-19333894D01*
X49795185Y-19223096D01*
X49563076Y-19147679D01*
X49563074Y-19147678D01*
X49563072Y-19147678D01*
X49394769Y-19121021D01*
X49322027Y-19109500D01*
X49077973Y-19109500D01*
X49022093Y-19118350D01*
X48836927Y-19147678D01*
X48604812Y-19223097D01*
X48499353Y-19276831D01*
X48418324Y-19318117D01*
X48349657Y-19331013D01*
X48284916Y-19304737D01*
X48274350Y-19295313D01*
X46077563Y-17098526D01*
X46077562Y-17098525D01*
X45991938Y-17049090D01*
X45965617Y-17042037D01*
X45952864Y-17038620D01*
X45952862Y-17038619D01*
X45942850Y-17035937D01*
X45896436Y-17023500D01*
X45896435Y-17023500D01*
X45794011Y-17023500D01*
X45788149Y-17022942D01*
X45760956Y-17012065D01*
X45732860Y-17003815D01*
X45725496Y-16997881D01*
X45723276Y-16996993D01*
X45721768Y-16994876D01*
X45712218Y-16987181D01*
X45696563Y-16971526D01*
X45696562Y-16971525D01*
X45610938Y-16922090D01*
X45551285Y-16906106D01*
X45551283Y-16906105D01*
X45518977Y-16897448D01*
X45463392Y-16865355D01*
X45442563Y-16844526D01*
X45442562Y-16844525D01*
X45356938Y-16795090D01*
X45309186Y-16782295D01*
X45309184Y-16782294D01*
X45264977Y-16770448D01*
X45264959Y-16770437D01*
X45209392Y-16738355D01*
X45188563Y-16717526D01*
X45188562Y-16717525D01*
X45102938Y-16668090D01*
X45055186Y-16655295D01*
X45055184Y-16655294D01*
X45010977Y-16643448D01*
X45010959Y-16643437D01*
X44955392Y-16611355D01*
X44934563Y-16590526D01*
X44934562Y-16590525D01*
X44848938Y-16541090D01*
X44801186Y-16528295D01*
X44801183Y-16528294D01*
X44801181Y-16528293D01*
X44795270Y-16526709D01*
X44790404Y-16525405D01*
X44790403Y-16525404D01*
X44790401Y-16525404D01*
X44759686Y-16506680D01*
X44730744Y-16489039D01*
X44730743Y-16489037D01*
X44730742Y-16489037D01*
X44713372Y-16453275D01*
X44700216Y-16426191D01*
X44698500Y-16405631D01*
X44698500Y-15457973D01*
X47649500Y-15457973D01*
X47649500Y-15702026D01*
X47687678Y-15943072D01*
X47763097Y-16175187D01*
X47873896Y-16392642D01*
X48017339Y-16590076D01*
X48017343Y-16590081D01*
X48189918Y-16762656D01*
X48189923Y-16762660D01*
X48302603Y-16844526D01*
X48387361Y-16906106D01*
X48604815Y-17016904D01*
X48836924Y-17092321D01*
X49077973Y-17130500D01*
X49077974Y-17130500D01*
X49322026Y-17130500D01*
X49322027Y-17130500D01*
X49563076Y-17092321D01*
X49795185Y-17016904D01*
X50012639Y-16906106D01*
X50210083Y-16762655D01*
X50382655Y-16590083D01*
X50526106Y-16392639D01*
X50636904Y-16175185D01*
X50712321Y-15943076D01*
X50750500Y-15702027D01*
X50750500Y-15457973D01*
X50712321Y-15216924D01*
X50636904Y-14984815D01*
X50526106Y-14767361D01*
X50507779Y-14742136D01*
X50382660Y-14569923D01*
X50382656Y-14569918D01*
X50210081Y-14397343D01*
X50210076Y-14397339D01*
X50012642Y-14253896D01*
X50012641Y-14253895D01*
X50012639Y-14253894D01*
X49795185Y-14143096D01*
X49563076Y-14067679D01*
X49563074Y-14067678D01*
X49563072Y-14067678D01*
X49394769Y-14041021D01*
X49322027Y-14029500D01*
X49077973Y-14029500D01*
X49022093Y-14038350D01*
X48836927Y-14067678D01*
X48604812Y-14143097D01*
X48387357Y-14253896D01*
X48189923Y-14397339D01*
X48189918Y-14397343D01*
X48017343Y-14569918D01*
X48017339Y-14569923D01*
X47873896Y-14767357D01*
X47763097Y-14984812D01*
X47687678Y-15216927D01*
X47649500Y-15457973D01*
X44698500Y-15457973D01*
X44698500Y-15446899D01*
X44718185Y-15379860D01*
X44734819Y-15359218D01*
X44739328Y-15354709D01*
X44750474Y-15343563D01*
X44760334Y-15326485D01*
X44799910Y-15257938D01*
X44825500Y-15162435D01*
X44825500Y-9400013D01*
X47400000Y-9400013D01*
X47400000Y-10250000D01*
X48599999Y-10250000D01*
X48574979Y-10310402D01*
X48550000Y-10435981D01*
X48550000Y-10564019D01*
X48574979Y-10689598D01*
X48599999Y-10750000D01*
X47400001Y-10750000D01*
X47400001Y-11599986D01*
X47410494Y-11702697D01*
X47465641Y-11869119D01*
X47465643Y-11869124D01*
X47557684Y-12018345D01*
X47681654Y-12142315D01*
X47830875Y-12234356D01*
X47830880Y-12234358D01*
X47997302Y-12289505D01*
X47997309Y-12289506D01*
X48100019Y-12299999D01*
X48949999Y-12299999D01*
X48950000Y-12299998D01*
X48950000Y-11100001D01*
X49010402Y-11125021D01*
X49135981Y-11150000D01*
X49264019Y-11150000D01*
X49389598Y-11125021D01*
X49450000Y-11100001D01*
X49450000Y-12299999D01*
X50299972Y-12299999D01*
X50299986Y-12299998D01*
X50402697Y-12289505D01*
X50569119Y-12234358D01*
X50569124Y-12234356D01*
X50718345Y-12142315D01*
X50842315Y-12018345D01*
X50934356Y-11869124D01*
X50934358Y-11869119D01*
X50989505Y-11702697D01*
X50989506Y-11702690D01*
X50999999Y-11599986D01*
X51000000Y-11599973D01*
X51000000Y-10750000D01*
X49800001Y-10750000D01*
X49825021Y-10689598D01*
X49850000Y-10564019D01*
X49850000Y-10435981D01*
X49825021Y-10310402D01*
X49800001Y-10250000D01*
X50999999Y-10250000D01*
X50999999Y-9400028D01*
X50999998Y-9400013D01*
X50989505Y-9297302D01*
X50934358Y-9130880D01*
X50934356Y-9130875D01*
X50842315Y-8981654D01*
X50718345Y-8857684D01*
X50569124Y-8765643D01*
X50569119Y-8765641D01*
X50402697Y-8710494D01*
X50402690Y-8710493D01*
X50299986Y-8700000D01*
X49450000Y-8700000D01*
X49450000Y-9899998D01*
X49389598Y-9874979D01*
X49264019Y-9850000D01*
X49135981Y-9850000D01*
X49010402Y-9874979D01*
X48950000Y-9899998D01*
X48950000Y-8700000D01*
X48100028Y-8700000D01*
X48100012Y-8700001D01*
X47997302Y-8710494D01*
X47830880Y-8765641D01*
X47830875Y-8765643D01*
X47681654Y-8857684D01*
X47557684Y-8981654D01*
X47465643Y-9130875D01*
X47465641Y-9130880D01*
X47410494Y-9297302D01*
X47410493Y-9297309D01*
X47400000Y-9400013D01*
X44825500Y-9400013D01*
X44825500Y-4462098D01*
X44845185Y-4395059D01*
X44861819Y-4374417D01*
X44861820Y-4374416D01*
X44930520Y-4305716D01*
X45009577Y-4168784D01*
X45050500Y-4016057D01*
X45050500Y-3857943D01*
X45009577Y-3705216D01*
X44961122Y-3621288D01*
X44930524Y-3568290D01*
X44930518Y-3568282D01*
X44818717Y-3456481D01*
X44818709Y-3456475D01*
X44684016Y-3378711D01*
X49649500Y-3378711D01*
X49649500Y-3621288D01*
X49681161Y-3861785D01*
X49743947Y-4096104D01*
X49830772Y-4305717D01*
X49836776Y-4320212D01*
X49958064Y-4530289D01*
X49958066Y-4530292D01*
X49958067Y-4530293D01*
X50105733Y-4722736D01*
X50105739Y-4722743D01*
X50277256Y-4894260D01*
X50277262Y-4894265D01*
X50469711Y-5041936D01*
X50679788Y-5163224D01*
X50903900Y-5256054D01*
X51138211Y-5318838D01*
X51318586Y-5342584D01*
X51378711Y-5350500D01*
X51378712Y-5350500D01*
X51621289Y-5350500D01*
X51669388Y-5344167D01*
X51861789Y-5318838D01*
X52096100Y-5256054D01*
X52320212Y-5163224D01*
X52530289Y-5041936D01*
X52722738Y-4894265D01*
X52894265Y-4722738D01*
X53041936Y-4530289D01*
X53163224Y-4320212D01*
X53256054Y-4096100D01*
X53318838Y-3861789D01*
X53350500Y-3621288D01*
X53350500Y-3378712D01*
X53318838Y-3138211D01*
X53256054Y-2903900D01*
X53163224Y-2679788D01*
X53041936Y-2469711D01*
X52894265Y-2277262D01*
X52894260Y-2277256D01*
X52722743Y-2105739D01*
X52722736Y-2105733D01*
X52530293Y-1958067D01*
X52530292Y-1958066D01*
X52530289Y-1958064D01*
X52320212Y-1836776D01*
X52320205Y-1836773D01*
X52096104Y-1743947D01*
X51861785Y-1681161D01*
X51621289Y-1649500D01*
X51621288Y-1649500D01*
X51378712Y-1649500D01*
X51378711Y-1649500D01*
X51138214Y-1681161D01*
X50903895Y-1743947D01*
X50679794Y-1836773D01*
X50679785Y-1836777D01*
X50469706Y-1958067D01*
X50277263Y-2105733D01*
X50277256Y-2105739D01*
X50105739Y-2277256D01*
X50105733Y-2277263D01*
X49958067Y-2469706D01*
X49836777Y-2679785D01*
X49836773Y-2679794D01*
X49743947Y-2903895D01*
X49681161Y-3138214D01*
X49649500Y-3378711D01*
X44684016Y-3378711D01*
X44681790Y-3377426D01*
X44681786Y-3377424D01*
X44681784Y-3377423D01*
X44529057Y-3336500D01*
X44370943Y-3336500D01*
X44218216Y-3377423D01*
X44218209Y-3377426D01*
X44081290Y-3456475D01*
X44081282Y-3456481D01*
X43969481Y-3568282D01*
X43969475Y-3568290D01*
X43890426Y-3705209D01*
X43890423Y-3705216D01*
X43849500Y-3857943D01*
X43849500Y-4016057D01*
X43870949Y-4096104D01*
X43890423Y-4168783D01*
X43890426Y-4168790D01*
X43969476Y-4305711D01*
X43969479Y-4305715D01*
X44038181Y-4374416D01*
X44071666Y-4435739D01*
X44074500Y-4462098D01*
X44074500Y-10168500D01*
X44054815Y-10235539D01*
X44002011Y-10281294D01*
X43950500Y-10292500D01*
X43197098Y-10292500D01*
X43130059Y-10272815D01*
X43109417Y-10256181D01*
X43040717Y-10187481D01*
X43040709Y-10187475D01*
X42903790Y-10108426D01*
X42903786Y-10108424D01*
X42903784Y-10108423D01*
X42751057Y-10067500D01*
X42592943Y-10067500D01*
X42440216Y-10108423D01*
X42440209Y-10108426D01*
X42303290Y-10187475D01*
X42303282Y-10187481D01*
X42191481Y-10299282D01*
X42191475Y-10299290D01*
X42112426Y-10436209D01*
X42112423Y-10436216D01*
X42071500Y-10588943D01*
X42071500Y-10747057D01*
X42111505Y-10896356D01*
X42112423Y-10899783D01*
X42112426Y-10899790D01*
X42191475Y-11036709D01*
X42191479Y-11036714D01*
X42191480Y-11036716D01*
X42303284Y-11148520D01*
X42303286Y-11148521D01*
X42303290Y-11148524D01*
X42404731Y-11207090D01*
X42440216Y-11227577D01*
X42592943Y-11268500D01*
X42592945Y-11268500D01*
X42751055Y-11268500D01*
X42751057Y-11268500D01*
X42903784Y-11227577D01*
X43040716Y-11148520D01*
X43109417Y-11079819D01*
X43170740Y-11046334D01*
X43197098Y-11043500D01*
X43950500Y-11043500D01*
X44017539Y-11063185D01*
X44063294Y-11115989D01*
X44074500Y-11167500D01*
X44074500Y-14906101D01*
X44054815Y-14973140D01*
X44038181Y-14993782D01*
X44022526Y-15009436D01*
X43973091Y-15095059D01*
X43973091Y-15095060D01*
X43973090Y-15095062D01*
X43947500Y-15190565D01*
X43947500Y-15190567D01*
X43947500Y-16557101D01*
X43927815Y-16624140D01*
X43911181Y-16644782D01*
X42752526Y-17803436D01*
X42703091Y-17889059D01*
X42703090Y-17889060D01*
X42678450Y-17981019D01*
X42646358Y-18036605D01*
X42625525Y-18057438D01*
X42576091Y-18143059D01*
X42576090Y-18143060D01*
X42551450Y-18235019D01*
X42536511Y-18269147D01*
X42529127Y-18280835D01*
X42498525Y-18311438D01*
X42449090Y-18397062D01*
X42449090Y-18397063D01*
X42444214Y-18415258D01*
X42444213Y-18415261D01*
X42431832Y-18461473D01*
X42431830Y-18461479D01*
X42424448Y-18489024D01*
X42392358Y-18544605D01*
X42371525Y-18565438D01*
X42322090Y-18651062D01*
X42322090Y-18651063D01*
X42309638Y-18697537D01*
X42304832Y-18715473D01*
X42304831Y-18715476D01*
X42296500Y-18746564D01*
X42296500Y-18843101D01*
X42276815Y-18910140D01*
X42260181Y-18930782D01*
X42244527Y-18946435D01*
X42244525Y-18946437D01*
X42244525Y-18946438D01*
X42211927Y-19002899D01*
X42195089Y-19032064D01*
X42190865Y-19047828D01*
X42190865Y-19047830D01*
X42174342Y-19109496D01*
X42174340Y-19109503D01*
X42170448Y-19124025D01*
X42138358Y-19179605D01*
X42117525Y-19200438D01*
X42071265Y-19280563D01*
X42068089Y-19286064D01*
X42063865Y-19301829D01*
X42050832Y-19350472D01*
X42050830Y-19350479D01*
X42043448Y-19378024D01*
X42011358Y-19433605D01*
X41990525Y-19454438D01*
X41941090Y-19540062D01*
X41941090Y-19540063D01*
X41928638Y-19586537D01*
X41923832Y-19604473D01*
X41923830Y-19604480D01*
X41916448Y-19632024D01*
X41884358Y-19687604D01*
X41863524Y-19708437D01*
X41863444Y-19708578D01*
X41863343Y-19708673D01*
X41858581Y-19714881D01*
X41857611Y-19714137D01*
X41812871Y-19756787D01*
X41805958Y-19759993D01*
X41668287Y-19839477D01*
X41668282Y-19839481D01*
X41556481Y-19951282D01*
X41556475Y-19951290D01*
X41477426Y-20088209D01*
X41477423Y-20088216D01*
X41436500Y-20240943D01*
X23057980Y-20240943D01*
X16740563Y-13923526D01*
X16740562Y-13923525D01*
X16654938Y-13874090D01*
X16607186Y-13861295D01*
X16607184Y-13861294D01*
X16607182Y-13861293D01*
X16559436Y-13848500D01*
X16559435Y-13848500D01*
X16335899Y-13848500D01*
X16268860Y-13828815D01*
X16248218Y-13812181D01*
X15343563Y-12907526D01*
X15343562Y-12907525D01*
X15257938Y-12858090D01*
X15210186Y-12845295D01*
X15210184Y-12845294D01*
X15210182Y-12845293D01*
X15162436Y-12832500D01*
X15162435Y-12832500D01*
X8969899Y-12832500D01*
X8902860Y-12812815D01*
X8882218Y-12796181D01*
X6097819Y-10011782D01*
X6083115Y-9984854D01*
X6066523Y-9959036D01*
X6065631Y-9952835D01*
X6064334Y-9950459D01*
X6061500Y-9924101D01*
X6061500Y-9826945D01*
X6061500Y-9826943D01*
X16036500Y-9826943D01*
X16036500Y-9985057D01*
X16076505Y-10134356D01*
X16077423Y-10137783D01*
X16077426Y-10137790D01*
X16156475Y-10274709D01*
X16156479Y-10274714D01*
X16156480Y-10274716D01*
X16268284Y-10386520D01*
X16268286Y-10386521D01*
X16268290Y-10386524D01*
X16369731Y-10445090D01*
X16405216Y-10465577D01*
X16557943Y-10506500D01*
X16557945Y-10506500D01*
X16716055Y-10506500D01*
X16716057Y-10506500D01*
X16868784Y-10465577D01*
X17005716Y-10386520D01*
X17074417Y-10317819D01*
X17101344Y-10303115D01*
X17127163Y-10286523D01*
X17133363Y-10285631D01*
X17135740Y-10284334D01*
X17162098Y-10281500D01*
X17192101Y-10281500D01*
X17259140Y-10301185D01*
X17279782Y-10317819D01*
X17295438Y-10333475D01*
X17381062Y-10382910D01*
X17428810Y-10395705D01*
X17460870Y-10404294D01*
X17473016Y-10407549D01*
X17528606Y-10439643D01*
X17549438Y-10460475D01*
X17629154Y-10506499D01*
X17635062Y-10509910D01*
X17682811Y-10522705D01*
X17682812Y-10522705D01*
X17692903Y-10525408D01*
X17730564Y-10535500D01*
X17730565Y-10535500D01*
X17827101Y-10535500D01*
X17894140Y-10555185D01*
X17914782Y-10571819D01*
X17930438Y-10587475D01*
X18016062Y-10636910D01*
X18063810Y-10649705D01*
X18095870Y-10658294D01*
X18108016Y-10661549D01*
X18163606Y-10693643D01*
X18184438Y-10714475D01*
X18270062Y-10763910D01*
X18317810Y-10776705D01*
X18349870Y-10785294D01*
X18362016Y-10788549D01*
X18417606Y-10820643D01*
X18438438Y-10841475D01*
X18524062Y-10890910D01*
X18524066Y-10890911D01*
X18557177Y-10899784D01*
X18557178Y-10899784D01*
X18585701Y-10907426D01*
X18616018Y-10915550D01*
X18671606Y-10947643D01*
X18692438Y-10968475D01*
X18778062Y-11017910D01*
X18825810Y-11030705D01*
X18857870Y-11039294D01*
X18870016Y-11042549D01*
X18925606Y-11074643D01*
X18946438Y-11095475D01*
X19032062Y-11144910D01*
X19079811Y-11157705D01*
X19079812Y-11157705D01*
X19089903Y-11160408D01*
X19127564Y-11170500D01*
X19127565Y-11170500D01*
X19224101Y-11170500D01*
X19291140Y-11190185D01*
X19311782Y-11206819D01*
X19327438Y-11222475D01*
X19407154Y-11268499D01*
X19413062Y-11271910D01*
X19460810Y-11284705D01*
X19492870Y-11293294D01*
X19505016Y-11296549D01*
X19560606Y-11328643D01*
X19581438Y-11349475D01*
X19667062Y-11398910D01*
X19714810Y-11411705D01*
X19746870Y-11420294D01*
X19759016Y-11423549D01*
X19814606Y-11455643D01*
X19835438Y-11476475D01*
X19921062Y-11525910D01*
X19968810Y-11538705D01*
X20000870Y-11547294D01*
X20013016Y-11550549D01*
X20068606Y-11582643D01*
X20089438Y-11603475D01*
X20175062Y-11652910D01*
X20222810Y-11665705D01*
X20254870Y-11674294D01*
X20267016Y-11677549D01*
X20322606Y-11709643D01*
X20343438Y-11730475D01*
X20429062Y-11779910D01*
X20476811Y-11792705D01*
X20476812Y-11792705D01*
X20486903Y-11795408D01*
X20524564Y-11805500D01*
X20524565Y-11805500D01*
X20621101Y-11805500D01*
X20688140Y-11825185D01*
X20708782Y-11841819D01*
X20724438Y-11857475D01*
X20810062Y-11906910D01*
X20857810Y-11919705D01*
X20889870Y-11928294D01*
X20902016Y-11931549D01*
X20957606Y-11963643D01*
X20978438Y-11984475D01*
X21034872Y-12017057D01*
X21064062Y-12033910D01*
X21111810Y-12046705D01*
X21143870Y-12055294D01*
X21156016Y-12058549D01*
X21211606Y-12090643D01*
X21232438Y-12111475D01*
X21318062Y-12160910D01*
X21318066Y-12160911D01*
X21351177Y-12169784D01*
X21351178Y-12169784D01*
X21379701Y-12177426D01*
X21410018Y-12185550D01*
X21465606Y-12217643D01*
X21486438Y-12238475D01*
X21572062Y-12287910D01*
X21619811Y-12300705D01*
X21619812Y-12300705D01*
X21629903Y-12303408D01*
X21667564Y-12313500D01*
X21667565Y-12313500D01*
X33891902Y-12313500D01*
X33958941Y-12333185D01*
X33979583Y-12349819D01*
X34048284Y-12418520D01*
X34048286Y-12418521D01*
X34048290Y-12418524D01*
X34185209Y-12497573D01*
X34185216Y-12497577D01*
X34337943Y-12538500D01*
X34337945Y-12538500D01*
X34496055Y-12538500D01*
X34496057Y-12538500D01*
X34648784Y-12497577D01*
X34785716Y-12418520D01*
X34897520Y-12306716D01*
X34976577Y-12169784D01*
X35017500Y-12017057D01*
X35017500Y-11858943D01*
X34976577Y-11706216D01*
X34917260Y-11603475D01*
X34897524Y-11569290D01*
X34897518Y-11569282D01*
X34785717Y-11457481D01*
X34785709Y-11457475D01*
X34648790Y-11378426D01*
X34648786Y-11378424D01*
X34648784Y-11378423D01*
X34496057Y-11337500D01*
X34337943Y-11337500D01*
X34185216Y-11378423D01*
X34185209Y-11378426D01*
X34048290Y-11457475D01*
X34048282Y-11457481D01*
X33979583Y-11526181D01*
X33918260Y-11559666D01*
X33891902Y-11562500D01*
X21923899Y-11562500D01*
X21865341Y-11547802D01*
X21849181Y-11539144D01*
X21820563Y-11510526D01*
X21820562Y-11510525D01*
X21734938Y-11461090D01*
X21685850Y-11447937D01*
X21672015Y-11444229D01*
X21672010Y-11444227D01*
X21642978Y-11436448D01*
X21587392Y-11404355D01*
X21566563Y-11383526D01*
X21566562Y-11383525D01*
X21480938Y-11334090D01*
X21431850Y-11320937D01*
X21431848Y-11320936D01*
X21388977Y-11309448D01*
X21388959Y-11309437D01*
X21333392Y-11277355D01*
X21312563Y-11256526D01*
X21312562Y-11256525D01*
X21226938Y-11207090D01*
X21177850Y-11193937D01*
X21177848Y-11193936D01*
X21134977Y-11182448D01*
X21134959Y-11182437D01*
X21079392Y-11150355D01*
X21058564Y-11129527D01*
X21058563Y-11129526D01*
X21058562Y-11129525D01*
X20999580Y-11095472D01*
X20972937Y-11080089D01*
X20914768Y-11064502D01*
X20914768Y-11064503D01*
X20877436Y-11054500D01*
X20877435Y-11054500D01*
X20780899Y-11054500D01*
X20713860Y-11034815D01*
X20693218Y-11018181D01*
X20677563Y-11002526D01*
X20677562Y-11002525D01*
X20591940Y-10953091D01*
X20591939Y-10953090D01*
X20503015Y-10929263D01*
X20503015Y-10929262D01*
X20503013Y-10929262D01*
X20499979Y-10928449D01*
X20444393Y-10896356D01*
X20423563Y-10875526D01*
X20423562Y-10875525D01*
X20337938Y-10826090D01*
X20288850Y-10812937D01*
X20288848Y-10812936D01*
X20245977Y-10801448D01*
X20245959Y-10801437D01*
X20190392Y-10769355D01*
X20169563Y-10748526D01*
X20169562Y-10748525D01*
X20083938Y-10699090D01*
X20034850Y-10685937D01*
X20034848Y-10685936D01*
X19991977Y-10674448D01*
X19991959Y-10674437D01*
X19936392Y-10642355D01*
X19915563Y-10621526D01*
X19915562Y-10621525D01*
X19829938Y-10572090D01*
X19780850Y-10558937D01*
X19780848Y-10558936D01*
X19737977Y-10547448D01*
X19737959Y-10547437D01*
X19682392Y-10515355D01*
X19661563Y-10494526D01*
X19661562Y-10494525D01*
X19575938Y-10445090D01*
X19542820Y-10436216D01*
X19536864Y-10434620D01*
X19536862Y-10434619D01*
X19526850Y-10431937D01*
X19480436Y-10419500D01*
X19480435Y-10419500D01*
X19378011Y-10419500D01*
X19372149Y-10418942D01*
X19344956Y-10408065D01*
X19316860Y-10399815D01*
X19309496Y-10393881D01*
X19307276Y-10392993D01*
X19305768Y-10390876D01*
X19296218Y-10383181D01*
X19280564Y-10367527D01*
X19280563Y-10367526D01*
X19280562Y-10367525D01*
X19221580Y-10333472D01*
X19194937Y-10318089D01*
X19136766Y-10302502D01*
X19102978Y-10293448D01*
X19047392Y-10261355D01*
X19026563Y-10240526D01*
X19026562Y-10240525D01*
X18940940Y-10191091D01*
X18940939Y-10191090D01*
X18852015Y-10167263D01*
X18852015Y-10167262D01*
X18852013Y-10167262D01*
X18848979Y-10166449D01*
X18793393Y-10134356D01*
X18772563Y-10113526D01*
X18772562Y-10113525D01*
X18686938Y-10064090D01*
X18637850Y-10050937D01*
X18637848Y-10050936D01*
X18594977Y-10039448D01*
X18594959Y-10039437D01*
X18539392Y-10007355D01*
X18518563Y-9986526D01*
X18518562Y-9986525D01*
X18432938Y-9937090D01*
X18385186Y-9924295D01*
X18385184Y-9924294D01*
X18340977Y-9912448D01*
X18340959Y-9912437D01*
X18285392Y-9880355D01*
X18264564Y-9859527D01*
X18264563Y-9859526D01*
X18264562Y-9859525D01*
X18207479Y-9826568D01*
X18178937Y-9810089D01*
X18120768Y-9794502D01*
X18120768Y-9794503D01*
X18083436Y-9784500D01*
X18083435Y-9784500D01*
X17986899Y-9784500D01*
X17919860Y-9764815D01*
X17899218Y-9748181D01*
X17883563Y-9732526D01*
X17883562Y-9732525D01*
X17820882Y-9696337D01*
X17797940Y-9683091D01*
X17797939Y-9683090D01*
X17709015Y-9659263D01*
X17709015Y-9659262D01*
X17709013Y-9659262D01*
X17705979Y-9658449D01*
X17650393Y-9626356D01*
X17629564Y-9605527D01*
X17629563Y-9605526D01*
X17629562Y-9605525D01*
X17572479Y-9572568D01*
X17543937Y-9556089D01*
X17485768Y-9540502D01*
X17485768Y-9540503D01*
X17448436Y-9530500D01*
X17448435Y-9530500D01*
X17162098Y-9530500D01*
X17095059Y-9510815D01*
X17074417Y-9494181D01*
X17005717Y-9425481D01*
X17005709Y-9425475D01*
X16868790Y-9346426D01*
X16868786Y-9346424D01*
X16868784Y-9346423D01*
X16716057Y-9305500D01*
X16557943Y-9305500D01*
X16405216Y-9346423D01*
X16405209Y-9346426D01*
X16268290Y-9425475D01*
X16268282Y-9425481D01*
X16156481Y-9537282D01*
X16156475Y-9537290D01*
X16077426Y-9674209D01*
X16077423Y-9674216D01*
X16036500Y-9826943D01*
X6061500Y-9826943D01*
X6020577Y-9674216D01*
X5994928Y-9629790D01*
X5941524Y-9537290D01*
X5941518Y-9537282D01*
X5829717Y-9425481D01*
X5829709Y-9425475D01*
X5692790Y-9346426D01*
X5692786Y-9346424D01*
X5692784Y-9346423D01*
X5540057Y-9305500D01*
X5381943Y-9305500D01*
X5229216Y-9346423D01*
X5229209Y-9346426D01*
X5092290Y-9425475D01*
X5092282Y-9425481D01*
X4980481Y-9537282D01*
X4980475Y-9537290D01*
X4901426Y-9674209D01*
X4901423Y-9674216D01*
X4860500Y-9826943D01*
X500500Y-9826943D01*
X500500Y-9064943D01*
X32419500Y-9064943D01*
X32419500Y-9223057D01*
X32441591Y-9305500D01*
X32460423Y-9375783D01*
X32460426Y-9375790D01*
X32539475Y-9512709D01*
X32539479Y-9512714D01*
X32539480Y-9512716D01*
X32651284Y-9624520D01*
X32651286Y-9624521D01*
X32651290Y-9624524D01*
X32779379Y-9698475D01*
X32788216Y-9703577D01*
X32940943Y-9744500D01*
X32940945Y-9744500D01*
X33099054Y-9744500D01*
X33099057Y-9744500D01*
X33239393Y-9706897D01*
X33309239Y-9708560D01*
X33333479Y-9719283D01*
X33383062Y-9747910D01*
X33398979Y-9752175D01*
X33430811Y-9760705D01*
X33430812Y-9760705D01*
X33440903Y-9763408D01*
X33478564Y-9773500D01*
X33478565Y-9773500D01*
X34653902Y-9773500D01*
X34720941Y-9793185D01*
X34741583Y-9809819D01*
X34810284Y-9878520D01*
X34810286Y-9878521D01*
X34810290Y-9878524D01*
X34947209Y-9957573D01*
X34947216Y-9957577D01*
X35099943Y-9998500D01*
X35099945Y-9998500D01*
X35258055Y-9998500D01*
X35258057Y-9998500D01*
X35410784Y-9957577D01*
X35547716Y-9878520D01*
X35659520Y-9766716D01*
X35738577Y-9629784D01*
X35779500Y-9477057D01*
X35779500Y-9318943D01*
X35738577Y-9166216D01*
X35680108Y-9064943D01*
X35659524Y-9029290D01*
X35659518Y-9029282D01*
X35547717Y-8917481D01*
X35547709Y-8917475D01*
X35410790Y-8838426D01*
X35410786Y-8838424D01*
X35410784Y-8838423D01*
X35258057Y-8797500D01*
X35099943Y-8797500D01*
X34947216Y-8838423D01*
X34947209Y-8838426D01*
X34810290Y-8917475D01*
X34810282Y-8917481D01*
X34741583Y-8986181D01*
X34680260Y-9019666D01*
X34653902Y-9022500D01*
X33734899Y-9022500D01*
X33705458Y-9013855D01*
X33675472Y-9007332D01*
X33670456Y-9003577D01*
X33667860Y-9002815D01*
X33647218Y-8986181D01*
X33631563Y-8970526D01*
X33631559Y-8970523D01*
X33631433Y-8970450D01*
X33631344Y-8970357D01*
X33625117Y-8965579D01*
X33625862Y-8964607D01*
X33583218Y-8919883D01*
X33580004Y-8912954D01*
X33500524Y-8775290D01*
X33500518Y-8775282D01*
X33388717Y-8663481D01*
X33388709Y-8663475D01*
X33251790Y-8584426D01*
X33251786Y-8584424D01*
X33251784Y-8584423D01*
X33099057Y-8543500D01*
X32940943Y-8543500D01*
X32788216Y-8584423D01*
X32788209Y-8584426D01*
X32651290Y-8663475D01*
X32651282Y-8663481D01*
X32539481Y-8775282D01*
X32539475Y-8775290D01*
X32460426Y-8912209D01*
X32460423Y-8912216D01*
X32419500Y-9064943D01*
X500500Y-9064943D01*
X500500Y-3378711D01*
X1649500Y-3378711D01*
X1649500Y-3621288D01*
X1681161Y-3861785D01*
X1743947Y-4096104D01*
X1830772Y-4305717D01*
X1836776Y-4320212D01*
X1958064Y-4530289D01*
X1958066Y-4530292D01*
X1958067Y-4530293D01*
X2105733Y-4722736D01*
X2105739Y-4722743D01*
X2277256Y-4894260D01*
X2277262Y-4894265D01*
X2469711Y-5041936D01*
X2679788Y-5163224D01*
X2903900Y-5256054D01*
X3138211Y-5318838D01*
X3318586Y-5342584D01*
X3378711Y-5350500D01*
X3378712Y-5350500D01*
X3621289Y-5350500D01*
X3669388Y-5344167D01*
X3861789Y-5318838D01*
X4096100Y-5256054D01*
X4320212Y-5163224D01*
X4530289Y-5041936D01*
X4722738Y-4894265D01*
X4894265Y-4722738D01*
X5041936Y-4530289D01*
X5163224Y-4320212D01*
X5256054Y-4096100D01*
X5318838Y-3861789D01*
X5350500Y-3621288D01*
X5350500Y-3378712D01*
X5318838Y-3138211D01*
X5256054Y-2903900D01*
X5163224Y-2679788D01*
X5041936Y-2469711D01*
X4894265Y-2277262D01*
X4894260Y-2277256D01*
X4722743Y-2105739D01*
X4722736Y-2105733D01*
X4530293Y-1958067D01*
X4530292Y-1958066D01*
X4530289Y-1958064D01*
X4320212Y-1836776D01*
X4320205Y-1836773D01*
X4096104Y-1743947D01*
X3861785Y-1681161D01*
X3621289Y-1649500D01*
X3621288Y-1649500D01*
X3378712Y-1649500D01*
X3378711Y-1649500D01*
X3138214Y-1681161D01*
X2903895Y-1743947D01*
X2679794Y-1836773D01*
X2679785Y-1836777D01*
X2469706Y-1958067D01*
X2277263Y-2105733D01*
X2277256Y-2105739D01*
X2105739Y-2277256D01*
X2105733Y-2277263D01*
X1958067Y-2469706D01*
X1836777Y-2679785D01*
X1836773Y-2679794D01*
X1743947Y-2903895D01*
X1681161Y-3138214D01*
X1649500Y-3378711D01*
X500500Y-3378711D01*
X500500Y-624500D01*
X520185Y-557461D01*
X572989Y-511706D01*
X624500Y-500500D01*
X54375500Y-500500D01*
X54442539Y-520185D01*
G37*
%TD.AperFunction*%
%TD*%
M02*
