M48
; DRILL file KiCad 10.0.3 date 2026-06-10T10:53:02
; FORMAT={-:-/ absolute / metric / decimal}
; #@! TF.CreationDate,2026-06-10T10:53:02+01:00
; #@! TF.GenerationSoftware,Kicad,Pcbnew,10.0.3
; #@! TF.FileFunction,MixedPlating,1,2
FMAT,2
METRIC
; #@! TA.AperFunction,Plated,PTH,ComponentDrill
T1C0.200
; #@! TA.AperFunction,Plated,PTH,ViaDrill
T2C0.350
; #@! TA.AperFunction,Plated,PTH,ComponentDrill
T3C0.600
; #@! TA.AperFunction,Plated,PTH,ComponentDrill
T4C1.200
; #@! TA.AperFunction,Plated,PTH,ComponentDrill
T5C1.600
; #@! TA.AperFunction,NonPlated,NPTH,ComponentDrill
T6C0.650
; #@! TA.AperFunction,NonPlated,NPTH,ComponentDrill
T7C1.600
; #@! TA.AperFunction,NonPlated,NPTH,ComponentDrill
T8C3.200
%
G90
G05
T1
X7.36Y-17.8
X7.36Y-19.2
X8.06Y-17.1
X8.06Y-18.5
X8.06Y-19.9
X8.76Y-17.8
X8.76Y-19.2
X9.46Y-17.1
X9.46Y-18.5
X9.46Y-19.9
X10.16Y-17.8
X10.16Y-19.2
T2
X1.04Y-23.75
X2.032Y-27.432
X7.366Y-28.448
X8.001Y-10.668
X9.75Y-39.9
X10.414Y-11.43
X10.475Y-27.825
X11.16Y-18.5
X11.425Y-27.65
X13.462Y-17.78
X14.224Y-31.623
X15.494Y-9.906
X15.875Y-32.512
X16.05Y-39.9
X16.637Y-35.179
X18.75Y-39.9
X21.463Y-33.274
X22.525Y-15.787
X22.86Y-33.274
X25.05Y-39.9
X26.289Y-26.67
X27.705Y-28.475
X28.9Y-33.6
X29.825Y-22.0
X29.845Y-28.448
X30.4Y-30.0
X30.55Y-33.4
X31.115Y-28.448
X32.45Y-30.0
X33.02Y-9.144
X33.2Y-30.55
X34.05Y-32.35
X34.905Y-27.55
X35.179Y-9.398
X35.45Y-33.4
X37.084Y-11.938
X37.2Y-33.5
X37.3Y-32.2
X38.735Y-37.084
X40.025Y-4.525
X41.45Y-36.225
X41.975Y-12.755
X42.0Y-14.225
X42.037Y-10.668
X42.775Y-4.35
X44.196Y-3.937
X44.8Y-35.9
X48.9Y-35.6
T4
X48.85Y-20.81
X52.665Y-20.81
X52.665Y-27.79
X59.02Y-12.56
T5
X48.85Y-17.0
X48.85Y-24.62
T6
X30.11Y-35.9
X35.89Y-35.9
T7
X57.11Y-24.62
X62.19Y-17.0
T8
X3.5Y-3.5
X3.5Y-38.5
X62.5Y-3.5
X62.5Y-38.5
T3
X28.68Y-34.82G85X28.68Y-35.92
G05
X28.68Y-39.25G85X28.68Y-39.85
G05
X37.32Y-34.82G85X37.32Y-35.92
G05
X37.32Y-39.25G85X37.32Y-39.85
G05
M30
