M48
; DRILL file KiCad 10.0.3 date 2026-06-10T09:27:35
; FORMAT={-:-/ absolute / metric / decimal}
; #@! TF.CreationDate,2026-06-10T09:27:35+01:00
; #@! TF.GenerationSoftware,Kicad,Pcbnew,10.0.3
; #@! TF.FileFunction,MixedPlating,1,2
FMAT,2
METRIC
; #@! TA.AperFunction,Plated,PTH,ComponentDrill
T1C0.200
; #@! TA.AperFunction,Plated,PTH,ViaDrill
T2C0.350
; #@! TA.AperFunction,Plated,PTH,ComponentDrill
T3C0.600
; #@! TA.AperFunction,Plated,PTH,ComponentDrill
T4C1.300
; #@! TA.AperFunction,NonPlated,NPTH,ComponentDrill
T5C0.650
; #@! TA.AperFunction,NonPlated,NPTH,ComponentDrill
T6C3.200
%
G90
G05
T1
X7.36Y-17.8
X7.36Y-19.2
X8.06Y-17.1
X8.06Y-18.5
X8.06Y-19.9
X8.76Y-17.8
X8.76Y-19.2
X9.46Y-17.1
X9.46Y-18.5
X9.46Y-19.9
X10.16Y-17.8
X10.16Y-19.2
T2
X1.04Y-27.75
X4.572Y-29.845
X5.461Y-9.906
X6.096Y-28.194
X9.017Y-29.591
X9.325Y-27.825
X9.75Y-39.9
X10.275Y-27.65
X11.16Y-18.5
X14.224Y-31.623
X15.875Y-14.986
X15.875Y-32.512
X16.05Y-39.9
X16.637Y-9.906
X17.399Y-36.068
X18.75Y-39.9
X18.923Y-24.892
X21.463Y-31.623
X21.463Y-33.274
X22.525Y-15.787
X22.86Y-31.369
X25.05Y-39.9
X27.705Y-28.475
X28.9Y-33.6
X29.845Y-28.448
X30.099Y-26.162
X30.4Y-30.0
X30.55Y-33.4
X31.115Y-23.114
X31.115Y-28.448
X32.385Y-23.495
X32.45Y-30.0
X33.02Y-9.144
X33.2Y-30.55
X34.05Y-32.35
X34.417Y-11.938
X34.905Y-27.55
X35.179Y-9.398
X35.45Y-33.4
X37.2Y-33.5
X37.3Y-32.2
X38.735Y-37.084
X40.025Y-4.525
X40.45Y-11.905
X40.525Y-23.225
X40.875Y-31.55
X40.975Y-15.175
X42.037Y-20.32
X42.3Y-32.1
X42.5Y-37.5
X42.672Y-10.668
X42.775Y-4.35
X44.45Y-3.937
X52.525Y-32.788
T4
X49.2Y-10.5
X49.2Y-15.58
X49.2Y-20.66
T5
X30.11Y-35.9
X35.89Y-35.9
T6
X3.5Y-3.5
X3.5Y-38.5
X51.5Y-3.5
X51.5Y-38.5
T3
X28.68Y-34.82G85X28.68Y-35.92
G05
X28.68Y-39.25G85X28.68Y-39.85
G05
X37.32Y-34.82G85X37.32Y-35.92
G05
X37.32Y-39.25G85X37.32Y-39.85
G05
M30
