%TF.GenerationSoftware,KiCad,Pcbnew,10.0.3*%
%TF.CreationDate,2026-06-10T09:27:34+01:00*%
%TF.ProjectId,wakelight,77616b65-6c69-4676-9874-2e6b69636164,rev?*%
%TF.SameCoordinates,Original*%
%TF.FileFunction,Legend,Top*%
%TF.FilePolarity,Positive*%
%FSLAX46Y46*%
G04 Gerber Fmt 4.6, Leading zero omitted, Abs format (unit mm)*
G04 Created by KiCad (PCBNEW 10.0.3) date 2026-06-10 09:27:34*
%MOMM*%
%LPD*%
G01*
G04 APERTURE LIST*
%ADD10C,0.105000*%
%ADD11C,0.120000*%
%ADD12C,0.210000*%
%ADD13C,0.150000*%
G04 APERTURE END LIST*
D10*
X41750000Y-25018373D02*
X41750000Y-24318373D01*
X41750000Y-24318373D02*
X41916667Y-24318373D01*
X41916667Y-24318373D02*
X42016667Y-24351706D01*
X42016667Y-24351706D02*
X42083334Y-24418373D01*
X42083334Y-24418373D02*
X42116667Y-24485040D01*
X42116667Y-24485040D02*
X42150000Y-24618373D01*
X42150000Y-24618373D02*
X42150000Y-24718373D01*
X42150000Y-24718373D02*
X42116667Y-24851706D01*
X42116667Y-24851706D02*
X42083334Y-24918373D01*
X42083334Y-24918373D02*
X42016667Y-24985040D01*
X42016667Y-24985040D02*
X41916667Y-25018373D01*
X41916667Y-25018373D02*
X41750000Y-25018373D01*
X42450000Y-25018373D02*
X42450000Y-24318373D01*
X42450000Y-24318373D02*
X42683334Y-24818373D01*
X42683334Y-24818373D02*
X42916667Y-24318373D01*
X42916667Y-24318373D02*
X42916667Y-25018373D01*
X43183334Y-24318373D02*
X43650000Y-25018373D01*
X43650000Y-24318373D02*
X43183334Y-25018373D01*
X44816667Y-25018373D02*
X44416667Y-25018373D01*
X44616667Y-25018373D02*
X44616667Y-24318373D01*
X44616667Y-24318373D02*
X44550000Y-24418373D01*
X44550000Y-24418373D02*
X44483334Y-24485040D01*
X44483334Y-24485040D02*
X44416667Y-24518373D01*
X45116667Y-24951706D02*
X45150001Y-24985040D01*
X45150001Y-24985040D02*
X45116667Y-25018373D01*
X45116667Y-25018373D02*
X45083334Y-24985040D01*
X45083334Y-24985040D02*
X45116667Y-24951706D01*
X45116667Y-24951706D02*
X45116667Y-25018373D01*
X45116667Y-24585040D02*
X45150001Y-24618373D01*
X45150001Y-24618373D02*
X45116667Y-24651706D01*
X45116667Y-24651706D02*
X45083334Y-24618373D01*
X45083334Y-24618373D02*
X45116667Y-24585040D01*
X45116667Y-24585040D02*
X45116667Y-24651706D01*
X45816667Y-24351706D02*
X45750000Y-24318373D01*
X45750000Y-24318373D02*
X45650000Y-24318373D01*
X45650000Y-24318373D02*
X45550000Y-24351706D01*
X45550000Y-24351706D02*
X45483334Y-24418373D01*
X45483334Y-24418373D02*
X45450000Y-24485040D01*
X45450000Y-24485040D02*
X45416667Y-24618373D01*
X45416667Y-24618373D02*
X45416667Y-24718373D01*
X45416667Y-24718373D02*
X45450000Y-24851706D01*
X45450000Y-24851706D02*
X45483334Y-24918373D01*
X45483334Y-24918373D02*
X45550000Y-24985040D01*
X45550000Y-24985040D02*
X45650000Y-25018373D01*
X45650000Y-25018373D02*
X45716667Y-25018373D01*
X45716667Y-25018373D02*
X45816667Y-24985040D01*
X45816667Y-24985040D02*
X45850000Y-24951706D01*
X45850000Y-24951706D02*
X45850000Y-24718373D01*
X45850000Y-24718373D02*
X45716667Y-24718373D01*
X46150000Y-25018373D02*
X46150000Y-24318373D01*
X46150000Y-24318373D02*
X46550000Y-25018373D01*
X46550000Y-25018373D02*
X46550000Y-24318373D01*
X46883333Y-25018373D02*
X46883333Y-24318373D01*
X46883333Y-24318373D02*
X47050000Y-24318373D01*
X47050000Y-24318373D02*
X47150000Y-24351706D01*
X47150000Y-24351706D02*
X47216667Y-24418373D01*
X47216667Y-24418373D02*
X47250000Y-24485040D01*
X47250000Y-24485040D02*
X47283333Y-24618373D01*
X47283333Y-24618373D02*
X47283333Y-24718373D01*
X47283333Y-24718373D02*
X47250000Y-24851706D01*
X47250000Y-24851706D02*
X47216667Y-24918373D01*
X47216667Y-24918373D02*
X47150000Y-24985040D01*
X47150000Y-24985040D02*
X47050000Y-25018373D01*
X47050000Y-25018373D02*
X46883333Y-25018373D01*
X48083333Y-24385040D02*
X48116666Y-24351706D01*
X48116666Y-24351706D02*
X48183333Y-24318373D01*
X48183333Y-24318373D02*
X48350000Y-24318373D01*
X48350000Y-24318373D02*
X48416666Y-24351706D01*
X48416666Y-24351706D02*
X48450000Y-24385040D01*
X48450000Y-24385040D02*
X48483333Y-24451706D01*
X48483333Y-24451706D02*
X48483333Y-24518373D01*
X48483333Y-24518373D02*
X48450000Y-24618373D01*
X48450000Y-24618373D02*
X48050000Y-25018373D01*
X48050000Y-25018373D02*
X48483333Y-25018373D01*
X48783333Y-24951706D02*
X48816667Y-24985040D01*
X48816667Y-24985040D02*
X48783333Y-25018373D01*
X48783333Y-25018373D02*
X48750000Y-24985040D01*
X48750000Y-24985040D02*
X48783333Y-24951706D01*
X48783333Y-24951706D02*
X48783333Y-25018373D01*
X48783333Y-24585040D02*
X48816667Y-24618373D01*
X48816667Y-24618373D02*
X48783333Y-24651706D01*
X48783333Y-24651706D02*
X48750000Y-24618373D01*
X48750000Y-24618373D02*
X48783333Y-24585040D01*
X48783333Y-24585040D02*
X48783333Y-24651706D01*
X49116666Y-25018373D02*
X49116666Y-24318373D01*
X49116666Y-24318373D02*
X49283333Y-24318373D01*
X49283333Y-24318373D02*
X49383333Y-24351706D01*
X49383333Y-24351706D02*
X49450000Y-24418373D01*
X49450000Y-24418373D02*
X49483333Y-24485040D01*
X49483333Y-24485040D02*
X49516666Y-24618373D01*
X49516666Y-24618373D02*
X49516666Y-24718373D01*
X49516666Y-24718373D02*
X49483333Y-24851706D01*
X49483333Y-24851706D02*
X49450000Y-24918373D01*
X49450000Y-24918373D02*
X49383333Y-24985040D01*
X49383333Y-24985040D02*
X49283333Y-25018373D01*
X49283333Y-25018373D02*
X49116666Y-25018373D01*
X49816666Y-24751706D02*
X50350000Y-24751706D01*
X51150000Y-24318373D02*
X51583333Y-24318373D01*
X51583333Y-24318373D02*
X51350000Y-24585040D01*
X51350000Y-24585040D02*
X51450000Y-24585040D01*
X51450000Y-24585040D02*
X51516666Y-24618373D01*
X51516666Y-24618373D02*
X51550000Y-24651706D01*
X51550000Y-24651706D02*
X51583333Y-24718373D01*
X51583333Y-24718373D02*
X51583333Y-24885040D01*
X51583333Y-24885040D02*
X51550000Y-24951706D01*
X51550000Y-24951706D02*
X51516666Y-24985040D01*
X51516666Y-24985040D02*
X51450000Y-25018373D01*
X51450000Y-25018373D02*
X51250000Y-25018373D01*
X51250000Y-25018373D02*
X51183333Y-24985040D01*
X51183333Y-24985040D02*
X51150000Y-24951706D01*
X51883333Y-24951706D02*
X51916667Y-24985040D01*
X51916667Y-24985040D02*
X51883333Y-25018373D01*
X51883333Y-25018373D02*
X51850000Y-24985040D01*
X51850000Y-24985040D02*
X51883333Y-24951706D01*
X51883333Y-24951706D02*
X51883333Y-25018373D01*
X51883333Y-24585040D02*
X51916667Y-24618373D01*
X51916667Y-24618373D02*
X51883333Y-24651706D01*
X51883333Y-24651706D02*
X51850000Y-24618373D01*
X51850000Y-24618373D02*
X51883333Y-24585040D01*
X51883333Y-24585040D02*
X51883333Y-24651706D01*
X52216666Y-25018373D02*
X52216666Y-24318373D01*
X52216666Y-24318373D02*
X52383333Y-24318373D01*
X52383333Y-24318373D02*
X52483333Y-24351706D01*
X52483333Y-24351706D02*
X52550000Y-24418373D01*
X52550000Y-24418373D02*
X52583333Y-24485040D01*
X52583333Y-24485040D02*
X52616666Y-24618373D01*
X52616666Y-24618373D02*
X52616666Y-24718373D01*
X52616666Y-24718373D02*
X52583333Y-24851706D01*
X52583333Y-24851706D02*
X52550000Y-24918373D01*
X52550000Y-24918373D02*
X52483333Y-24985040D01*
X52483333Y-24985040D02*
X52383333Y-25018373D01*
X52383333Y-25018373D02*
X52216666Y-25018373D01*
X52916666Y-24751706D02*
X53450000Y-24751706D01*
X53183333Y-25018373D02*
X53183333Y-24485040D01*
D11*
X10909524Y-33544807D02*
X11176190Y-33544807D01*
X11290476Y-33963855D02*
X10909524Y-33963855D01*
X10909524Y-33963855D02*
X10909524Y-33163855D01*
X10909524Y-33163855D02*
X11290476Y-33163855D01*
X11633334Y-33963855D02*
X11633334Y-33163855D01*
X11633334Y-33163855D02*
X12090477Y-33963855D01*
X12090477Y-33963855D02*
X12090477Y-33163855D01*
X19414285Y-33544807D02*
X19528571Y-33582902D01*
X19528571Y-33582902D02*
X19566666Y-33620998D01*
X19566666Y-33620998D02*
X19604762Y-33697188D01*
X19604762Y-33697188D02*
X19604762Y-33811474D01*
X19604762Y-33811474D02*
X19566666Y-33887664D01*
X19566666Y-33887664D02*
X19528571Y-33925760D01*
X19528571Y-33925760D02*
X19452381Y-33963855D01*
X19452381Y-33963855D02*
X19147619Y-33963855D01*
X19147619Y-33963855D02*
X19147619Y-33163855D01*
X19147619Y-33163855D02*
X19414285Y-33163855D01*
X19414285Y-33163855D02*
X19490476Y-33201950D01*
X19490476Y-33201950D02*
X19528571Y-33240045D01*
X19528571Y-33240045D02*
X19566666Y-33316236D01*
X19566666Y-33316236D02*
X19566666Y-33392426D01*
X19566666Y-33392426D02*
X19528571Y-33468617D01*
X19528571Y-33468617D02*
X19490476Y-33506712D01*
X19490476Y-33506712D02*
X19414285Y-33544807D01*
X19414285Y-33544807D02*
X19147619Y-33544807D01*
X20100000Y-33163855D02*
X20252381Y-33163855D01*
X20252381Y-33163855D02*
X20328571Y-33201950D01*
X20328571Y-33201950D02*
X20404762Y-33278140D01*
X20404762Y-33278140D02*
X20442857Y-33430521D01*
X20442857Y-33430521D02*
X20442857Y-33697188D01*
X20442857Y-33697188D02*
X20404762Y-33849569D01*
X20404762Y-33849569D02*
X20328571Y-33925760D01*
X20328571Y-33925760D02*
X20252381Y-33963855D01*
X20252381Y-33963855D02*
X20100000Y-33963855D01*
X20100000Y-33963855D02*
X20023809Y-33925760D01*
X20023809Y-33925760D02*
X19947619Y-33849569D01*
X19947619Y-33849569D02*
X19909523Y-33697188D01*
X19909523Y-33697188D02*
X19909523Y-33430521D01*
X19909523Y-33430521D02*
X19947619Y-33278140D01*
X19947619Y-33278140D02*
X20023809Y-33201950D01*
X20023809Y-33201950D02*
X20100000Y-33163855D01*
X20938095Y-33163855D02*
X21090476Y-33163855D01*
X21090476Y-33163855D02*
X21166666Y-33201950D01*
X21166666Y-33201950D02*
X21242857Y-33278140D01*
X21242857Y-33278140D02*
X21280952Y-33430521D01*
X21280952Y-33430521D02*
X21280952Y-33697188D01*
X21280952Y-33697188D02*
X21242857Y-33849569D01*
X21242857Y-33849569D02*
X21166666Y-33925760D01*
X21166666Y-33925760D02*
X21090476Y-33963855D01*
X21090476Y-33963855D02*
X20938095Y-33963855D01*
X20938095Y-33963855D02*
X20861904Y-33925760D01*
X20861904Y-33925760D02*
X20785714Y-33849569D01*
X20785714Y-33849569D02*
X20747618Y-33697188D01*
X20747618Y-33697188D02*
X20747618Y-33430521D01*
X20747618Y-33430521D02*
X20785714Y-33278140D01*
X20785714Y-33278140D02*
X20861904Y-33201950D01*
X20861904Y-33201950D02*
X20938095Y-33163855D01*
X21509523Y-33163855D02*
X21966666Y-33163855D01*
X21738094Y-33963855D02*
X21738094Y-33163855D01*
D12*
X19800000Y-1036746D02*
X20133333Y-2436746D01*
X20133333Y-2436746D02*
X20400000Y-1436746D01*
X20400000Y-1436746D02*
X20666666Y-2436746D01*
X20666666Y-2436746D02*
X21000000Y-1036746D01*
X22133333Y-2436746D02*
X22133333Y-1703413D01*
X22133333Y-1703413D02*
X22066666Y-1570080D01*
X22066666Y-1570080D02*
X21933333Y-1503413D01*
X21933333Y-1503413D02*
X21666666Y-1503413D01*
X21666666Y-1503413D02*
X21533333Y-1570080D01*
X22133333Y-2370080D02*
X22000000Y-2436746D01*
X22000000Y-2436746D02*
X21666666Y-2436746D01*
X21666666Y-2436746D02*
X21533333Y-2370080D01*
X21533333Y-2370080D02*
X21466666Y-2236746D01*
X21466666Y-2236746D02*
X21466666Y-2103413D01*
X21466666Y-2103413D02*
X21533333Y-1970080D01*
X21533333Y-1970080D02*
X21666666Y-1903413D01*
X21666666Y-1903413D02*
X22000000Y-1903413D01*
X22000000Y-1903413D02*
X22133333Y-1836746D01*
X22800000Y-2436746D02*
X22800000Y-1036746D01*
X22933333Y-1903413D02*
X23333333Y-2436746D01*
X23333333Y-1503413D02*
X22800000Y-2036746D01*
X24466666Y-2370080D02*
X24333333Y-2436746D01*
X24333333Y-2436746D02*
X24066666Y-2436746D01*
X24066666Y-2436746D02*
X23933333Y-2370080D01*
X23933333Y-2370080D02*
X23866666Y-2236746D01*
X23866666Y-2236746D02*
X23866666Y-1703413D01*
X23866666Y-1703413D02*
X23933333Y-1570080D01*
X23933333Y-1570080D02*
X24066666Y-1503413D01*
X24066666Y-1503413D02*
X24333333Y-1503413D01*
X24333333Y-1503413D02*
X24466666Y-1570080D01*
X24466666Y-1570080D02*
X24533333Y-1703413D01*
X24533333Y-1703413D02*
X24533333Y-1836746D01*
X24533333Y-1836746D02*
X23866666Y-1970080D01*
X25800000Y-2436746D02*
X25133333Y-2436746D01*
X25133333Y-2436746D02*
X25133333Y-1036746D01*
X26266666Y-2436746D02*
X26266666Y-1503413D01*
X26266666Y-1036746D02*
X26199999Y-1103413D01*
X26199999Y-1103413D02*
X26266666Y-1170080D01*
X26266666Y-1170080D02*
X26333333Y-1103413D01*
X26333333Y-1103413D02*
X26266666Y-1036746D01*
X26266666Y-1036746D02*
X26266666Y-1170080D01*
X27533333Y-1503413D02*
X27533333Y-2636746D01*
X27533333Y-2636746D02*
X27466666Y-2770080D01*
X27466666Y-2770080D02*
X27400000Y-2836746D01*
X27400000Y-2836746D02*
X27266666Y-2903413D01*
X27266666Y-2903413D02*
X27066666Y-2903413D01*
X27066666Y-2903413D02*
X26933333Y-2836746D01*
X27533333Y-2370080D02*
X27400000Y-2436746D01*
X27400000Y-2436746D02*
X27133333Y-2436746D01*
X27133333Y-2436746D02*
X27000000Y-2370080D01*
X27000000Y-2370080D02*
X26933333Y-2303413D01*
X26933333Y-2303413D02*
X26866666Y-2170080D01*
X26866666Y-2170080D02*
X26866666Y-1770080D01*
X26866666Y-1770080D02*
X26933333Y-1636746D01*
X26933333Y-1636746D02*
X27000000Y-1570080D01*
X27000000Y-1570080D02*
X27133333Y-1503413D01*
X27133333Y-1503413D02*
X27400000Y-1503413D01*
X27400000Y-1503413D02*
X27533333Y-1570080D01*
X28200000Y-2436746D02*
X28200000Y-1036746D01*
X28800000Y-2436746D02*
X28800000Y-1703413D01*
X28800000Y-1703413D02*
X28733333Y-1570080D01*
X28733333Y-1570080D02*
X28600000Y-1503413D01*
X28600000Y-1503413D02*
X28400000Y-1503413D01*
X28400000Y-1503413D02*
X28266667Y-1570080D01*
X28266667Y-1570080D02*
X28200000Y-1636746D01*
X29266667Y-1503413D02*
X29800000Y-1503413D01*
X29466667Y-1036746D02*
X29466667Y-2236746D01*
X29466667Y-2236746D02*
X29533334Y-2370080D01*
X29533334Y-2370080D02*
X29666667Y-2436746D01*
X29666667Y-2436746D02*
X29800000Y-2436746D01*
X31200001Y-1503413D02*
X31533334Y-2436746D01*
X31533334Y-2436746D02*
X31866667Y-1503413D01*
X33133334Y-2436746D02*
X32333334Y-2436746D01*
X32733334Y-2436746D02*
X32733334Y-1036746D01*
X32733334Y-1036746D02*
X32600001Y-1236746D01*
X32600001Y-1236746D02*
X32466668Y-1370080D01*
X32466668Y-1370080D02*
X32333334Y-1436746D01*
X33733334Y-2303413D02*
X33800001Y-2370080D01*
X33800001Y-2370080D02*
X33733334Y-2436746D01*
X33733334Y-2436746D02*
X33666667Y-2370080D01*
X33666667Y-2370080D02*
X33733334Y-2303413D01*
X33733334Y-2303413D02*
X33733334Y-2436746D01*
X34666668Y-1036746D02*
X34800001Y-1036746D01*
X34800001Y-1036746D02*
X34933334Y-1103413D01*
X34933334Y-1103413D02*
X35000001Y-1170080D01*
X35000001Y-1170080D02*
X35066668Y-1303413D01*
X35066668Y-1303413D02*
X35133334Y-1570080D01*
X35133334Y-1570080D02*
X35133334Y-1903413D01*
X35133334Y-1903413D02*
X35066668Y-2170080D01*
X35066668Y-2170080D02*
X35000001Y-2303413D01*
X35000001Y-2303413D02*
X34933334Y-2370080D01*
X34933334Y-2370080D02*
X34800001Y-2436746D01*
X34800001Y-2436746D02*
X34666668Y-2436746D01*
X34666668Y-2436746D02*
X34533334Y-2370080D01*
X34533334Y-2370080D02*
X34466668Y-2303413D01*
X34466668Y-2303413D02*
X34400001Y-2170080D01*
X34400001Y-2170080D02*
X34333334Y-1903413D01*
X34333334Y-1903413D02*
X34333334Y-1570080D01*
X34333334Y-1570080D02*
X34400001Y-1303413D01*
X34400001Y-1303413D02*
X34466668Y-1170080D01*
X34466668Y-1170080D02*
X34533334Y-1103413D01*
X34533334Y-1103413D02*
X34666668Y-1036746D01*
D13*
X32666666Y-32309819D02*
X32666666Y-33024104D01*
X32666666Y-33024104D02*
X32619047Y-33166961D01*
X32619047Y-33166961D02*
X32523809Y-33262200D01*
X32523809Y-33262200D02*
X32380952Y-33309819D01*
X32380952Y-33309819D02*
X32285714Y-33309819D01*
X33666666Y-33309819D02*
X33095238Y-33309819D01*
X33380952Y-33309819D02*
X33380952Y-32309819D01*
X33380952Y-32309819D02*
X33285714Y-32452676D01*
X33285714Y-32452676D02*
X33190476Y-32547914D01*
X33190476Y-32547914D02*
X33095238Y-32595533D01*
X19166667Y-34657200D02*
X19309524Y-34704819D01*
X19309524Y-34704819D02*
X19547619Y-34704819D01*
X19547619Y-34704819D02*
X19642857Y-34657200D01*
X19642857Y-34657200D02*
X19690476Y-34609580D01*
X19690476Y-34609580D02*
X19738095Y-34514342D01*
X19738095Y-34514342D02*
X19738095Y-34419104D01*
X19738095Y-34419104D02*
X19690476Y-34323866D01*
X19690476Y-34323866D02*
X19642857Y-34276247D01*
X19642857Y-34276247D02*
X19547619Y-34228628D01*
X19547619Y-34228628D02*
X19357143Y-34181009D01*
X19357143Y-34181009D02*
X19261905Y-34133390D01*
X19261905Y-34133390D02*
X19214286Y-34085771D01*
X19214286Y-34085771D02*
X19166667Y-33990533D01*
X19166667Y-33990533D02*
X19166667Y-33895295D01*
X19166667Y-33895295D02*
X19214286Y-33800057D01*
X19214286Y-33800057D02*
X19261905Y-33752438D01*
X19261905Y-33752438D02*
X19357143Y-33704819D01*
X19357143Y-33704819D02*
X19595238Y-33704819D01*
X19595238Y-33704819D02*
X19738095Y-33752438D01*
X20071429Y-33704819D02*
X20309524Y-34704819D01*
X20309524Y-34704819D02*
X20500000Y-33990533D01*
X20500000Y-33990533D02*
X20690476Y-34704819D01*
X20690476Y-34704819D02*
X20928572Y-33704819D01*
X21261905Y-33800057D02*
X21309524Y-33752438D01*
X21309524Y-33752438D02*
X21404762Y-33704819D01*
X21404762Y-33704819D02*
X21642857Y-33704819D01*
X21642857Y-33704819D02*
X21738095Y-33752438D01*
X21738095Y-33752438D02*
X21785714Y-33800057D01*
X21785714Y-33800057D02*
X21833333Y-33895295D01*
X21833333Y-33895295D02*
X21833333Y-33990533D01*
X21833333Y-33990533D02*
X21785714Y-34133390D01*
X21785714Y-34133390D02*
X21214286Y-34704819D01*
X21214286Y-34704819D02*
X21833333Y-34704819D01*
X8904761Y-30650057D02*
X8809523Y-30602438D01*
X8809523Y-30602438D02*
X8714285Y-30507200D01*
X8714285Y-30507200D02*
X8571428Y-30364342D01*
X8571428Y-30364342D02*
X8476190Y-30316723D01*
X8476190Y-30316723D02*
X8380952Y-30316723D01*
X8428571Y-30554819D02*
X8333333Y-30507200D01*
X8333333Y-30507200D02*
X8238095Y-30411961D01*
X8238095Y-30411961D02*
X8190476Y-30221485D01*
X8190476Y-30221485D02*
X8190476Y-29888152D01*
X8190476Y-29888152D02*
X8238095Y-29697676D01*
X8238095Y-29697676D02*
X8333333Y-29602438D01*
X8333333Y-29602438D02*
X8428571Y-29554819D01*
X8428571Y-29554819D02*
X8619047Y-29554819D01*
X8619047Y-29554819D02*
X8714285Y-29602438D01*
X8714285Y-29602438D02*
X8809523Y-29697676D01*
X8809523Y-29697676D02*
X8857142Y-29888152D01*
X8857142Y-29888152D02*
X8857142Y-30221485D01*
X8857142Y-30221485D02*
X8809523Y-30411961D01*
X8809523Y-30411961D02*
X8714285Y-30507200D01*
X8714285Y-30507200D02*
X8619047Y-30554819D01*
X8619047Y-30554819D02*
X8428571Y-30554819D01*
X9809523Y-30554819D02*
X9238095Y-30554819D01*
X9523809Y-30554819D02*
X9523809Y-29554819D01*
X9523809Y-29554819D02*
X9428571Y-29697676D01*
X9428571Y-29697676D02*
X9333333Y-29792914D01*
X9333333Y-29792914D02*
X9238095Y-29840533D01*
X26554819Y-26761904D02*
X27364342Y-26761904D01*
X27364342Y-26761904D02*
X27459580Y-26714285D01*
X27459580Y-26714285D02*
X27507200Y-26666666D01*
X27507200Y-26666666D02*
X27554819Y-26571428D01*
X27554819Y-26571428D02*
X27554819Y-26380952D01*
X27554819Y-26380952D02*
X27507200Y-26285714D01*
X27507200Y-26285714D02*
X27459580Y-26238095D01*
X27459580Y-26238095D02*
X27364342Y-26190476D01*
X27364342Y-26190476D02*
X26554819Y-26190476D01*
X26650057Y-25761904D02*
X26602438Y-25714285D01*
X26602438Y-25714285D02*
X26554819Y-25619047D01*
X26554819Y-25619047D02*
X26554819Y-25380952D01*
X26554819Y-25380952D02*
X26602438Y-25285714D01*
X26602438Y-25285714D02*
X26650057Y-25238095D01*
X26650057Y-25238095D02*
X26745295Y-25190476D01*
X26745295Y-25190476D02*
X26840533Y-25190476D01*
X26840533Y-25190476D02*
X26983390Y-25238095D01*
X26983390Y-25238095D02*
X27554819Y-25809523D01*
X27554819Y-25809523D02*
X27554819Y-25190476D01*
X20136779Y-26954819D02*
X20136779Y-27764342D01*
X20136779Y-27764342D02*
X20184398Y-27859580D01*
X20184398Y-27859580D02*
X20232017Y-27907200D01*
X20232017Y-27907200D02*
X20327255Y-27954819D01*
X20327255Y-27954819D02*
X20517731Y-27954819D01*
X20517731Y-27954819D02*
X20612969Y-27907200D01*
X20612969Y-27907200D02*
X20660588Y-27859580D01*
X20660588Y-27859580D02*
X20708207Y-27764342D01*
X20708207Y-27764342D02*
X20708207Y-26954819D01*
X21708207Y-27954819D02*
X21136779Y-27954819D01*
X21422493Y-27954819D02*
X21422493Y-26954819D01*
X21422493Y-26954819D02*
X21327255Y-27097676D01*
X21327255Y-27097676D02*
X21232017Y-27192914D01*
X21232017Y-27192914D02*
X21136779Y-27240533D01*
X39554819Y-31261904D02*
X40364342Y-31261904D01*
X40364342Y-31261904D02*
X40459580Y-31214285D01*
X40459580Y-31214285D02*
X40507200Y-31166666D01*
X40507200Y-31166666D02*
X40554819Y-31071428D01*
X40554819Y-31071428D02*
X40554819Y-30880952D01*
X40554819Y-30880952D02*
X40507200Y-30785714D01*
X40507200Y-30785714D02*
X40459580Y-30738095D01*
X40459580Y-30738095D02*
X40364342Y-30690476D01*
X40364342Y-30690476D02*
X39554819Y-30690476D01*
X39554819Y-30309523D02*
X39554819Y-29690476D01*
X39554819Y-29690476D02*
X39935771Y-30023809D01*
X39935771Y-30023809D02*
X39935771Y-29880952D01*
X39935771Y-29880952D02*
X39983390Y-29785714D01*
X39983390Y-29785714D02*
X40031009Y-29738095D01*
X40031009Y-29738095D02*
X40126247Y-29690476D01*
X40126247Y-29690476D02*
X40364342Y-29690476D01*
X40364342Y-29690476D02*
X40459580Y-29738095D01*
X40459580Y-29738095D02*
X40507200Y-29785714D01*
X40507200Y-29785714D02*
X40554819Y-29880952D01*
X40554819Y-29880952D02*
X40554819Y-30166666D01*
X40554819Y-30166666D02*
X40507200Y-30261904D01*
X40507200Y-30261904D02*
X40459580Y-30309523D01*
X38738095Y-6054819D02*
X38738095Y-6864342D01*
X38738095Y-6864342D02*
X38785714Y-6959580D01*
X38785714Y-6959580D02*
X38833333Y-7007200D01*
X38833333Y-7007200D02*
X38928571Y-7054819D01*
X38928571Y-7054819D02*
X39119047Y-7054819D01*
X39119047Y-7054819D02*
X39214285Y-7007200D01*
X39214285Y-7007200D02*
X39261904Y-6959580D01*
X39261904Y-6959580D02*
X39309523Y-6864342D01*
X39309523Y-6864342D02*
X39309523Y-6054819D01*
X40214285Y-6388152D02*
X40214285Y-7054819D01*
X39976190Y-6007200D02*
X39738095Y-6721485D01*
X39738095Y-6721485D02*
X40357142Y-6721485D01*
X10166667Y-34657200D02*
X10309524Y-34704819D01*
X10309524Y-34704819D02*
X10547619Y-34704819D01*
X10547619Y-34704819D02*
X10642857Y-34657200D01*
X10642857Y-34657200D02*
X10690476Y-34609580D01*
X10690476Y-34609580D02*
X10738095Y-34514342D01*
X10738095Y-34514342D02*
X10738095Y-34419104D01*
X10738095Y-34419104D02*
X10690476Y-34323866D01*
X10690476Y-34323866D02*
X10642857Y-34276247D01*
X10642857Y-34276247D02*
X10547619Y-34228628D01*
X10547619Y-34228628D02*
X10357143Y-34181009D01*
X10357143Y-34181009D02*
X10261905Y-34133390D01*
X10261905Y-34133390D02*
X10214286Y-34085771D01*
X10214286Y-34085771D02*
X10166667Y-33990533D01*
X10166667Y-33990533D02*
X10166667Y-33895295D01*
X10166667Y-33895295D02*
X10214286Y-33800057D01*
X10214286Y-33800057D02*
X10261905Y-33752438D01*
X10261905Y-33752438D02*
X10357143Y-33704819D01*
X10357143Y-33704819D02*
X10595238Y-33704819D01*
X10595238Y-33704819D02*
X10738095Y-33752438D01*
X11071429Y-33704819D02*
X11309524Y-34704819D01*
X11309524Y-34704819D02*
X11500000Y-33990533D01*
X11500000Y-33990533D02*
X11690476Y-34704819D01*
X11690476Y-34704819D02*
X11928572Y-33704819D01*
X12833333Y-34704819D02*
X12261905Y-34704819D01*
X12547619Y-34704819D02*
X12547619Y-33704819D01*
X12547619Y-33704819D02*
X12452381Y-33847676D01*
X12452381Y-33847676D02*
X12357143Y-33942914D01*
X12357143Y-33942914D02*
X12261905Y-33990533D01*
X14904761Y-30650057D02*
X14809523Y-30602438D01*
X14809523Y-30602438D02*
X14714285Y-30507200D01*
X14714285Y-30507200D02*
X14571428Y-30364342D01*
X14571428Y-30364342D02*
X14476190Y-30316723D01*
X14476190Y-30316723D02*
X14380952Y-30316723D01*
X14428571Y-30554819D02*
X14333333Y-30507200D01*
X14333333Y-30507200D02*
X14238095Y-30411961D01*
X14238095Y-30411961D02*
X14190476Y-30221485D01*
X14190476Y-30221485D02*
X14190476Y-29888152D01*
X14190476Y-29888152D02*
X14238095Y-29697676D01*
X14238095Y-29697676D02*
X14333333Y-29602438D01*
X14333333Y-29602438D02*
X14428571Y-29554819D01*
X14428571Y-29554819D02*
X14619047Y-29554819D01*
X14619047Y-29554819D02*
X14714285Y-29602438D01*
X14714285Y-29602438D02*
X14809523Y-29697676D01*
X14809523Y-29697676D02*
X14857142Y-29888152D01*
X14857142Y-29888152D02*
X14857142Y-30221485D01*
X14857142Y-30221485D02*
X14809523Y-30411961D01*
X14809523Y-30411961D02*
X14714285Y-30507200D01*
X14714285Y-30507200D02*
X14619047Y-30554819D01*
X14619047Y-30554819D02*
X14428571Y-30554819D01*
X15238095Y-29650057D02*
X15285714Y-29602438D01*
X15285714Y-29602438D02*
X15380952Y-29554819D01*
X15380952Y-29554819D02*
X15619047Y-29554819D01*
X15619047Y-29554819D02*
X15714285Y-29602438D01*
X15714285Y-29602438D02*
X15761904Y-29650057D01*
X15761904Y-29650057D02*
X15809523Y-29745295D01*
X15809523Y-29745295D02*
X15809523Y-29840533D01*
X15809523Y-29840533D02*
X15761904Y-29983390D01*
X15761904Y-29983390D02*
X15190476Y-30554819D01*
X15190476Y-30554819D02*
X15809523Y-30554819D01*
X54974819Y-15913333D02*
X55689104Y-15913333D01*
X55689104Y-15913333D02*
X55831961Y-15960952D01*
X55831961Y-15960952D02*
X55927200Y-16056190D01*
X55927200Y-16056190D02*
X55974819Y-16199047D01*
X55974819Y-16199047D02*
X55974819Y-16294285D01*
X55070057Y-15484761D02*
X55022438Y-15437142D01*
X55022438Y-15437142D02*
X54974819Y-15341904D01*
X54974819Y-15341904D02*
X54974819Y-15103809D01*
X54974819Y-15103809D02*
X55022438Y-15008571D01*
X55022438Y-15008571D02*
X55070057Y-14960952D01*
X55070057Y-14960952D02*
X55165295Y-14913333D01*
X55165295Y-14913333D02*
X55260533Y-14913333D01*
X55260533Y-14913333D02*
X55403390Y-14960952D01*
X55403390Y-14960952D02*
X55974819Y-15532380D01*
X55974819Y-15532380D02*
X55974819Y-14913333D01*
%TO.C,D2*%
D11*
X20765000Y-14200000D02*
X20765000Y-16485000D01*
X20765000Y-16485000D02*
X22235000Y-16485000D01*
X22235000Y-16485000D02*
X22235000Y-14200000D01*
%TO.C,C4*%
X8265000Y-28861252D02*
X8265000Y-28338748D01*
X9735000Y-28861252D02*
X9735000Y-28338748D01*
%TO.C,C6*%
X5490000Y-29140580D02*
X5490000Y-28859420D01*
X6510000Y-29140580D02*
X6510000Y-28859420D01*
%TO.C,R3*%
X18477500Y-32737258D02*
X18477500Y-32262742D01*
X19522500Y-32737258D02*
X19522500Y-32262742D01*
%TO.C,R5*%
X2977500Y-29237258D02*
X2977500Y-28762742D01*
X4022500Y-29237258D02*
X4022500Y-28762742D01*
%TO.C,J1*%
X28300000Y-36600000D02*
X28300000Y-38600000D01*
X28300000Y-40500000D02*
X28300000Y-42400000D01*
X28300000Y-42400000D02*
X37700000Y-42400000D01*
X37700000Y-36600000D02*
X37700000Y-38600000D01*
X37700000Y-40500000D02*
X37700000Y-42400000D01*
%TO.C,C1*%
X40238748Y-36765000D02*
X40761252Y-36765000D01*
X40238748Y-38235000D02*
X40761252Y-38235000D01*
%TO.C,SW2*%
X17750000Y-37000000D02*
X17750000Y-39000000D01*
X18800000Y-35700000D02*
X19250000Y-35250000D01*
X18800000Y-40300000D02*
X19250000Y-40750000D01*
X19250000Y-35250000D02*
X21750000Y-35250000D01*
X19250000Y-40750000D02*
X21750000Y-40750000D01*
X22200000Y-35700000D02*
X21750000Y-35250000D01*
X22200000Y-40300000D02*
X21750000Y-40750000D01*
X23250000Y-37000000D02*
X23250000Y-39000000D01*
%TO.C,R7*%
X20977500Y-11237258D02*
X20977500Y-10762742D01*
X22022500Y-11237258D02*
X22022500Y-10762742D01*
%TO.C,C3*%
X38990000Y-24140580D02*
X38990000Y-23859420D01*
X40010000Y-24140580D02*
X40010000Y-23859420D01*
%TO.C,Q1*%
X8240000Y-30940000D02*
X9760000Y-30940000D01*
X8240000Y-30990000D02*
X8240000Y-30940000D01*
X8240000Y-32890000D02*
X8240000Y-32110000D01*
X8240000Y-34060000D02*
X8240000Y-34010000D01*
X9760000Y-30940000D02*
X9760000Y-31940000D01*
X9760000Y-33060000D02*
X9760000Y-34060000D01*
X9760000Y-34060000D02*
X8240000Y-34060000D01*
X7700000Y-32120000D02*
X7940000Y-32450000D01*
X7460000Y-32450000D01*
X7700000Y-32120000D01*
G36*
X7940000Y-32450000D02*
G01*
X7460000Y-32450000D01*
X7700000Y-32120000D01*
X7940000Y-32450000D01*
G37*
%TO.C,R2*%
X35662742Y-30977500D02*
X36137258Y-30977500D01*
X35662742Y-32022500D02*
X36137258Y-32022500D01*
%TO.C,R6*%
X50977500Y-28237258D02*
X50977500Y-27762742D01*
X52022500Y-28237258D02*
X52022500Y-27762742D01*
%TO.C,R10*%
X41477500Y-16237258D02*
X41477500Y-15762742D01*
X42522500Y-16237258D02*
X42522500Y-15762742D01*
%TO.C,C5*%
X10990000Y-28740580D02*
X10990000Y-28459420D01*
X12010000Y-28740580D02*
X12010000Y-28459420D01*
%TO.C,R11*%
X41477500Y-19737258D02*
X41477500Y-19262742D01*
X42522500Y-19737258D02*
X42522500Y-19262742D01*
%TO.C,R4*%
X20977500Y-32737258D02*
X20977500Y-32262742D01*
X22022500Y-32737258D02*
X22022500Y-32262742D01*
%TO.C,R8*%
X32477500Y-10237258D02*
X32477500Y-9762742D01*
X33522500Y-10237258D02*
X33522500Y-9762742D01*
%TO.C,U2*%
X27940000Y-23940000D02*
X27995000Y-23940000D01*
X27940000Y-28060000D02*
X27940000Y-23940000D01*
X27995000Y-28060000D02*
X27940000Y-28060000D01*
X38005000Y-23940000D02*
X38060000Y-23940000D01*
X38060000Y-23940000D02*
X38060000Y-28060000D01*
X38060000Y-28060000D02*
X38005000Y-28060000D01*
X27990000Y-28600000D02*
X27660000Y-28840000D01*
X27660000Y-28360000D01*
X27990000Y-28600000D01*
G36*
X27990000Y-28600000D02*
G01*
X27660000Y-28840000D01*
X27660000Y-28360000D01*
X27990000Y-28600000D01*
G37*
%TO.C,R1*%
X30877500Y-31537258D02*
X30877500Y-31062742D01*
X31922500Y-31537258D02*
X31922500Y-31062742D01*
%TO.C,U1*%
X19250000Y-7800000D02*
X18300000Y-7800000D01*
X19250000Y-9200000D02*
X19250000Y-7800000D01*
X19250000Y-24800000D02*
X19250000Y-26200000D01*
X19250000Y-26200000D02*
X18300000Y-26200000D01*
X300000Y-26200000D02*
X300000Y-26700000D01*
X-200000Y-26200000D01*
X300000Y-26200000D01*
G36*
X300000Y-26700000D02*
G01*
X-200000Y-26200000D01*
X300000Y-26200000D01*
X300000Y-26700000D01*
G37*
%TO.C,D1*%
X50765000Y-31200000D02*
X50765000Y-33485000D01*
X50765000Y-33485000D02*
X52235000Y-33485000D01*
X52235000Y-33485000D02*
X52235000Y-31200000D01*
%TO.C,C7*%
X38490000Y-5440580D02*
X38490000Y-5159420D01*
X39510000Y-5440580D02*
X39510000Y-5159420D01*
%TO.C,U3*%
X41190000Y-28590000D02*
X42450000Y-28590000D01*
X41190000Y-32350000D02*
X41190000Y-28590000D01*
X48010000Y-28590000D02*
X46750000Y-28590000D01*
X48010000Y-32350000D02*
X48010000Y-28590000D01*
X41290000Y-33630000D02*
X40960000Y-33870000D01*
X40960000Y-33390000D01*
X41290000Y-33630000D01*
G36*
X41290000Y-33630000D02*
G01*
X40960000Y-33870000D01*
X40960000Y-33390000D01*
X41290000Y-33630000D01*
G37*
%TO.C,C2*%
X38865000Y-32761252D02*
X38865000Y-32238748D01*
X40335000Y-32761252D02*
X40335000Y-32238748D01*
%TO.C,R9*%
X43977500Y-4737258D02*
X43977500Y-4262742D01*
X45022500Y-4737258D02*
X45022500Y-4262742D01*
%TO.C,C8*%
X40765000Y-5561252D02*
X40765000Y-5038748D01*
X42235000Y-5561252D02*
X42235000Y-5038748D01*
%TO.C,U4*%
X37440000Y-7440000D02*
X41560000Y-7440000D01*
X37440000Y-7535000D02*
X37440000Y-7440000D01*
X37440000Y-12560000D02*
X37440000Y-12465000D01*
X41560000Y-7440000D02*
X41560000Y-7535000D01*
X41560000Y-12465000D02*
X41560000Y-12560000D01*
X41560000Y-12560000D02*
X37440000Y-12560000D01*
X36900000Y-7530000D02*
X36660000Y-7200000D01*
X37140000Y-7200000D01*
X36900000Y-7530000D01*
G36*
X36900000Y-7530000D02*
G01*
X36660000Y-7200000D01*
X37140000Y-7200000D01*
X36900000Y-7530000D01*
G37*
%TO.C,SW1*%
X8750000Y-37000000D02*
X8750000Y-39000000D01*
X9800000Y-35700000D02*
X10250000Y-35250000D01*
X9800000Y-40300000D02*
X10250000Y-40750000D01*
X10250000Y-35250000D02*
X12750000Y-35250000D01*
X10250000Y-40750000D02*
X12750000Y-40750000D01*
X13200000Y-35700000D02*
X12750000Y-35250000D01*
X13200000Y-40300000D02*
X12750000Y-40750000D01*
X14250000Y-37000000D02*
X14250000Y-39000000D01*
%TO.C,Q2*%
X14240000Y-30940000D02*
X15760000Y-30940000D01*
X14240000Y-30990000D02*
X14240000Y-30940000D01*
X14240000Y-32890000D02*
X14240000Y-32110000D01*
X14240000Y-34060000D02*
X14240000Y-34010000D01*
X15760000Y-30940000D02*
X15760000Y-31940000D01*
X15760000Y-33060000D02*
X15760000Y-34060000D01*
X15760000Y-34060000D02*
X14240000Y-34060000D01*
X13700000Y-32120000D02*
X13940000Y-32450000D01*
X13460000Y-32450000D01*
X13700000Y-32120000D01*
G36*
X13940000Y-32450000D02*
G01*
X13460000Y-32450000D01*
X13700000Y-32120000D01*
X13940000Y-32450000D01*
G37*
%TO.C,J2*%
X44480000Y-7840000D02*
X54520000Y-7840000D01*
X44480000Y-10200000D02*
X44480000Y-7840000D01*
X44480000Y-23320000D02*
X44480000Y-10800000D01*
X45100000Y-7840000D02*
X45100000Y-23320000D01*
X46600000Y-7840000D02*
X46600000Y-23320000D01*
X51500000Y-7840000D02*
X51500000Y-23320000D01*
X54520000Y-7840000D02*
X54520000Y-23320000D01*
X54520000Y-23320000D02*
X44480000Y-23320000D01*
X44480000Y-10500000D02*
X43870000Y-10940000D01*
X43870000Y-10060000D01*
X44480000Y-10500000D01*
G36*
X44480000Y-10500000D02*
G01*
X43870000Y-10940000D01*
X43870000Y-10060000D01*
X44480000Y-10500000D01*
G37*
%TD*%
M02*
